<?xml version="1.0" encoding="UTF-8" standalone="no"?>
<!-- Created with Inkscape (http://www.inkscape.org/) -->

<svg
   width="41.996429mm"
   height="41.996429mm"
   viewBox="0 0 41.996429 41.996429"
   version="1.1"
   id="svg1"
   inkscape:version="1.3.2 (091e20e, 2023-11-25, custom)"
   sodipodi:docname="avatar_5.svg"
   xmlns:inkscape="http://www.inkscape.org/namespaces/inkscape"
   xmlns:sodipodi="http://sodipodi.sourceforge.net/DTD/sodipodi-0.dtd"
   xmlns="http://www.w3.org/2000/svg"
   xmlns:svg="http://www.w3.org/2000/svg">
  <sodipodi:namedview
     id="namedview1"
     pagecolor="#ffffff"
     bordercolor="#000000"
     borderopacity="0.25"
     inkscape:showpageshadow="2"
     inkscape:pageopacity="0.0"
     inkscape:pagecheckerboard="0"
     inkscape:deskcolor="#d1d1d1"
     inkscape:document-units="mm"
     inkscape:zoom="1.0841681"
     inkscape:cx="79.323495"
     inkscape:cy="78.862311"
     inkscape:window-width="2560"
     inkscape:window-height="1494"
     inkscape:window-x="-11"
     inkscape:window-y="-11"
     inkscape:window-maximized="1"
     inkscape:current-layer="layer1" />
  <defs
     id="defs1">
    <clipPath
       clipPathUnits="userSpaceOnUse"
       id="clipPath71">
      <path
         d="M 0,500 H 500 V 0 H 0 Z"
         transform="translate(-446.38891,-250.00001)"
         id="path71" />
    </clipPath>
    <clipPath
       clipPathUnits="userSpaceOnUse"
       id="clipPath73">
      <path
         d="M 0,500 H 500 V 0 H 0 Z"
         transform="translate(-424.23431,-213.21621)"
         id="path73" />
    </clipPath>
    <clipPath
       clipPathUnits="userSpaceOnUse"
       id="clipPath75">
      <path
         d="M 0,500 H 500 V 0 H 0 Z"
         transform="translate(-394.87711,-243.29391)"
         id="path75" />
    </clipPath>
    <clipPath
       clipPathUnits="userSpaceOnUse"
       id="clipPath77">
      <path
         d="M 0,500 H 500 V 0 H 0 Z"
         transform="translate(-404.78681,-261.83931)"
         id="path77" />
    </clipPath>
    <clipPath
       clipPathUnits="userSpaceOnUse"
       id="clipPath79">
      <path
         d="M 0,500 H 500 V 0 H 0 Z"
         transform="translate(-371.21501,-260.3265)"
         id="path79" />
    </clipPath>
    <clipPath
       clipPathUnits="userSpaceOnUse"
       id="clipPath81">
      <path
         d="M 0,500 H 500 V 0 H 0 Z"
         transform="translate(-407.30451,-260.51541)"
         id="path81" />
    </clipPath>
    <clipPath
       clipPathUnits="userSpaceOnUse"
       id="clipPath83">
      <path
         d="M 0,500 H 500 V 0 H 0 Z"
         transform="translate(-385.14511,-282.97061)"
         id="path83" />
    </clipPath>
  </defs>
  <g
     inkscape:label="Camada 1"
     inkscape:groupmode="layer"
     id="layer1"
     transform="translate(-83.872912,-127.52916)">
    <path
       id="path70"
       d="m 0,0 c 0,-32.873 -26.649,-59.523 -59.523,-59.523 -32.873,0 -59.522,26.65 -59.522,59.523 0,32.873 26.649,59.522 59.522,59.522 C -26.649,59.522 0,32.873 0,0"
       style="fill:#ffffff icc-color(Display, 1, 1, 1);fill-opacity:1;fill-rule:nonzero;stroke:none"
       transform="matrix(0.35277776,0,0,-0.35277776,125.86934,148.5272)"
       clip-path="url(#clipPath71)" />
    <path
       id="path72"
       d="m 0,0 c -2.075,7.379 -7.828,13.154 -15.199,15.257 l -13.597,3.88 h -8.572 -8.572 l -13.597,-3.88 C -66.908,13.154 -72.661,7.379 -74.736,0 l -3.742,-6.239 c 10.687,-10.214 25.16,-16.5 41.11,-16.5 15.95,0 30.423,6.286 41.11,16.5 z"
       style="fill:#383838 icc-color(Display, 0.21998596, 0.21998596, 0.21998596);fill-opacity:1;fill-rule:nonzero;stroke:none"
       transform="matrix(0.35277776,0,0,-0.35277776,118.05369,161.50371)"
       clip-path="url(#clipPath73)" />
    <path
       id="path74"
       d="m 0,0 h -8.011 -8.011 l -2.524,-13.217 c 0,0 4.52,-4.738 10.535,-4.987 6.016,0.249 10.536,4.987 10.536,4.987 z"
       style="fill:#d7eae8 icc-color(Display, 0.83898926, 0.91799927, 0.9099884);fill-opacity:1;fill-rule:nonzero;stroke:none"
       transform="matrix(0.35277776,0,0,-0.35277776,107.69712,150.89297)"
       clip-path="url(#clipPath75)" />
    <path
       id="path76"
       d="m 0,0 c 0,-10.833 -8.023,-25.341 -17.92,-25.341 -9.898,0 -17.921,14.508 -17.921,25.341 0,10.833 8.023,19.615 17.921,19.615 C -8.023,19.615 0,10.833 0,0"
       style="fill:#e5f4f3 icc-color(Display, 0.89399719, 0.95698547, 0.95298767);fill-opacity:1;fill-rule:nonzero;stroke:none"
       transform="matrix(0.35277776,0,0,-0.35277776,111.19304,144.35056)"
       clip-path="url(#clipPath77)" />
    <path
       id="path78"
       d="m 0,0 c -0.085,-2.117 -1.345,-4.906 -2.758,-4.849 -1.413,0.057 -2.444,2.938 -2.359,5.055 0.085,2.117 1.3,3.787 2.713,3.73 C -0.991,3.879 0.085,2.117 0,0"
       style="fill:#e5f4f3 icc-color(Display, 0.89399719, 0.95698547, 0.95298767);fill-opacity:1;fill-rule:nonzero;stroke:none"
       transform="matrix(0.35277776,0,0,-0.35277776,99.349657,144.88425)"
       clip-path="url(#clipPath79)" />
    <path
       id="path80"
       d="M 0,0 C 0.072,-2.118 -0.978,-4.992 -2.391,-5.04 -3.804,-5.088 -5.046,-2.291 -5.118,-0.173 -5.19,1.944 -4.102,3.7 -2.689,3.747 -1.276,3.795 -0.072,2.118 0,0"
       style="fill:#e5f4f3 icc-color(Display, 0.89399719, 0.95698547, 0.95298767);fill-opacity:1;fill-rule:nonzero;stroke:none"
       transform="matrix(0.35277776,0,0,-0.35277776,112.08123,144.8176)"
       clip-path="url(#clipPath81)" />
    <path
       id="path82"
       d="m 0,0 c -0.986,-0.074 -1.967,-0.222 -2.931,-0.44 -3.94,-0.891 -7.633,-2.97 -10.308,-6.015 0.535,0.064 1.069,0.128 1.604,0.191 -1.805,-1.5 -3.436,-3.259 -4.493,-5.354 -1.258,-2.492 -0.732,-4.926 -1.426,-7.465 0.201,0.736 1.399,0.649 1.814,0.009 0.415,-0.64 0.304,-1.471 0.232,-2.23 -0.244,-2.563 0.138,-5.14 0.518,-7.687 0.059,-0.393 0.174,-0.859 0.55,-0.99 0.704,2.2 1.417,4.462 1.286,6.768 -0.054,0.961 -0.255,1.91 -0.294,2.871 -0.149,3.684 2.011,6.799 4.042,9.668 0.679,0.96 0.665,0.969 1.824,0.668 0.963,-0.25 1.925,-0.497 2.901,-0.699 1.946,-0.402 3.921,-0.675 5.907,-0.775 3.304,-0.168 6.678,0.264 9.701,1.606 0.428,0.19 0.48,0.327 0.867,0.589 0.727,-1.592 1.454,-3.185 2.181,-4.778 1.205,-2.641 2.421,-5.313 2.969,-8.163 0.346,-1.8 0.381,-3.796 -0.64,-5.318 -0.14,-0.209 -0.306,-0.426 -0.306,-0.678 -10e-4,-0.174 0.079,-0.337 0.157,-0.493 0.393,-0.787 0.787,-1.574 1.18,-2.361 1.05,2.068 2.119,4.199 2.325,6.508 0.171,1.912 0.067,3.808 0.132,5.719 0.026,0.772 0.254,1.509 0.244,2.289 -0.003,0.304 -0.122,2.07 -0.496,2.156 0.32,-0.073 0.611,-0.272 0.796,-0.544 0.088,1.593 -0.106,3.239 -0.845,4.652 -0.739,1.414 -2.085,2.566 -3.663,2.803 0.366,0.172 0.731,0.344 1.096,0.516 -1.175,0.541 -2.464,0.833 -3.757,0.851 0.102,1.108 0.052,2.353 -0.253,3.429 -0.12,0.425 -0.311,0.824 -0.567,1.183 -0.18,0.251 -0.972,0.771 -1.023,1.003 C 11.41,-0.905 11.335,-1.332 11.12,-1.673 9.734,-0.784 8.244,0.003 6.691,0.555 7.819,-1.071 3.932,-0.094 3.241,-0.029 2.164,0.073 1.079,0.081 0,0"
       style="fill:#383838 icc-color(Display, 0.21998596, 0.21998596, 0.21998596);fill-opacity:1;fill-rule:nonzero;stroke:none"
       transform="matrix(0.35277776,0,0,-0.35277776,104.26389,136.89591)"
       clip-path="url(#clipPath83)" />
  </g>
</svg>
