<?xml version="1.0" encoding="UTF-8" standalone="no"?>
<!-- Created with Inkscape (http://www.inkscape.org/) -->

<svg
   width="41.996429mm"
   height="41.996429mm"
   viewBox="0 0 41.996429 41.996429"
   version="1.1"
   id="svg1"
   inkscape:version="1.3.2 (091e20e, 2023-11-25, custom)"
   sodipodi:docname="avatar_6.svg"
   xmlns:inkscape="http://www.inkscape.org/namespaces/inkscape"
   xmlns:sodipodi="http://sodipodi.sourceforge.net/DTD/sodipodi-0.dtd"
   xmlns="http://www.w3.org/2000/svg"
   xmlns:svg="http://www.w3.org/2000/svg">
  <sodipodi:namedview
     id="namedview1"
     pagecolor="#ffffff"
     bordercolor="#000000"
     borderopacity="0.25"
     inkscape:showpageshadow="2"
     inkscape:pageopacity="0.0"
     inkscape:pagecheckerboard="0"
     inkscape:deskcolor="#d1d1d1"
     inkscape:document-units="mm"
     inkscape:zoom="1.0841681"
     inkscape:cx="79.323495"
     inkscape:cy="78.862311"
     inkscape:window-width="2560"
     inkscape:window-height="1494"
     inkscape:window-x="-11"
     inkscape:window-y="-11"
     inkscape:window-maximized="1"
     inkscape:current-layer="layer1" />
  <defs
     id="defs1">
    <clipPath
       clipPathUnits="userSpaceOnUse"
       id="clipPath133">
      <path
         d="M 0,500 H 500 V 0 H 0 Z"
         transform="translate(-172.65621,-103.0191)"
         id="path133" />
    </clipPath>
    <clipPath
       clipPathUnits="userSpaceOnUse"
       id="clipPath135">
      <path
         d="M 0,500 H 500 V 0 H 0 Z"
         transform="translate(-94.392805,-124.09601)"
         id="path135" />
    </clipPath>
    <clipPath
       clipPathUnits="userSpaceOnUse"
       id="clipPath137">
      <path
         d="M 0,500 H 500 V 0 H 0 Z"
         transform="translate(-132.0252,-123.76601)"
         id="path137" />
    </clipPath>
    <clipPath
       clipPathUnits="userSpaceOnUse"
       id="clipPath139">
      <path
         d="M 0,500 H 500 V 0 H 0 Z"
         transform="translate(-150.5017,-66.235304)"
         id="path139" />
    </clipPath>
    <clipPath
       clipPathUnits="userSpaceOnUse"
       id="clipPath141">
      <path
         d="M 0,500 H 500 V 0 H 0 Z"
         transform="translate(-121.1445,-96.313005)"
         id="path141" />
    </clipPath>
    <clipPath
       clipPathUnits="userSpaceOnUse"
       id="clipPath143">
      <path
         d="M 0,500 H 500 V 0 H 0 Z"
         transform="translate(-131.0542,-114.8583)"
         id="path143" />
    </clipPath>
    <clipPath
       clipPathUnits="userSpaceOnUse"
       id="clipPath145">
      <path
         d="M 0,500 H 500 V 0 H 0 Z"
         transform="translate(-97.4824,-113.34551)"
         id="path145" />
    </clipPath>
    <clipPath
       clipPathUnits="userSpaceOnUse"
       id="clipPath147">
      <path
         d="M 0,500 H 500 V 0 H 0 Z"
         transform="translate(-133.57191,-113.5344)"
         id="path147" />
    </clipPath>
    <clipPath
       clipPathUnits="userSpaceOnUse"
       id="clipPath149">
      <path
         d="M 0,500 H 500 V 0 H 0 Z"
         transform="translate(-96.974905,-118.5473)"
         id="path149" />
    </clipPath>
  </defs>
  <g
     inkscape:label="Camada 1"
     inkscape:groupmode="layer"
     id="layer1"
     transform="translate(-83.872922,-127.52917)">
    <path
       id="path132"
       d="m 0,0 c 0,-32.873 -26.649,-59.523 -59.523,-59.523 -32.873,0 -59.522,26.65 -59.522,59.523 0,32.873 26.649,59.522 59.522,59.522 C -26.649,59.522 0,32.873 0,0"
       style="fill:#ffffff icc-color(Display, 1, 1, 1);fill-opacity:1;fill-rule:nonzero;stroke:none"
       transform="matrix(0.35277776,0,0,-0.35277776,125.86935,148.52721)"
       clip-path="url(#clipPath133)" />
    <path
       id="path134"
       d="m 0,0 c -0.005,-0.022 -0.01,-0.043 -0.015,-0.065 -1.041,-4.483 -0.774,-9.152 -0.501,-13.746 0.206,-3.481 0.412,-6.961 0.619,-10.442 0.193,-3.236 -0.03,-3.983 -1.773,-6.479 1.846,-2.118 5.118,-2.96 7.828,-3.067 2.884,-0.114 5.744,0.525 8.527,1.292 -4.36,6.34 -5.989,14.034 -5.552,21.609 C 9.35,-7.135 8.407,-3.431 7.746,0.242 7.416,2.073 7.121,3.92 7.07,5.783 7.049,6.565 6.867,10.484 7.657,10.896 3.596,8.779 1.05,4.46 0,0"
       style="fill:#383838 icc-color(Display, 0.21998596, 0.21998596, 0.21998596);fill-opacity:1;fill-rule:nonzero;stroke:none"
       transform="matrix(0.35277776,0,0,-0.35277776,98.259758,141.09174)"
       clip-path="url(#clipPath135)" />
    <path
       id="path136"
       d="m 0,0 c 0.005,-0.022 0.01,-0.043 0.015,-0.065 1.041,-4.483 0.774,-9.152 0.501,-13.746 -0.206,-3.481 -0.412,-6.961 -0.619,-10.442 -0.193,-3.236 0.03,-3.983 1.773,-6.479 -1.846,-2.118 -5.118,-2.96 -7.828,-3.067 -2.884,-0.114 -5.744,0.525 -8.527,1.292 4.36,6.34 5.989,14.034 5.552,21.609 -0.217,3.763 0.726,7.467 1.387,11.14 0.33,1.831 0.625,3.678 0.676,5.541 0.021,0.782 0.203,4.701 -0.587,5.113 C -3.596,8.779 -1.05,4.46 0,0"
       style="fill:#383838 icc-color(Display, 0.21998596, 0.21998596, 0.21998596);fill-opacity:1;fill-rule:nonzero;stroke:none"
       transform="matrix(0.35277776,0,0,-0.35277776,111.53563,141.20816)"
       clip-path="url(#clipPath137)" />
    <path
       id="path138"
       d="m 0,0 c -2.075,7.379 -7.828,13.154 -15.199,15.257 l -13.597,3.88 h -8.572 -8.572 l -13.597,-3.88 C -66.908,13.154 -72.661,7.379 -74.736,0 l -3.741,-6.239 c 10.686,-10.214 25.159,-16.5 41.109,-16.5 15.95,0 30.423,6.286 41.11,16.5 z"
       style="fill:#383838 icc-color(Display, 0.21998596, 0.21998596, 0.21998596);fill-opacity:1;fill-rule:nonzero;stroke:none"
       transform="matrix(0.35277776,0,0,-0.35277776,118.05373,161.50371)"
       clip-path="url(#clipPath139)" />
    <path
       id="path140"
       d="m 0,0 h -8.011 -8.011 l -2.524,-13.217 c 0,0 4.52,-4.738 10.535,-4.987 6.016,0.249 10.536,4.987 10.536,4.987 z"
       style="fill:#d7eae8 icc-color(Display, 0.83898926, 0.91799927, 0.9099884);fill-opacity:1;fill-rule:nonzero;stroke:none"
       transform="matrix(0.35277776,0,0,-0.35277776,107.69716,150.89297)"
       clip-path="url(#clipPath141)" />
    <path
       id="path142"
       d="m 0,0 c 0,-10.833 -8.023,-25.341 -17.921,-25.341 -9.897,0 -17.92,14.508 -17.92,25.341 0,10.833 8.023,19.615 17.92,19.615 C -8.023,19.615 0,10.833 0,0"
       style="fill:#e5f4f3 icc-color(Display, 0.89399719, 0.95698547, 0.95298767);fill-opacity:1;fill-rule:nonzero;stroke:none"
       transform="matrix(0.35277776,0,0,-0.35277776,111.19308,144.3506)"
       clip-path="url(#clipPath143)" />
    <path
       id="path144"
       d="m 0,0 c -0.085,-2.117 -1.345,-4.906 -2.758,-4.849 -1.413,0.057 -2.444,2.938 -2.359,5.055 0.085,2.117 1.3,3.787 2.713,3.73 C -0.991,3.879 0.085,2.117 0,0"
       style="fill:#e5f4f3 icc-color(Display, 0.89399719, 0.95698547, 0.95298767);fill-opacity:1;fill-rule:nonzero;stroke:none"
       transform="matrix(0.35277776,0,0,-0.35277776,99.349698,144.88428)"
       clip-path="url(#clipPath145)" />
    <path
       id="path146"
       d="M 0,0 C 0.072,-2.118 -0.978,-4.992 -2.391,-5.04 -3.805,-5.088 -5.046,-2.291 -5.118,-0.173 -5.19,1.944 -4.102,3.7 -2.689,3.747 -1.276,3.795 -0.072,2.118 0,0"
       style="fill:#e5f4f3 icc-color(Display, 0.89399719, 0.95698547, 0.95298767);fill-opacity:1;fill-rule:nonzero;stroke:none"
       transform="matrix(0.35277776,0,0,-0.35277776,112.08127,144.81764)"
       clip-path="url(#clipPath147)" />
    <path
       id="path148"
       d="M 0,0 C -0.135,1.061 0.306,1.874 0.681,3.31 0.9,4.151 1.874,5.333 1.942,6.087 1.831,4.854 1.827,3.611 1.929,2.378 c 9.112,1.8 18.056,2.108 27.141,0.145 0.401,-0.087 0.89,-0.15 1.158,0.161 0.164,0.191 0.184,0.464 0.189,0.715 0.014,0.822 -0.072,1.639 -0.185,2.449 1.096,-1.619 1.853,-2.266 1.975,-4.413 0.087,-1.517 0.06,-3.038 0.033,-4.557 -0.041,-2.285 -0.081,-4.569 -0.122,-6.854 0.323,-0.255 0.832,-0.092 1.083,0.233 0.251,0.325 0.31,0.755 0.353,1.164 0.159,1.519 0.211,3.05 0.154,4.577 -0.029,0.762 -0.071,1.578 0.326,2.23 3.442,5.645 -0.704,14.49 -5.201,18.647 C 20.555,24.529 5.811,22.321 0.275,12.41 -1.04,10.056 -1.563,7.375 -1.923,4.733 -2.071,3.651 -2.035,2.554 -2,1.463 c 0.106,-3.21 0.212,-6.43 0.708,-9.603 0.072,-0.457 0.335,-1.048 0.787,-0.946 0.21,0.047 0.353,0.241 0.445,0.436 0.505,1.074 0.008,2.336 0.08,3.521 0.082,1.335 0.888,2.713 0.339,3.933 C 0.157,-0.746 0.046,-0.359 0,0"
       style="fill:#383838 icc-color(Display, 0.21998596, 0.21998596, 0.21998596);fill-opacity:1;fill-rule:nonzero;stroke:none"
       transform="matrix(0.35277776,0,0,-0.35277776,99.170665,143.0492)"
       clip-path="url(#clipPath149)" />
  </g>
</svg>
