<?xml version="1.0" encoding="UTF-8" standalone="no"?>
<!-- Created with Inkscape (http://www.inkscape.org/) -->

<svg
   width="41.996429mm"
   height="41.996429mm"
   viewBox="0 0 41.996429 41.996429"
   version="1.1"
   id="svg1"
   inkscape:version="1.3.2 (091e20e, 2023-11-25, custom)"
   sodipodi:docname="avatar_4.svg"
   xmlns:inkscape="http://www.inkscape.org/namespaces/inkscape"
   xmlns:sodipodi="http://sodipodi.sourceforge.net/DTD/sodipodi-0.dtd"
   xmlns="http://www.w3.org/2000/svg"
   xmlns:svg="http://www.w3.org/2000/svg">
  <sodipodi:namedview
     id="namedview1"
     pagecolor="#ffffff"
     bordercolor="#000000"
     borderopacity="0.25"
     inkscape:showpageshadow="2"
     inkscape:pageopacity="0.0"
     inkscape:pagecheckerboard="0"
     inkscape:deskcolor="#d1d1d1"
     inkscape:document-units="mm"
     inkscape:zoom="1.0841681"
     inkscape:cx="79.323495"
     inkscape:cy="78.862311"
     inkscape:window-width="2560"
     inkscape:window-height="1494"
     inkscape:window-x="-11"
     inkscape:window-y="-11"
     inkscape:window-maximized="1"
     inkscape:current-layer="layer1" />
  <defs
     id="defs1">
    <clipPath
       clipPathUnits="userSpaceOnUse"
       id="clipPath57">
      <path
         d="M 0,500 H 500 V 0 H 0 Z"
         transform="translate(-309.52261,-250.00001)"
         id="path57" />
    </clipPath>
    <clipPath
       clipPathUnits="userSpaceOnUse"
       id="clipPath59">
      <path
         d="M 0,500 H 500 V 0 H 0 Z"
         transform="translate(-256.11861,-271.72131)"
         id="path59" />
    </clipPath>
    <clipPath
       clipPathUnits="userSpaceOnUse"
       id="clipPath61">
      <path
         d="M 0,500 H 500 V 0 H 0 Z"
         transform="translate(-242.8993,-271.72131)"
         id="path61" />
    </clipPath>
    <clipPath
       clipPathUnits="userSpaceOnUse"
       id="clipPath63">
      <path
         d="M 0,500 H 500 V 0 H 0 Z"
         transform="translate(-287.368,-213.21621)"
         id="path63" />
    </clipPath>
    <clipPath
       clipPathUnits="userSpaceOnUse"
       id="clipPath65">
      <path
         d="M 0,500 H 500 V 0 H 0 Z"
         transform="translate(-258.01081,-243.29391)"
         id="path65" />
    </clipPath>
    <clipPath
       clipPathUnits="userSpaceOnUse"
       id="clipPath67">
      <path
         d="M 0,500 H 500 V 0 H 0 Z"
         transform="translate(-267.9205,-261.83931)"
         id="path67" />
    </clipPath>
    <clipPath
       clipPathUnits="userSpaceOnUse"
       id="clipPath69">
      <path
         d="M 0,500 H 500 V 0 H 0 Z"
         transform="translate(-251.24461,-283.6461)"
         id="path69" />
    </clipPath>
  </defs>
  <g
     inkscape:label="Camada 1"
     inkscape:groupmode="layer"
     id="layer1"
     transform="translate(-83.872912,-127.52916)">
    <path
       id="path56"
       d="m 0,0 c 0,-32.873 -26.649,-59.523 -59.523,-59.523 -32.873,0 -59.522,26.65 -59.522,59.523 0,32.873 26.649,59.522 59.522,59.522 C -26.649,59.522 0,32.873 0,0"
       style="fill:#ffffff icc-color(Display, 1, 1, 1);fill-opacity:1;fill-rule:nonzero;stroke:none"
       transform="matrix(0.35277776,0,0,-0.35277776,125.86934,148.5272)"
       clip-path="url(#clipPath57)" />
    <path
       id="path58"
       d="m 0,0 c -1.948,0.343 -4.626,-0.471 -6.433,-0.415 -2.012,0.064 -4.053,0.328 -5.888,1.155 -2.058,0.926 -3.125,2.78 -4.24,4.633 -1.593,2.648 -0.292,3.907 2.163,5.607 6.599,4.573 17.252,2.689 22.591,-3.019 2.812,-3.008 4.517,-6.966 5.096,-11.043 0.406,-2.866 0.169,-6.315 1.03,-9.043 0.848,-2.686 3.764,-4.153 4.467,-6.917 0.483,-1.898 -0.303,-3.853 -0.802,-5.746 -0.5,-1.894 -0.6,-4.201 0.858,-5.508 1.112,-0.996 2.777,-1.059 4.252,-0.823 0.319,0.051 0.655,0.112 0.959,0.001 0.906,-0.333 0.692,-1.646 0.445,-2.579 -0.744,-2.8 0.071,-5.938 1.266,-8.489 1.132,-2.418 3.686,-4.337 3.939,-7.123 0.189,-2.092 -1.083,-4.014 -2.383,-5.665 -0.797,1.346 -1.904,2.506 -3.212,3.365 -1.68,1.104 -2.62,3.108 -4.353,4.172 -3.158,1.942 -7.418,2.764 -11.07,2.931 -1.658,0.075 -3.336,-0.005 -4.959,0.339 -4.102,0.868 -7.295,4.473 -8.374,8.525 -1.079,4.051 -0.273,8.431 1.49,12.235 1.254,2.704 2.968,5.168 4.406,7.779 1.438,2.612 2.619,5.464 2.658,8.445 0.029,2.202 -0.68,5.049 -2.437,6.545 C 1.067,-0.296 0.564,-0.099 0,0"
       style="fill:#383838 icc-color(Display, 0.21998596, 0.21998596, 0.21998596);fill-opacity:1;fill-rule:nonzero;stroke:none"
       transform="matrix(0.35277776,0,0,-0.35277776,107.0296,140.86441)"
       clip-path="url(#clipPath59)" />
    <path
       id="path60"
       d="m 0,0 c 1.947,0.343 4.626,-0.471 6.433,-0.415 2.012,0.064 4.053,0.328 5.888,1.155 2.058,0.926 3.125,2.78 4.24,4.633 1.593,2.648 0.292,3.907 -2.163,5.607 -3.85,2.668 -9.164,3.351 -13.435,1.295 -3.47,-1.669 -7.096,-3.813 -10.234,-6.034 -3.977,-2.815 -4.211,-5.516 -4.647,-9.954 -0.347,-3.52 -3.314,-6.072 -3.723,-9.911 -0.333,-3.136 -0.299,-6.471 -1.923,-9.174 -0.428,-0.713 -0.979,-1.585 -0.552,-2.299 0.204,-0.342 0.583,-0.531 0.883,-0.792 1.596,-1.384 0.464,-4.096 -1.199,-5.399 -1.662,-1.303 -3.839,-2.148 -4.795,-4.032 -1.505,-2.964 0.807,-6.984 -1.069,-9.728 -0.698,-1.021 -1.914,-1.722 -2.236,-2.916 -0.199,-0.74 -0.008,-1.522 0.184,-2.264 0.338,-1.305 0.675,-2.611 1.013,-3.916 5.064,5.645 10.881,9.284 18.65,9.638 1.657,0.075 3.336,-0.005 4.959,0.339 4.102,0.868 7.295,4.473 8.374,8.525 1.078,4.051 0.273,8.431 -1.49,12.235 -1.254,2.704 -2.968,5.168 -4.406,7.779 -1.438,2.612 -2.619,5.464 -2.658,8.445 -0.029,2.202 0.68,5.049 2.437,6.545 C -1.067,-0.296 -0.564,-0.099 0,0"
       style="fill:#383838 icc-color(Display, 0.21998596, 0.21998596, 0.21998596);fill-opacity:1;fill-rule:nonzero;stroke:none"
       transform="matrix(0.35277776,0,0,-0.35277776,102.36612,140.86441)"
       clip-path="url(#clipPath61)" />
    <path
       id="path62"
       d="m 0,0 c -2.075,7.379 -7.828,13.154 -15.199,15.257 l -13.597,3.88 h -8.572 -8.572 l -13.597,-3.88 C -66.908,13.154 -72.661,7.379 -74.736,0 l -3.742,-6.239 c 10.687,-10.214 25.16,-16.5 41.11,-16.5 15.95,0 30.423,6.286 41.109,16.5 z"
       style="fill:#383838 icc-color(Display, 0.21998596, 0.21998596, 0.21998596);fill-opacity:1;fill-rule:nonzero;stroke:none"
       transform="matrix(0.35277776,0,0,-0.35277776,118.05369,161.50371)"
       clip-path="url(#clipPath63)" />
    <path
       id="path64"
       d="m 0,0 h -8.011 -8.011 l -2.524,-13.217 c 0,0 4.52,-4.738 10.535,-4.987 6.016,0.249 10.536,4.987 10.536,4.987 z"
       style="fill:#d7eae8 icc-color(Display, 0.83898926, 0.91799927, 0.9099884);fill-opacity:1;fill-rule:nonzero;stroke:none"
       transform="matrix(0.35277776,0,0,-0.35277776,107.69713,150.89297)"
       clip-path="url(#clipPath65)" />
    <path
       id="path66"
       d="m 0,0 c 0,-10.833 -8.023,-25.341 -17.921,-25.341 -9.897,0 -17.92,14.508 -17.92,25.341 0,10.833 8.023,19.615 17.92,19.615 C -8.023,19.615 0,10.833 0,0"
       style="fill:#e5f4f3 icc-color(Display, 0.89399719, 0.95698547, 0.95298767);fill-opacity:1;fill-rule:nonzero;stroke:none"
       transform="matrix(0.35277776,0,0,-0.35277776,111.19305,144.35056)"
       clip-path="url(#clipPath67)" />
    <path
       id="path68"
       d="M 0,0 C 5.408,0.397 10.472,-3.45 13.444,-7.722 8.798,-6.138 2.562,-8.079 1.343,-13.364 c -0.254,-1.101 -0.271,-2.273 -0.755,-3.295 -1.753,-3.698 -7.68,-2.692 -10.557,-5.603 -2.612,-2.643 -1.543,-7.117 -2.896,-10.577 -0.66,-1.689 -1.899,-3.111 -2.515,-4.817 -0.501,-1.389 -0.899,-3.248 -2.362,-3.451 -0.926,-0.129 -1.798,0.602 -2.149,1.469 -0.352,0.866 -0.305,1.836 -0.252,2.769 0.299,5.33 -0.467,9.561 -1.757,14.721 -0.576,3.796 1.445,7.451 3.393,10.759 1.33,2.259 2.705,4.571 4.757,6.201 1.545,1.228 3.393,2.003 5.22,2.748 2.751,1.121 5.568,2.223 8.53,2.44"
       style="fill:#383838 icc-color(Display, 0.21998596, 0.21998596, 0.21998596);fill-opacity:1;fill-rule:nonzero;stroke:none"
       transform="matrix(0.35277776,0,0,-0.35277776,105.31016,136.65761)"
       clip-path="url(#clipPath69)" />
  </g>
</svg>
