<?xml version="1.0" encoding="UTF-8"?>
<!-- Created with Inkscape (http://www.inkscape.org/) -->
<svg width="73.002mm" height="73.003mm" version="1.1" viewBox="0 0 73.002 73.003" xmlns="http://www.w3.org/2000/svg">
 <defs>
  <clipPath id="clipPath114">
   <path transform="translate(-642.14 -307.2)" d="M 0,799.92 H 799.92 V 0 H 0 Z"/>
  </clipPath>
  <clipPath id="clipPath116">
   <path transform="translate(-681.17 -423.19)" d="M 0,799.92 H 799.92 V 0 H 0 Z"/>
  </clipPath>
  <clipPath id="clipPath118">
   <path transform="translate(-696.38 -486.34)" d="M 0,799.92 H 799.92 V 0 H 0 Z"/>
  </clipPath>
  <clipPath id="clipPath120">
   <path transform="translate(-696.9 -482.95)" d="M 0,799.92 H 799.92 V 0 H 0 Z"/>
  </clipPath>
  <clipPath id="clipPath122">
   <path transform="translate(-588.61 -486.34)" d="M 0,799.92 H 799.92 V 0 H 0 Z"/>
  </clipPath>
  <clipPath id="clipPath124">
   <path transform="translate(-588.09 -482.95)" d="M 0,799.92 H 799.92 V 0 H 0 Z"/>
  </clipPath>
  <clipPath id="clipPath126">
   <path transform="translate(-675.68 -465.2)" d="M 0,799.92 H 799.92 V 0 H 0 Z"/>
  </clipPath>
  <clipPath id="clipPath128">
   <path transform="translate(-641.1 -365.68)" d="M 0,799.92 H 799.92 V 0 H 0 Z"/>
  </clipPath>
  <clipPath id="clipPath130">
   <path transform="translate(-622.95 -434.9)" d="M 0,799.92 H 799.92 V 0 H 0 Z"/>
  </clipPath>
  <clipPath id="clipPath132">
   <path transform="translate(-625.57 -433.77)" d="M 0,799.92 H 799.92 V 0 H 0 Z"/>
  </clipPath>
  <clipPath id="clipPath134">
   <path transform="translate(-661.32 -434.9)" d="M 0,799.92 H 799.92 V 0 H 0 Z"/>
  </clipPath>
  <clipPath id="clipPath136">
   <path transform="translate(-663.94 -433.77)" d="M 0,799.92 H 799.92 V 0 H 0 Z"/>
  </clipPath>
  <clipPath id="clipPath138">
   <path transform="translate(-630.25 -393.92)" d="M 0,799.92 H 799.92 V 0 H 0 Z"/>
  </clipPath>
  <clipPath id="clipPath140">
   <path transform="translate(-641.1 -365.68)" d="M 0,799.92 H 799.92 V 0 H 0 Z"/>
  </clipPath>
  <clipPath id="clipPath143">
   <path transform="matrix(1.3333 0 0 -1.3333 0 1066.6)" d="M 0,799.92 H 799.92 V 0 H 0 Z"/>
  </clipPath>
  <clipPath id="clipPath141">
   <path transform="translate(-641.66 -514.13)" d="m641.66 514.13h103.47v-206.94h-103.47z"/>
  </clipPath>
 </defs>
 <g transform="translate(-68.527 -111.92)">
  <g fill-rule="evenodd">
   <path transform="matrix(.35278 0 0 -.35278 105.03 184.92)" d="m0 0c56.988 0 103.47 46.48 103.47 103.47 0 56.988-46.479 103.47-103.47 103.47s-103.47-46.48-103.47-103.47c0-56.989 46.481-103.47 103.47-103.47" clip-path="url(#clipPath114)" fill="#57a9aa"/>
   <path transform="matrix(.35278 0 0 -.35278 118.8 144)" d="m0 0 19.518-57.995 10.597-31.492c-18.324-16.473-42.556-26.5-69.135-26.503h-0.023c-26.578 3e-3 -50.812 10.03-69.135 26.503l10.598 31.492 19.516 57.995h39.033z" clip-path="url(#clipPath116)" fill="#f4762f"/>
   <path transform="matrix(.35278 0 0 -.35278 124.17 121.72)" d="M 0,0 C -8.121,4.45 -49.994,-37.013 -29.678,-52.129 -9.361,-67.245 8.121,-4.451 0,0" clip-path="url(#clipPath118)" fill="#f4762f"/>
   <path transform="matrix(.35278 0 0 -.35278 124.35 122.92)" d="m0 0c-5.027 3.613-19.209-9.963-15.072-28.335 1.136-5.05-13.203-21.704-9.856-24.111 12.344-8.874 31.824 47.488 24.928 52.446" clip-path="url(#clipPath120)" fill="#a2450f"/>
   <path transform="matrix(.35278 0 0 -.35278 86.145 121.72)" d="M 0,0 C 8.121,4.45 49.992,-37.013 29.676,-52.129 9.361,-67.245 -8.121,-4.451 0,0" clip-path="url(#clipPath122)" fill="#f4762f"/>
   <path transform="matrix(.35278 0 0 -.35278 85.962 122.92)" d="m0 0c5.025 3.613 19.209-9.963 15.072-28.335-1.136-5.05 13.203-21.704 9.854-24.111-12.344-8.874-31.824 47.488-24.926 52.446" clip-path="url(#clipPath124)" fill="#a2450f"/>
   <path transform="matrix(.35278 0 0 -.35278 116.86 129.18)" d="m0 0 33.541-57.708-67.08-41.81-67.082 41.809 33.541 57.708z" clip-path="url(#clipPath126)" fill="#f4762f"/>
   <path transform="matrix(.35278 0 0 -.35278 104.66 164.29)" d="m0 0 68.119 41.81c-33.541 57.708-67.08 57.708-67.599-25.462 0.519 83.17-25.737 83.17-67.6 25.462z" clip-path="url(#clipPath128)" fill="#a2450f"/>
   <path transform="matrix(.35278 0 0 -.35278 98.26 139.87)" d="m0 0c3.361 0 6.086-2.725 6.086-6.085 0-3.361-2.725-6.085-6.086-6.085-3.359 0-6.084 2.724-6.084 6.085 0 3.36 2.725 6.085 6.084 6.085" clip-path="url(#clipPath130)"/>
   <path transform="matrix(.35278 0 0 -.35278 99.185 140.27)" d="m0 0c1.199 0 2.17-0.972 2.17-2.169 0-1.198-0.971-2.169-2.17-2.169-1.197 0-2.168 0.971-2.168 2.169 0 1.197 0.971 2.169 2.168 2.169" clip-path="url(#clipPath132)" fill="#fff"/>
   <path transform="matrix(.35278 0 0 -.35278 111.8 139.87)" d="m0 0c3.361 0 6.084-2.725 6.084-6.085 0-3.361-2.723-6.085-6.084-6.085-3.359 0-6.086 2.724-6.086 6.085 0 3.36 2.727 6.085 6.086 6.085" clip-path="url(#clipPath134)"/>
   <path transform="matrix(.35278 0 0 -.35278 112.72 140.27)" d="m0 0c1.197 0 2.168-0.972 2.168-2.169 0-1.198-0.971-2.169-2.168-2.169s-2.17 0.971-2.17 2.169c0 1.197 0.973 2.169 2.17 2.169" clip-path="url(#clipPath136)" fill="#fff"/>
   <path transform="matrix(.35278 0 0 -.35278 100.84 154.33)" d="m0 0c7.373 4.278 15.705 4.588 22.73 0l-11.884-11.888z" clip-path="url(#clipPath138)" fill="#1a1a1a"/>
   <path transform="matrix(.35278 0 0 -.35278 104.66 164.29)" d="M 0,0 68.119,41.81 C 37.34,56 15.4,45.879 0.52,16.348 -14.361,45.879 -36.301,56 -67.08,41.81 Z" clip-path="url(#clipPath140)" fill="#fff"/>
  </g>
  <g transform="matrix(.26458 0 0 .26458 -121.5 11.099)" clip-path="url(#clipPath143)" opacity=".14999">
   <path transform="matrix(1.3333 0 0 -1.3333 855.55 381.05)" d="m0 0c57.145 0 103.47-46.325 103.47-103.47 0-57.143-46.324-103.47-103.47-103.47z" clip-path="url(#clipPath141)" fill-rule="evenodd"/>
  </g>
 </g>
</svg>
