<?xml version="1.0" encoding="UTF-8" standalone="no"?>
<!-- Created with Inkscape (http://www.inkscape.org/) -->

<svg
   width="41.996429mm"
   height="41.996674mm"
   viewBox="0 0 41.996429 41.996674"
   version="1.1"
   id="svg1"
   inkscape:version="1.3.2 (091e20e, 2023-11-25, custom)"
   sodipodi:docname="avatar_8.svg"
   xmlns:inkscape="http://www.inkscape.org/namespaces/inkscape"
   xmlns:sodipodi="http://sodipodi.sourceforge.net/DTD/sodipodi-0.dtd"
   xmlns="http://www.w3.org/2000/svg"
   xmlns:svg="http://www.w3.org/2000/svg">
  <sodipodi:namedview
     id="namedview1"
     pagecolor="#ffffff"
     bordercolor="#000000"
     borderopacity="0.25"
     inkscape:showpageshadow="2"
     inkscape:pageopacity="0.0"
     inkscape:pagecheckerboard="0"
     inkscape:deskcolor="#d1d1d1"
     inkscape:document-units="mm"
     inkscape:zoom="1.0841681"
     inkscape:cx="79.323495"
     inkscape:cy="78.862311"
     inkscape:window-width="2560"
     inkscape:window-height="1494"
     inkscape:window-x="-11"
     inkscape:window-y="-11"
     inkscape:window-maximized="1"
     inkscape:current-layer="layer1" />
  <defs
     id="defs1">
    <clipPath
       clipPathUnits="userSpaceOnUse"
       id="clipPath117">
      <path
         d="M 0,500 H 500 V 0 H 0 Z"
         transform="translate(-446.38891,-103.019)"
         id="path117" />
    </clipPath>
    <clipPath
       clipPathUnits="userSpaceOnUse"
       id="clipPath119">
      <path
         d="M 0,500 H 500 V 0 H 0 Z"
         transform="translate(-375.88151,-101.6979)"
         id="path119" />
    </clipPath>
    <clipPath
       clipPathUnits="userSpaceOnUse"
       id="clipPath121">
      <path
         d="M 0,500 H 500 V 0 H 0 Z"
         transform="translate(-399.54151,-101.6979)"
         id="path121" />
    </clipPath>
    <clipPath
       clipPathUnits="userSpaceOnUse"
       id="clipPath123">
      <path
         d="M 0,500 H 500 V 0 H 0 Z"
         transform="translate(-424.23431,-66.235304)"
         id="path123" />
    </clipPath>
    <clipPath
       clipPathUnits="userSpaceOnUse"
       id="clipPath125">
      <path
         d="M 0,500 H 500 V 0 H 0 Z"
         transform="translate(-394.87711,-96.313005)"
         id="path125" />
    </clipPath>
    <clipPath
       clipPathUnits="userSpaceOnUse"
       id="clipPath127">
      <path
         d="M 0,500 H 500 V 0 H 0 Z"
         transform="translate(-404.78681,-114.8583)"
         id="path127" />
    </clipPath>
    <clipPath
       clipPathUnits="userSpaceOnUse"
       id="clipPath129">
      <path
         d="M 0,500 H 500 V 0 H 0 Z"
         transform="translate(-373.03891,-118.6688)"
         id="path129" />
    </clipPath>
    <clipPath
       clipPathUnits="userSpaceOnUse"
       id="clipPath131">
      <path
         d="M 0,500 H 500 V 0 H 0 Z"
         transform="translate(-397.42001,-110.31791)"
         id="path131" />
    </clipPath>
  </defs>
  <g
     inkscape:label="Camada 1"
     inkscape:groupmode="layer"
     id="layer1"
     transform="translate(-83.872912,-127.52917)">
    <path
       id="path116"
       d="m 0,0 c 0,-32.873 -26.649,-59.522 -59.523,-59.522 -32.873,0 -59.522,26.649 -59.522,59.522 0,32.873 26.649,59.523 59.522,59.523 C -26.649,59.523 0,32.873 0,0"
       style="fill:#ffffff icc-color(Display, 1, 1, 1);fill-opacity:1;fill-rule:nonzero;stroke:none"
       transform="matrix(0.35277776,0,0,-0.35277776,125.86934,148.52756)"
       clip-path="url(#clipPath117)" />
    <path
       id="path118"
       d="m 0,0 c -1.677,2.531 0.301,5.653 -0.521,8.366 -0.777,2.566 -2.859,4.114 -3.49,6.981 -0.348,1.581 -0.263,3.255 0.242,4.794 -0.489,-1.49 -4.527,-4.019 -5.723,-5.346 -1.68,-1.864 -2.946,-3.568 -2.691,-6.231 0.217,-2.259 1.145,-4.427 1.154,-6.695 0.009,-2.269 -1.406,-4.849 -3.673,-4.924 -0.731,-0.024 -1.705,0.083 -1.954,-0.604 -0.129,-0.355 0.043,-0.746 0.244,-1.066 0.926,-1.475 2.597,-2.455 4.337,-2.543 0.465,-0.725 -0.001,-1.708 -0.641,-2.286 -0.639,-0.577 -1.457,-0.973 -1.956,-1.676 -0.895,-1.262 -0.483,-3.083 -1.248,-4.428 -1.256,-2.209 -4.829,-1.941 -6.314,-4.002 1.618,-0.423 2.839,-2.039 2.804,-3.711 -0.011,-0.558 -0.145,-1.13 0.013,-1.665 0.259,-0.875 1.233,-1.36 2.144,-1.413 0.911,-0.052 1.806,0.22 2.708,0.351 3.642,0.528 7.403,-1.233 10.975,-0.348 6.72,1.665 4.258,7.502 6.541,12.045 1.013,2.016 3.36,3.118 4.312,5.164 1.093,2.35 -0.215,5.113 -2.383,6.298 C 3.191,-2.016 1.064,-1.605 0,0"
       style="fill:#383838 icc-color(Display, 0.21998596, 0.21998596, 0.21998596);fill-opacity:1;fill-rule:nonzero;stroke:none"
       transform="matrix(0.35277776,0,0,-0.35277776,100.99589,148.99362)"
       clip-path="url(#clipPath119)" />
    <path
       id="path120"
       d="m 0,0 c 1.677,2.531 -0.301,5.653 0.521,8.366 0.777,2.566 2.859,4.114 3.49,6.981 0.348,1.581 0.263,3.255 -0.242,4.794 0.489,-1.49 4.527,-4.019 5.723,-5.346 1.68,-1.864 2.946,-3.568 2.691,-6.231 C 11.966,6.305 11.038,4.137 11.029,1.869 11.02,-0.4 12.435,-2.98 14.702,-3.055 c 0.731,-0.024 1.705,0.083 1.954,-0.604 0.129,-0.355 -0.043,-0.746 -0.244,-1.066 -0.926,-1.475 -2.597,-2.455 -4.337,-2.543 -0.465,-0.725 0.001,-1.708 0.64,-2.286 0.64,-0.577 1.458,-0.973 1.957,-1.676 0.895,-1.262 0.483,-3.083 1.248,-4.428 1.256,-2.209 4.829,-1.941 6.314,-4.002 -1.618,-0.423 -2.839,-2.039 -2.804,-3.711 0.011,-0.558 0.145,-1.13 -0.013,-1.665 -0.259,-0.875 -1.233,-1.36 -2.144,-1.413 -0.911,-0.052 -1.806,0.22 -2.709,0.351 -3.641,0.528 -7.402,-1.233 -10.974,-0.348 -6.72,1.665 -4.258,7.502 -6.541,12.045 -1.013,2.016 -3.36,3.118 -4.312,5.164 -1.093,2.35 0.215,5.113 2.383,6.298 C -3.191,-2.016 -1.064,-1.605 0,0"
       style="fill:#383838 icc-color(Display, 0.21998596, 0.21998596, 0.21998596);fill-opacity:1;fill-rule:nonzero;stroke:none"
       transform="matrix(0.35277776,0,0,-0.35277776,109.34262,148.99362)"
       clip-path="url(#clipPath121)" />
    <path
       id="path122"
       d="m 0,0 c -2.075,7.379 -7.828,13.154 -15.199,15.257 l -13.597,3.88 h -8.572 -8.572 l -13.597,-3.88 C -66.908,13.154 -72.661,7.379 -74.736,0 l -3.742,-6.239 c 10.687,-10.214 25.16,-16.5 41.11,-16.5 15.95,0 30.423,6.286 41.11,16.5 z"
       style="fill:#383838 icc-color(Display, 0.21998596, 0.21998596, 0.21998596);fill-opacity:1;fill-rule:nonzero;stroke:none"
       transform="matrix(0.35277776,0,0,-0.35277776,118.05369,161.50403)"
       clip-path="url(#clipPath123)" />
    <path
       id="path124"
       d="m 0,0 h -8.011 -8.011 l -2.524,-13.217 c 0,0 4.52,-4.738 10.535,-4.987 6.016,0.249 10.536,4.987 10.536,4.987 z"
       style="fill:#d7eae8 icc-color(Display, 0.83898926, 0.91799927, 0.9099884);fill-opacity:1;fill-rule:nonzero;stroke:none"
       transform="matrix(0.35277776,0,0,-0.35277776,107.69712,150.89329)"
       clip-path="url(#clipPath125)" />
    <path
       id="path126"
       d="m 0,0 c 0,-10.833 -8.023,-25.341 -17.92,-25.341 -9.898,0 -17.921,14.508 -17.921,25.341 0,10.833 8.023,19.615 17.921,19.615 C -8.023,19.615 0,10.833 0,0"
       style="fill:#e5f4f3 icc-color(Display, 0.89399719, 0.95698547, 0.95298767);fill-opacity:1;fill-rule:nonzero;stroke:none"
       transform="matrix(0.35277776,0,0,-0.35277776,111.19304,144.35092)"
       clip-path="url(#clipPath127)" />
    <path
       id="path128"
       d="m 0,0 c 0.571,2.413 2.683,4.375 5.094,5.094 1.948,0.581 4.16,0.468 6.001,1.393 1.633,0.821 2,2.278 3.317,3.375 1.366,1.137 2.304,0.497 2.159,2.347 -0.194,2.475 -3.261,6.557 -5.344,7.774 -1.041,0.608 -2.224,0.935 -3.413,1.135 -2.087,0.351 -4.305,0.309 -6.228,-0.576 -1.923,-0.885 -3.487,-2.732 -3.618,-4.844 -0.078,-1.271 0.346,-2.517 0.453,-3.786 0.361,-4.307 -6.026,-6.036 -8.912,-7.959 -0.701,-0.466 -1.198,-1.401 -0.826,-2.156 0.397,-0.803 1.555,-1.018 1.905,-1.843 0.667,-1.569 -2.115,-2.525 -2.419,-4.203 -0.288,-1.581 1.648,-2.536 2.595,-3.835 1.594,-2.187 0.947,-5.389 2.366,-7.799 1.118,-1.898 2.735,-3.024 4.383,-4.436 -0.35,1.486 -0.076,3.094 0.933,4.274 0.36,0.421 0.805,0.79 1.02,1.3 0.351,0.834 -0.005,1.777 -0.057,2.681 -0.095,1.655 0.847,3.195 1.042,4.842 0.252,2.125 -0.754,4.236 -0.585,6.37 C -0.111,-0.563 -0.066,-0.279 0,0"
       style="fill:#383838 icc-color(Display, 0.21998596, 0.21998596, 0.21998596);fill-opacity:1;fill-rule:nonzero;stroke:none"
       transform="matrix(0.35277776,0,0,-0.35277776,99.99309,143.00666)"
       clip-path="url(#clipPath129)" />
    <path
       id="path130"
       d="m 0,0 c -0.199,0.128 -0.405,0.246 -0.62,0.353 -1.476,0.738 -3.285,0.989 -4.355,2.244 -1.854,2.176 -0.213,5.5 -0.567,8.337 -0.27,2.161 -1.871,4.099 -3.943,4.771 -1.112,0.361 -2.308,0.377 -3.439,0.671 -4.19,1.086 1.74,4.608 2.885,6.786 1.103,2.098 1.545,3.868 3.776,5.172 1.041,0.608 2.224,0.935 3.413,1.135 2.087,0.351 4.305,0.309 6.228,-0.576 1.923,-0.885 3.487,-2.732 3.618,-4.844 0.078,-1.271 -0.346,-2.517 -0.453,-3.786 -0.361,-4.307 6.026,-6.036 8.912,-7.959 0.701,-0.466 1.198,-1.401 0.826,-2.156 C 15.884,9.345 14.726,9.13 14.376,8.305 13.709,6.736 16.491,5.78 16.795,4.102 17.083,2.521 15.147,1.566 14.2,0.267 12.287,-2.358 13.536,-6.242 11.094,-8.784 10.344,-9.565 2.137,-14.535 3.547,-16.204 2.063,-14.447 3.026,-11.827 3.463,-9.569 4.147,-6.033 2.98,-1.917 0,0"
       style="fill:#383838 icc-color(Display, 0.21998596, 0.21998596, 0.21998596);fill-opacity:1;fill-rule:nonzero;stroke:none"
       transform="matrix(0.35277776,0,0,-0.35277776,108.5942,145.95267)"
       clip-path="url(#clipPath131)" />
  </g>
</svg>
