<?xml version="1.0" encoding="UTF-8" standalone="no"?>
<!-- Created with Inkscape (http://www.inkscape.org/) -->

<svg
   width="41.996429mm"
   height="41.996429mm"
   viewBox="0 0 41.996429 41.996429"
   version="1.1"
   id="svg1"
   inkscape:version="1.3.2 (091e20e, 2023-11-25, custom)"
   sodipodi:docname="avatar_3.svg"
   xmlns:inkscape="http://www.inkscape.org/namespaces/inkscape"
   xmlns:sodipodi="http://sodipodi.sourceforge.net/DTD/sodipodi-0.dtd"
   xmlns="http://www.w3.org/2000/svg"
   xmlns:svg="http://www.w3.org/2000/svg">
  <sodipodi:namedview
     id="namedview1"
     pagecolor="#ffffff"
     bordercolor="#000000"
     borderopacity="0.25"
     inkscape:showpageshadow="2"
     inkscape:pageopacity="0.0"
     inkscape:pagecheckerboard="0"
     inkscape:deskcolor="#d1d1d1"
     inkscape:document-units="mm"
     inkscape:zoom="1.0841681"
     inkscape:cx="79.323495"
     inkscape:cy="78.862311"
     inkscape:window-width="2560"
     inkscape:window-height="1494"
     inkscape:window-x="-11"
     inkscape:window-y="-11"
     inkscape:window-maximized="1"
     inkscape:current-layer="layer1" />
  <defs
     id="defs1">
    <clipPath
       clipPathUnits="userSpaceOnUse"
       id="clipPath85">
      <path
         d="M 0,500 H 500 V 0 H 0 Z"
         transform="translate(-172.6563,-250.00001)"
         id="path85" />
    </clipPath>
    <clipPath
       clipPathUnits="userSpaceOnUse"
       id="clipPath87">
      <path
         d="M 0,500 H 500 V 0 H 0 Z"
         transform="translate(-150.5017,-213.21621)"
         id="path87" />
    </clipPath>
    <clipPath
       clipPathUnits="userSpaceOnUse"
       id="clipPath89">
      <path
         d="M 0,500 H 500 V 0 H 0 Z"
         transform="translate(-121.1445,-243.29391)"
         id="path89" />
    </clipPath>
    <clipPath
       clipPathUnits="userSpaceOnUse"
       id="clipPath91">
      <path
         d="M 0,500 H 500 V 0 H 0 Z"
         transform="translate(-131.0542,-261.83931)"
         id="path91" />
    </clipPath>
    <clipPath
       clipPathUnits="userSpaceOnUse"
       id="clipPath93">
      <path
         d="M 0,500 H 500 V 0 H 0 Z"
         transform="translate(-97.4824,-260.3265)"
         id="path93" />
    </clipPath>
    <clipPath
       clipPathUnits="userSpaceOnUse"
       id="clipPath95">
      <path
         d="M 0,500 H 500 V 0 H 0 Z"
         transform="translate(-133.57191,-260.51541)"
         id="path95" />
    </clipPath>
    <clipPath
       clipPathUnits="userSpaceOnUse"
       id="clipPath97">
      <path
         d="M 0,500 H 500 V 0 H 0 Z"
         transform="translate(-98.279702,-278.18451)"
         id="path97" />
    </clipPath>
    <clipPath
       clipPathUnits="userSpaceOnUse"
       id="clipPath99">
      <path
         d="M 0,500 H 500 V 0 H 0 Z"
         transform="translate(-128.39871,-278.18451)"
         id="path99" />
    </clipPath>
  </defs>
  <g
     inkscape:label="Camada 1"
     inkscape:groupmode="layer"
     id="layer1"
     transform="translate(-83.872922,-127.52916)">
    <path
       id="path84"
       d="m 0,0 c 0,-32.873 -26.649,-59.523 -59.523,-59.523 -32.873,0 -59.522,26.65 -59.522,59.523 0,32.873 26.649,59.522 59.522,59.522 C -26.649,59.522 0,32.873 0,0"
       style="fill:#ffffff icc-color(Display, 1, 1, 1);fill-opacity:1;fill-rule:nonzero;stroke:none"
       transform="matrix(0.35277776,0,0,-0.35277776,125.86935,148.5272)"
       clip-path="url(#clipPath85)" />
    <path
       id="path86"
       d="m 0,0 c -2.075,7.379 -7.828,13.154 -15.199,15.257 l -13.597,3.88 h -8.572 -8.572 l -13.597,-3.88 C -66.908,13.154 -72.661,7.379 -74.736,0 l -3.741,-6.239 c 10.686,-10.214 25.159,-16.5 41.109,-16.5 15.95,0 30.423,6.286 41.11,16.5 z"
       style="fill:#383838 icc-color(Display, 0.21998596, 0.21998596, 0.21998596);fill-opacity:1;fill-rule:nonzero;stroke:none"
       transform="matrix(0.35277776,0,0,-0.35277776,118.05369,161.50371)"
       clip-path="url(#clipPath87)" />
    <path
       id="path88"
       d="m 0,0 h -8.011 -8.011 l -2.524,-13.217 c 0,0 4.52,-4.738 10.535,-4.987 6.016,0.249 10.536,4.987 10.536,4.987 z"
       style="fill:#d7eae8 icc-color(Display, 0.83898926, 0.91799927, 0.9099884);fill-opacity:1;fill-rule:nonzero;stroke:none"
       transform="matrix(0.35277776,0,0,-0.35277776,107.69713,150.89297)"
       clip-path="url(#clipPath89)" />
    <path
       id="path90"
       d="m 0,0 c 0,-10.833 -8.023,-25.341 -17.921,-25.341 -9.897,0 -17.92,14.508 -17.92,25.341 0,10.833 8.023,19.615 17.92,19.615 C -8.023,19.615 0,10.833 0,0"
       style="fill:#e5f4f3 icc-color(Display, 0.89399719, 0.95698547, 0.95298767);fill-opacity:1;fill-rule:nonzero;stroke:none"
       transform="matrix(0.35277776,0,0,-0.35277776,111.19305,144.35056)"
       clip-path="url(#clipPath91)" />
    <path
       id="path92"
       d="m 0,0 c -0.085,-2.117 -1.345,-4.906 -2.758,-4.849 -1.413,0.057 -2.444,2.938 -2.359,5.055 0.085,2.117 1.3,3.787 2.713,3.73 C -0.991,3.879 0.085,2.117 0,0"
       style="fill:#e5f4f3 icc-color(Display, 0.89399719, 0.95698547, 0.95298767);fill-opacity:1;fill-rule:nonzero;stroke:none"
       transform="matrix(0.35277776,0,0,-0.35277776,99.349664,144.88425)"
       clip-path="url(#clipPath93)" />
    <path
       id="path94"
       d="M 0,0 C 0.072,-2.118 -0.978,-4.992 -2.391,-5.04 -3.805,-5.088 -5.046,-2.291 -5.118,-0.173 -5.19,1.944 -4.102,3.7 -2.689,3.747 -1.276,3.795 -0.072,2.118 0,0"
       style="fill:#e5f4f3 icc-color(Display, 0.89399719, 0.95698547, 0.95298767);fill-opacity:1;fill-rule:nonzero;stroke:none"
       transform="matrix(0.35277776,0,0,-0.35277776,112.08124,144.8176)"
       clip-path="url(#clipPath95)" />
    <path
       id="path96"
       d="M 0,0 C 0.871,1.904 2.493,3.528 4.426,4.365 5.298,4.742 6.29,4.536 7.148,5.032 7.512,5.242 7.808,5.552 8.146,5.801 10.033,7.195 12.721,6.224 14.37,4.91 14.735,4.618 15.094,4.268 15.2,3.811 15.546,2.321 14.078,-0.546 13.022,-1.542 12.006,-2.501 10.511,-2.743 9.114,-2.75 7.717,-2.757 6.3,-2.577 4.935,-2.876 2.602,-3.386 0.672,-5.4 0.26,-7.753 0.079,-8.79 0.17,-9.859 -0.008,-10.897 c -0.173,-1.016 -0.599,-1.973 -0.807,-2.982 -0.354,-1.719 0.681,-2.639 0.836,-4.208 0.175,-1.78 -0.312,-3.625 -0.832,-5.312 -0.247,-0.801 -0.254,-1.653 -0.258,-2.491 -1.154,1.195 -1.448,2.97 -1.519,4.63 0,0.985 -0.006,1.933 -0.083,2.925 -0.072,0.946 -0.229,2.037 -1.039,2.532 -0.494,0.302 -1.722,0.402 -1.904,-0.312 -0.407,1.061 -0.062,2.25 0.459,3.207 0.511,0.94 1.203,1.627 1.829,2.437 0.663,0.86 0.474,1.966 0.248,2.97 -0.233,1.039 -0.472,2.207 0.101,3.104 0.394,0.617 1.094,0.964 1.588,1.503 C -0.662,-2.1 -0.447,-0.979 0,0"
       style="fill:#383838 icc-color(Display, 0.21998596, 0.21998596, 0.21998596);fill-opacity:1;fill-rule:nonzero;stroke:none"
       transform="matrix(0.35277776,0,0,-0.35277776,99.630935,138.58434)"
       clip-path="url(#clipPath97)" />
    <path
       id="path98"
       d="m 0,0 c -0.87,1.904 -2.493,3.528 -4.426,4.365 -0.872,0.377 -1.864,0.171 -2.722,0.667 -0.364,0.21 -0.66,0.52 -0.998,0.769 -1.887,1.394 -4.575,0.423 -6.223,-0.891 -0.366,-0.292 -0.725,-0.642 -0.831,-1.099 -0.346,-1.49 1.122,-4.357 2.178,-5.353 1.016,-0.959 2.511,-1.201 3.908,-1.208 1.397,-0.007 2.814,0.173 4.179,-0.126 2.333,-0.51 4.263,-2.524 4.675,-4.877 0.181,-1.037 0.09,-2.106 0.268,-3.144 0.173,-1.016 0.599,-1.973 0.807,-2.982 0.354,-1.719 -0.681,-2.639 -0.836,-4.208 -0.175,-1.78 0.312,-3.625 0.832,-5.312 0.247,-0.801 0.254,-1.653 0.258,-2.491 1.154,1.195 1.448,2.97 1.519,4.63 0,0.985 0.007,1.933 0.083,2.925 0.072,0.946 0.229,2.037 1.039,2.532 0.495,0.302 1.722,0.402 1.904,-0.312 0.407,1.061 0.062,2.25 -0.459,3.207 -0.511,0.94 -1.203,1.627 -1.829,2.437 -0.663,0.86 -0.474,1.966 -0.248,2.97 0.233,1.039 0.472,2.207 -0.101,3.104 C 2.583,-3.78 1.883,-3.433 1.389,-2.894 0.662,-2.1 0.448,-0.979 0,0"
       style="fill:#383838 icc-color(Display, 0.21998596, 0.21998596, 0.21998596);fill-opacity:1;fill-rule:nonzero;stroke:none"
       transform="matrix(0.35277776,0,0,-0.35277776,110.25625,138.58434)"
       clip-path="url(#clipPath99)" />
  </g>
</svg>
