<?xml version="1.0" encoding="UTF-8"?>
<!-- Created with Inkscape (http://www.inkscape.org/) -->
<svg width="73.003mm" height="73.003mm" version="1.1" viewBox="0 0 73.003 73.003" xmlns="http://www.w3.org/2000/svg">
 <defs>
  <clipPath id="clipPath4">
   <path transform="translate(-157.78 -542.56)" d="M 0,799.92 H 799.92 V 0 H 0 Z"/>
  </clipPath>
  <clipPath id="clipPath6">
   <path transform="translate(-196.82 -658.55)" d="M 0,799.92 H 799.92 V 0 H 0 Z"/>
  </clipPath>
  <clipPath id="clipPath8">
   <path transform="translate(-184.17 -632.45)" d="M 0,799.92 H 799.92 V 0 H 0 Z"/>
  </clipPath>
  <clipPath id="clipPath10">
   <path transform="translate(-112.34 -715.66)" d="M 0,799.92 H 799.92 V 0 H 0 Z"/>
  </clipPath>
  <clipPath id="clipPath12">
   <path transform="translate(-203.25 -715.66)" d="M 0,799.92 H 799.92 V 0 H 0 Z"/>
  </clipPath>
  <clipPath id="clipPath14">
   <path transform="translate(-207.54 -683.84)" d="M 0,799.92 H 799.92 V 0 H 0 Z"/>
  </clipPath>
  <clipPath id="clipPath16">
   <path transform="translate(-134.86 -682.63)" d="M 0,799.92 H 799.92 V 0 H 0 Z"/>
  </clipPath>
  <clipPath id="clipPath18">
   <path transform="translate(-180.71 -682.63)" d="M 0,799.92 H 799.92 V 0 H 0 Z"/>
  </clipPath>
  <clipPath id="clipPath20">
   <path transform="translate(-151.28 -644.46)" d="M 0,799.92 H 799.92 V 0 H 0 Z"/>
  </clipPath>
  <clipPath id="clipPath22">
   <path transform="translate(-134.86 -664.64)" d="M 0,799.92 H 799.92 V 0 H 0 Z"/>
  </clipPath>
  <clipPath id="clipPath24">
   <path transform="translate(-138.04 -664.64)" d="M 0,799.92 H 799.92 V 0 H 0 Z"/>
  </clipPath>
  <clipPath id="clipPath26">
   <path transform="translate(-180.71 -664.64)" d="M 0,799.92 H 799.92 V 0 H 0 Z"/>
  </clipPath>
  <clipPath id="clipPath28">
   <path transform="translate(-183.89 -664.64)" d="M 0,799.92 H 799.92 V 0 H 0 Z"/>
  </clipPath>
  <clipPath id="clipPath30">
   <path transform="translate(-143.68 -600.54)" d="M 0,799.92 H 799.92 V 0 H 0 Z"/>
  </clipPath>
  <clipPath id="clipPath32">
   <path transform="translate(-155.91 -600.54)" d="M 0,799.92 H 799.92 V 0 H 0 Z"/>
  </clipPath>
  <clipPath id="clipPath34">
   <path transform="translate(-168.15 -600.54)" d="M 0,799.92 H 799.92 V 0 H 0 Z"/>
  </clipPath>
  <clipPath id="clipPath36">
   <path transform="translate(-180.38 -600.54)" d="M 0,799.92 H 799.92 V 0 H 0 Z"/>
  </clipPath>
  <clipPath id="clipPath38">
   <path transform="translate(-150.01 -610.41)" d="M 0,799.92 H 799.92 V 0 H 0 Z"/>
  </clipPath>
  <clipPath id="clipPath40">
   <path transform="translate(-162.24 -610.41)" d="M 0,799.92 H 799.92 V 0 H 0 Z"/>
  </clipPath>
  <clipPath id="clipPath42">
   <path transform="translate(-174.48 -610.41)" d="M 0,799.92 H 799.92 V 0 H 0 Z"/>
  </clipPath>
  <clipPath id="clipPath44">
   <path transform="translate(-150.01 -589.61)" d="M 0,799.92 H 799.92 V 0 H 0 Z"/>
  </clipPath>
  <clipPath id="clipPath46">
   <path transform="translate(-162.24 -589.61)" d="M 0,799.92 H 799.92 V 0 H 0 Z"/>
  </clipPath>
  <clipPath id="clipPath48">
   <path transform="translate(-174.48 -589.61)" d="M 0,799.92 H 799.92 V 0 H 0 Z"/>
  </clipPath>
  <clipPath id="clipPath50">
   <path transform="translate(-186.71 -589.61)" d="M 0,799.92 H 799.92 V 0 H 0 Z"/>
  </clipPath>
  <clipPath id="clipPath52">
   <path transform="translate(-137.78 -589.61)" d="M 0,799.92 H 799.92 V 0 H 0 Z"/>
  </clipPath>
  <clipPath id="clipPath54">
   <path transform="translate(-143.68 -579.05)" d="M 0,799.92 H 799.92 V 0 H 0 Z"/>
  </clipPath>
  <clipPath id="clipPath56">
   <path transform="translate(-155.91 -579.05)" d="M 0,799.92 H 799.92 V 0 H 0 Z"/>
  </clipPath>
  <clipPath id="clipPath58">
   <path transform="translate(-168.15 -579.05)" d="M 0,799.92 H 799.92 V 0 H 0 Z"/>
  </clipPath>
  <clipPath id="clipPath60">
   <path transform="translate(-180.38 -579.05)" d="M 0,799.92 H 799.92 V 0 H 0 Z"/>
  </clipPath>
  <clipPath id="clipPath62">
   <path transform="translate(-131.45 -579.05)" d="M 0,799.92 H 799.92 V 0 H 0 Z"/>
  </clipPath>
  <clipPath id="clipPath64">
   <path transform="translate(-192.61 -579.05)" d="M 0,799.92 H 799.92 V 0 H 0 Z"/>
  </clipPath>
  <clipPath id="clipPath66">
   <path transform="translate(-150.01 -567.65)" d="M 0,799.92 H 799.92 V 0 H 0 Z"/>
  </clipPath>
  <clipPath id="clipPath68">
   <path transform="translate(-162.24 -567.65)" d="M 0,799.92 H 799.92 V 0 H 0 Z"/>
  </clipPath>
  <clipPath id="clipPath70">
   <path transform="translate(-174.48 -567.65)" d="M 0,799.92 H 799.92 V 0 H 0 Z"/>
  </clipPath>
  <clipPath id="clipPath72">
   <path transform="translate(-186.71 -567.65)" d="M 0,799.92 H 799.92 V 0 H 0 Z"/>
  </clipPath>
  <clipPath id="clipPath74">
   <path transform="translate(-137.78 -567.65)" d="M 0,799.92 H 799.92 V 0 H 0 Z"/>
  </clipPath>
  <clipPath id="clipPath76">
   <path transform="translate(-143.68 -556.05)" d="M 0,799.92 H 799.92 V 0 H 0 Z"/>
  </clipPath>
  <clipPath id="clipPath78">
   <path transform="translate(-155.91 -556.05)" d="M 0,799.92 H 799.92 V 0 H 0 Z"/>
  </clipPath>
  <clipPath id="clipPath80">
   <path transform="translate(-168.15 -556.05)" d="M 0,799.92 H 799.92 V 0 H 0 Z"/>
  </clipPath>
  <clipPath id="clipPath82">
   <path transform="translate(-180.38 -556.05)" d="M 0,799.92 H 799.92 V 0 H 0 Z"/>
  </clipPath>
  <clipPath id="clipPath85">
   <path transform="matrix(1.3333 0 0 -1.3333 0 1066.6)" d="M 0,799.92 H 799.92 V 0 H 0 Z"/>
  </clipPath>
  <clipPath id="clipPath83">
   <path transform="translate(-157.78 -749.5)" d="m157.78 749.5h103.47v-206.94h-103.47z"/>
  </clipPath>
 </defs>
 <g transform="translate(68.792 28.31)">
  <g fill-rule="evenodd">
   <path transform="matrix(.35278 0 0 -.35278 -32.29 44.692)" d="m0 0c56.988 0 103.47 46.48 103.47 103.47 0 56.987-46.48 103.47-103.47 103.47-56.989 0-103.47-46.481-103.47-103.47 0-56.989 46.48-103.47 103.47-103.47" clip-path="url(#clipPath4)" fill="#57a9aa"/>
   <path transform="matrix(.35278 0 0 -.35278 -18.52 3.7732)" d="m0 0 19.517-57.995 10.596-31.492c-18.32-16.471-42.55-26.498-69.124-26.504h-0.045c-26.573 6e-3 -50.802 10.033-69.123 26.503l10.598 31.492 19.516 57.995 39.033 1e-3z" clip-path="url(#clipPath6)" fill="#333"/>
   <path transform="matrix(.35278 0 0 -.35278 -22.981 12.981)" d="m0 0 13.195-44.946 9.556-32.552c-14.615-7.902-31.348-12.392-49.129-12.394h-0.022c-17.782 2e-3 -34.514 4.491-49.129 12.394l9.556 32.552 13.195 44.946h26.389z" clip-path="url(#clipPath8)" fill="#666"/>
  </g>
  <g fill="#333" fill-rule="evenodd">
   <path transform="matrix(.35278 0 0 -.35278 -48.323 -16.371)" d="m0 0 27.258-42.739-34.063-7.494z" clip-path="url(#clipPath10)"/>
   <path transform="matrix(.35278 0 0 -.35278 -16.25 -16.371)" d="m0 0-27.259-42.74 34.064-7.493z" clip-path="url(#clipPath12)"/>
   <path transform="matrix(.35278 0 0 -.35278 -14.736 -5.1461)" d="m0 0 6.81-50.274-55.132-16.989-58.006 16.989 6.81 50.274 49.759 16.208z" clip-path="url(#clipPath14)"/>
  </g>
  <g fill-rule="evenodd">
   <path transform="matrix(.35278 0 0 -.35278 -40.378 -4.7186)" d="m0 0c13.443 0 24.342-10.777 24.342-24.072 0-13.294-10.899-24.072-24.342-24.072-13.442 0-24.34 10.778-24.34 24.072 0 13.295 10.898 24.072 24.34 24.072" clip-path="url(#clipPath16)" fill="#fff"/>
   <path transform="matrix(.35278 0 0 -.35278 -24.203 -4.7186)" d="m0 0c13.443 0 24.342-10.777 24.342-24.072 0-13.294-10.899-24.072-24.342-24.072s-24.34 10.778-24.34 24.072c0 13.295 10.897 24.072 24.34 24.072" clip-path="url(#clipPath18)" fill="#fff"/>
   <path transform="matrix(.35278 0 0 -.35278 -34.584 8.7452)" d="m0 0c1.057 15.361 12.198 14.839 13.005 0l-6.502-13.782z" clip-path="url(#clipPath20)" fill="#f4762f"/>
   <path transform="matrix(.35278 0 0 -.35278 -40.378 1.6266)" d="m0 0c3.36 0 6.085-2.725 6.085-6.086 0-3.359-2.725-6.084-6.085-6.084s-6.085 2.725-6.085 6.084c0 3.361 2.725 6.086 6.085 6.086" clip-path="url(#clipPath22)"/>
   <path transform="matrix(.35278 0 0 -.35278 -39.257 1.6266)" d="m0 0c1.604 0 2.907-1.303 2.907-2.908 0-1.606-1.303-2.906-2.907-2.906-1.606 0-2.907 1.3-2.907 2.906 0 1.605 1.301 2.908 2.907 2.908" clip-path="url(#clipPath24)" fill="#fff"/>
   <path transform="matrix(.35278 0 0 -.35278 -24.203 1.6266)" d="m0 0c3.361 0 6.085-2.725 6.085-6.086 0-3.359-2.724-6.084-6.085-6.084-3.359 0-6.085 2.725-6.085 6.084 0 3.361 2.726 6.086 6.085 6.086" clip-path="url(#clipPath26)"/>
   <path transform="matrix(.35278 0 0 -.35278 -23.081 1.6266)" d="m0 0c1.604 0 2.906-1.303 2.906-2.908 0-1.606-1.302-2.906-2.906-2.906-1.606 0-2.907 1.3-2.907 2.906 0 1.605 1.301 2.908 2.907 2.908" clip-path="url(#clipPath28)" fill="#fff"/>
  </g>
  <g fill="#c3c3c3" fill-rule="evenodd">
   <path transform="matrix(.35278 0 0 -.35278 -37.265 24.24)" d="m0 0c0.585-0.714 0.936-1.626 0.936-2.621 0-2.285-1.853-4.139-4.14-4.139-2.284 0-4.138 1.854-4.138 4.139 0 0.995 0.352 1.907 0.936 2.621 0.76-0.926 1.912-1.517 3.202-1.517 1.292 0 2.445 0.591 3.204 1.517" clip-path="url(#clipPath30)"/>
   <path transform="matrix(.35278 0 0 -.35278 -32.95 24.24)" d="m0 0c0.585-0.714 0.937-1.626 0.937-2.621 0-2.285-1.854-4.139-4.14-4.139-2.285 0-4.138 1.854-4.138 4.139 0 0.995 0.351 1.907 0.936 2.621 0.759-0.926 1.912-1.517 3.202-1.517 1.292 0 2.444 0.591 3.203 1.517" clip-path="url(#clipPath32)"/>
   <path transform="matrix(.35278 0 0 -.35278 -28.635 24.24)" d="m0 0c0.585-0.714 0.936-1.626 0.936-2.621 0-2.285-1.853-4.139-4.138-4.139-2.286 0-4.14 1.854-4.14 4.139 0 0.995 0.352 1.907 0.937 2.621 0.759-0.926 1.911-1.517 3.203-1.517 1.291 0 2.442 0.591 3.202 1.517" clip-path="url(#clipPath34)"/>
   <path transform="matrix(.35278 0 0 -.35278 -24.319 24.24)" d="m0 0c0.585-0.714 0.936-1.626 0.936-2.621 0-2.285-1.853-4.139-4.139-4.139-2.285 0-4.139 1.854-4.139 4.139 0 0.995 0.352 1.907 0.936 2.621 0.76-0.926 1.912-1.517 3.203-1.517s2.443 0.591 3.203 1.517" clip-path="url(#clipPath36)"/>
   <path transform="matrix(.35278 0 0 -.35278 -35.032 20.759)" d="m0 0c0.585-0.714 0.936-1.626 0.936-2.621 0-2.286-1.853-4.139-4.139-4.139s-4.139 1.853-4.139 4.139c0 0.995 0.352 1.907 0.937 2.621 0.759-0.926 1.911-1.518 3.202-1.518s2.444 0.592 3.203 1.518" clip-path="url(#clipPath38)"/>
   <path transform="matrix(.35278 0 0 -.35278 -30.717 20.759)" d="m0 0c0.585-0.714 0.937-1.626 0.937-2.621 0-2.286-1.853-4.139-4.139-4.139-2.285 0-4.139 1.853-4.139 4.139 0 0.995 0.351 1.907 0.937 2.621 0.758-0.926 1.911-1.518 3.202-1.518s2.444 0.592 3.202 1.518" clip-path="url(#clipPath40)"/>
   <path transform="matrix(.35278 0 0 -.35278 -26.402 20.759)" d="m0 0c0.585-0.714 0.937-1.626 0.937-2.621 0-2.286-1.854-4.139-4.139-4.139-2.286 0-4.14 1.853-4.14 4.139 0 0.995 0.352 1.907 0.937 2.621 0.759-0.926 1.912-1.518 3.203-1.518s2.443 0.592 3.202 1.518" clip-path="url(#clipPath42)"/>
   <path transform="matrix(.35278 0 0 -.35278 -35.032 28.094)" d="m0 0c0.585-0.715 0.936-1.627 0.936-2.622 0-2.286-1.853-4.139-4.139-4.139s-4.139 1.853-4.139 4.139c0 0.995 0.352 1.907 0.937 2.622 0.759-0.928 1.911-1.519 3.202-1.519s2.444 0.591 3.203 1.519" clip-path="url(#clipPath44)"/>
   <path transform="matrix(.35278 0 0 -.35278 -30.717 28.094)" d="m0 0c0.585-0.715 0.937-1.627 0.937-2.622 0-2.286-1.853-4.139-4.139-4.139-2.285 0-4.139 1.853-4.139 4.139 0 0.995 0.351 1.907 0.937 2.622 0.758-0.928 1.911-1.519 3.202-1.519s2.444 0.591 3.202 1.519" clip-path="url(#clipPath46)"/>
   <path transform="matrix(.35278 0 0 -.35278 -26.402 28.094)" d="m0 0c0.585-0.715 0.937-1.627 0.937-2.622 0-2.286-1.854-4.139-4.139-4.139-2.286 0-4.14 1.853-4.14 4.139 0 0.995 0.352 1.907 0.937 2.622 0.759-0.928 1.912-1.519 3.203-1.519s2.443 0.591 3.202 1.519" clip-path="url(#clipPath48)"/>
   <path transform="matrix(.35278 0 0 -.35278 -22.087 28.094)" d="m0 0c0.585-0.715 0.936-1.627 0.936-2.622 0-2.286-1.853-4.139-4.138-4.139-2.287 0-4.14 1.853-4.14 4.139 0 0.995 0.352 1.907 0.937 2.622 0.759-0.928 1.911-1.519 3.203-1.519 1.29 0 2.443 0.591 3.202 1.519" clip-path="url(#clipPath50)"/>
   <path transform="matrix(.35278 0 0 -.35278 -39.348 28.094)" d="m0 0c0.585-0.715 0.937-1.627 0.937-2.622 0-2.286-1.854-4.139-4.139-4.139-2.286 0-4.14 1.853-4.14 4.139 0 0.995 0.352 1.907 0.937 2.622 0.759-0.928 1.912-1.519 3.203-1.519s2.443 0.591 3.202 1.519" clip-path="url(#clipPath52)"/>
   <path transform="matrix(.35278 0 0 -.35278 -37.265 31.82)" d="m0 0c0.585-0.714 0.936-1.627 0.936-2.621 0-2.286-1.853-4.139-4.14-4.139-2.284 0-4.138 1.853-4.138 4.139 0 0.994 0.352 1.907 0.936 2.621 0.76-0.927 1.912-1.518 3.202-1.518 1.292 0 2.445 0.591 3.204 1.518" clip-path="url(#clipPath54)"/>
   <path transform="matrix(.35278 0 0 -.35278 -32.95 31.82)" d="m0 0c0.585-0.714 0.937-1.627 0.937-2.621 0-2.286-1.854-4.139-4.14-4.139-2.285 0-4.138 1.853-4.138 4.139 0 0.994 0.351 1.907 0.936 2.621 0.759-0.927 1.912-1.518 3.202-1.518 1.292 0 2.444 0.591 3.203 1.518" clip-path="url(#clipPath56)"/>
   <path transform="matrix(.35278 0 0 -.35278 -28.635 31.82)" d="m0 0c0.585-0.714 0.936-1.627 0.936-2.621 0-2.286-1.853-4.139-4.138-4.139-2.286 0-4.14 1.853-4.14 4.139 0 0.994 0.352 1.907 0.937 2.621 0.759-0.927 1.911-1.518 3.203-1.518 1.291 0 2.442 0.591 3.202 1.518" clip-path="url(#clipPath58)"/>
   <path transform="matrix(.35278 0 0 -.35278 -24.319 31.82)" d="m0 0c0.585-0.714 0.936-1.627 0.936-2.621 0-2.286-1.853-4.139-4.139-4.139-2.285 0-4.139 1.853-4.139 4.139 0 0.994 0.352 1.907 0.936 2.621 0.76-0.927 1.912-1.518 3.203-1.518s2.443 0.591 3.203 1.518" clip-path="url(#clipPath60)"/>
   <path transform="matrix(.35278 0 0 -.35278 -41.58 31.82)" d="m0 0c0.585-0.714 0.936-1.627 0.936-2.621 0-2.286-1.853-4.139-4.138-4.139-2.286 0-4.14 1.853-4.14 4.139 0 0.994 0.352 1.907 0.937 2.621 0.759-0.927 1.911-1.518 3.203-1.518 1.29 0 2.443 0.591 3.202 1.518" clip-path="url(#clipPath62)"/>
   <path transform="matrix(.35278 0 0 -.35278 -20.004 31.82)" d="m0 0c0.585-0.714 0.937-1.627 0.937-2.621 0-2.286-1.854-4.139-4.139-4.139-2.286 0-4.139 1.853-4.139 4.139 0 0.994 0.352 1.907 0.936 2.621 0.759-0.927 1.912-1.518 3.203-1.518s2.443 0.591 3.202 1.518" clip-path="url(#clipPath64)"/>
   <path transform="matrix(.35278 0 0 -.35278 -35.032 35.843)" d="m0 0c0.585-0.715 0.936-1.627 0.936-2.622 0-2.286-1.853-4.139-4.139-4.139s-4.139 1.853-4.139 4.139c0 0.995 0.352 1.907 0.937 2.622 0.759-0.928 1.911-1.519 3.202-1.519s2.444 0.591 3.203 1.519" clip-path="url(#clipPath66)"/>
   <path transform="matrix(.35278 0 0 -.35278 -30.717 35.843)" d="m0 0c0.585-0.715 0.937-1.627 0.937-2.622 0-2.286-1.853-4.139-4.139-4.139-2.285 0-4.139 1.853-4.139 4.139 0 0.995 0.351 1.907 0.937 2.622 0.758-0.928 1.911-1.519 3.202-1.519s2.444 0.591 3.202 1.519" clip-path="url(#clipPath68)"/>
   <path transform="matrix(.35278 0 0 -.35278 -26.402 35.843)" d="m0 0c0.585-0.715 0.937-1.627 0.937-2.622 0-2.286-1.854-4.139-4.139-4.139-2.286 0-4.14 1.853-4.14 4.139 0 0.995 0.352 1.907 0.937 2.622 0.759-0.928 1.912-1.519 3.203-1.519s2.443 0.591 3.202 1.519" clip-path="url(#clipPath70)"/>
   <path transform="matrix(.35278 0 0 -.35278 -22.087 35.843)" d="m0 0c0.585-0.715 0.936-1.627 0.936-2.622 0-2.286-1.853-4.139-4.138-4.139-2.287 0-4.14 1.853-4.14 4.139 0 0.995 0.352 1.907 0.937 2.622 0.759-0.928 1.911-1.519 3.203-1.519 1.29 0 2.443 0.591 3.202 1.519" clip-path="url(#clipPath72)"/>
   <path transform="matrix(.35278 0 0 -.35278 -39.348 35.843)" d="m0 0c0.585-0.715 0.937-1.627 0.937-2.622 0-2.286-1.854-4.139-4.139-4.139-2.286 0-4.14 1.853-4.14 4.139 0 0.995 0.352 1.907 0.937 2.622 0.759-0.928 1.912-1.519 3.203-1.519s2.443 0.591 3.202 1.519" clip-path="url(#clipPath74)"/>
   <path transform="matrix(.35278 0 0 -.35278 -37.265 39.934)" d="m0 0c0.585-0.713 0.936-1.626 0.936-2.621 0-2.285-1.853-4.139-4.14-4.139-2.284 0-4.138 1.854-4.138 4.139 0 0.995 0.352 1.908 0.936 2.621 0.76-0.926 1.912-1.518 3.202-1.518 1.292 0 2.445 0.592 3.204 1.518" clip-path="url(#clipPath76)"/>
   <path transform="matrix(.35278 0 0 -.35278 -32.95 39.934)" d="m0 0c0.585-0.713 0.937-1.626 0.937-2.621 0-2.285-1.854-4.139-4.14-4.139-2.285 0-4.138 1.854-4.138 4.139 0 0.995 0.351 1.908 0.936 2.621 0.759-0.926 1.912-1.518 3.202-1.518 1.292 0 2.444 0.592 3.203 1.518" clip-path="url(#clipPath78)"/>
   <path transform="matrix(.35278 0 0 -.35278 -28.635 39.934)" d="m0 0c0.585-0.713 0.936-1.626 0.936-2.621 0-2.285-1.853-4.139-4.138-4.139-2.286 0-4.14 1.854-4.14 4.139 0 0.995 0.352 1.908 0.937 2.621 0.759-0.926 1.911-1.518 3.203-1.518 1.291 0 2.442 0.592 3.202 1.518" clip-path="url(#clipPath80)"/>
   <path transform="matrix(.35278 0 0 -.35278 -24.319 39.934)" d="m0 0c0.585-0.713 0.936-1.626 0.936-2.621 0-2.285-1.853-4.139-4.139-4.139-2.285 0-4.139 1.854-4.139 4.139 0 0.995 0.352 1.908 0.936 2.621 0.76-0.926 1.912-1.518 3.203-1.518s2.443 0.592 3.203 1.518" clip-path="url(#clipPath82)"/>
  </g>
  <g transform="matrix(.26458 0 0 .26458 -87.953 -46.098)" clip-path="url(#clipPath85)" opacity=".14999">
   <path transform="matrix(1.3333 0 0 -1.3333 210.38 67.229)" d="m0 0c57.145 0 103.47-46.324 103.47-103.47 0-57.143-46.324-103.47-103.47-103.47z" clip-path="url(#clipPath83)" fill-rule="evenodd"/>
  </g>
 </g>
</svg>
