<?xml version="1.0" encoding="UTF-8"?>
<!-- Created with Inkscape (http://www.inkscape.org/) -->
<svg width="73.003mm" height="73.003mm" version="1.1" viewBox="0 0 73.003 73.003" xmlns="http://www.w3.org/2000/svg">
 <defs>
  <clipPath id="clipPath188">
   <path transform="translate(-157.22 -307.2)" d="M 0,799.92 H 799.92 V 0 H 0 Z"/>
  </clipPath>
  <clipPath id="clipPath190">
   <path transform="translate(-196.25 -423.19)" d="M 0,799.92 H 799.92 V 0 H 0 Z"/>
  </clipPath>
  <clipPath id="clipPath192">
   <path transform="translate(-187.12 -440.31)" d="M 0,799.92 H 799.92 V 0 H 0 Z"/>
  </clipPath>
  <clipPath id="clipPath194">
   <path transform="translate(-188.15 -445.24)" d="M 0,799.92 H 799.92 V 0 H 0 Z"/>
  </clipPath>
  <clipPath id="clipPath196">
   <path transform="translate(-127.91 -440.31)" d="M 0,799.92 H 799.92 V 0 H 0 Z"/>
  </clipPath>
  <clipPath id="clipPath198">
   <path transform="translate(-126.87 -445.24)" d="M 0,799.92 H 799.92 V 0 H 0 Z"/>
  </clipPath>
  <clipPath id="clipPath200">
   <path transform="translate(-190.99 -455.21)" d="M 0,799.92 H 799.92 V 0 H 0 Z"/>
  </clipPath>
  <clipPath id="clipPath202">
   <path transform="translate(-133.75 -430.57)" d="M 0,799.92 H 799.92 V 0 H 0 Z"/>
  </clipPath>
  <clipPath id="clipPath204">
   <path transform="translate(-136.37 -429.43)" d="M 0,799.92 H 799.92 V 0 H 0 Z"/>
  </clipPath>
  <clipPath id="clipPath206">
   <path transform="translate(-180.68 -430.57)" d="M 0,799.92 H 799.92 V 0 H 0 Z"/>
  </clipPath>
  <clipPath id="clipPath208">
   <path transform="translate(-183.3 -429.43)" d="M 0,799.92 H 799.92 V 0 H 0 Z"/>
  </clipPath>
  <clipPath id="clipPath210">
   <path transform="translate(-157.22 -424.33)" d="M 0,799.92 H 799.92 V 0 H 0 Z"/>
  </clipPath>
  <clipPath id="clipPath212">
   <path transform="translate(-149.07 -409.12)" d="M 0,799.92 H 799.92 V 0 H 0 Z"/>
  </clipPath>
  <clipPath id="clipPath214">
   <path transform="translate(-165.36 -409.12)" d="M 0,799.92 H 799.92 V 0 H 0 Z"/>
  </clipPath>
  <clipPath id="clipPath217">
   <path transform="matrix(1.3333 0 0 -1.3333 0 1066.6)" d="M 0,799.92 H 799.92 V 0 H 0 Z"/>
  </clipPath>
  <clipPath id="clipPath215">
   <path transform="translate(-157.22 -514.13)" d="m157.22 514.13h103.47v-206.94h-103.47z"/>
  </clipPath>
 </defs>
 <g transform="translate(29.104 6.6146)">
  <g fill-rule="evenodd">
   <path transform="matrix(.35278 0 0 -.35278 7.397 66.388)" d="m0 0c56.988 0 103.47 46.48 103.47 103.47 0 56.988-46.481 103.47-103.47 103.47s-103.47-46.48-103.47-103.47c0-56.989 46.48-103.47 103.47-103.47" clip-path="url(#clipPath188)" fill="#f4762f"/>
   <path transform="matrix(.35278 0 0 -.35278 21.167 25.469)" d="m0 0 30.113-89.486c-18.323-16.474-42.556-26.501-69.134-26.504h-0.024c-26.578 3e-3 -50.811 10.03-69.135 26.503l10.598 31.492 19.517 57.995h39.032z" clip-path="url(#clipPath190)" fill="#f6a7aa"/>
   <path transform="matrix(.35278 0 0 -.35278 17.947 19.429)" d="m0 0 8.807 3.545 8.805 3.546 2.692 20.896-21.104 1.815-10.58-15.766 5.69-7.018z" clip-path="url(#clipPath192)" fill="#ffd7da"/>
   <path transform="matrix(.35278 0 0 -.35278 18.311 17.688)" d="m0 0 5.89 2.372 5.89 2.371 1.501 14.121-13.816 1.07-3.538-5.272-3.538-5.273 3.805-4.694z" clip-path="url(#clipPath194)" fill="#f6a7aa"/>
   <path transform="matrix(.35278 0 0 -.35278 -2.9427 19.429)" d="m0 0-17.613 7.092-2.691 20.896 21.104 1.815 5.29-7.883 5.289-7.884-5.69-7.018z" clip-path="url(#clipPath196)" fill="#ffd7da"/>
   <path transform="matrix(.35278 0 0 -.35278 -3.3069 17.688)" d="m0 0-5.891 2.371-5.89 2.372-1.5 14.12 13.816 1.071 7.076-10.546-3.805-4.694z" clip-path="url(#clipPath198)" fill="#f6a7aa"/>
   <path transform="matrix(.35278 0 0 -.35278 19.311 14.172)" d="m0 0 10.436-28.128 10.436-28.126-54.644-34.767-27.323 17.384-27.322 17.383 10.437 28.127 10.436 28.127h33.772z" clip-path="url(#clipPath200)" fill="#ffd7da"/>
   <path transform="matrix(.35278 0 0 -.35278 -.88184 22.866)" d="m0 0c3.36 0 6.085-2.725 6.085-6.085s-2.725-6.085-6.085-6.085-6.085 2.725-6.085 6.085 2.725 6.085 6.085 6.085" clip-path="url(#clipPath202)"/>
   <path transform="matrix(.35278 0 0 -.35278 .042473 23.265)" d="m0 0c1.198 0 2.17-0.971 2.17-2.169s-0.972-2.169-2.17-2.169c-1.197 0-2.169 0.971-2.169 2.169s0.972 2.169 2.169 2.169" clip-path="url(#clipPath204)" fill="#fff"/>
   <path transform="matrix(.35278 0 0 -.35278 15.676 22.866)" d="m0 0c3.361 0 6.085-2.725 6.085-6.085s-2.724-6.085-6.085-6.085c-3.36 0-6.085 2.725-6.085 6.085s2.725 6.085 6.085 6.085" clip-path="url(#clipPath206)"/>
   <path transform="matrix(.35278 0 0 -.35278 16.601 23.265)" d="m0 0c1.198 0 2.169-0.971 2.169-2.169s-0.971-2.169-2.169-2.169c-1.197 0-2.169 0.971-2.169 2.169s0.972 2.169 2.169 2.169" clip-path="url(#clipPath208)" fill="#fff"/>
   <path transform="matrix(.35278 0 0 -.35278 7.397 25.067)" d="m0 0c14.408 0 26.089-9.051 26.089-20.215s-11.681-20.215-26.089-20.215-26.089 9.051-26.089 20.215 11.681 20.215 26.089 20.215" clip-path="url(#clipPath210)" fill="#f6a7aa"/>
   <path transform="matrix(.35278 0 0 -.35278 4.5225 30.431)" d="m0 0c2.768 0 5.011-2.243 5.011-5.011 0-2.766-2.243-5.01-5.011-5.01s-5.01 2.244-5.01 5.01c0 2.768 2.242 5.011 5.01 5.011" clip-path="url(#clipPath212)" fill="#ffd7da"/>
   <path transform="matrix(.35278 0 0 -.35278 10.272 30.431)" d="m0 0c2.768 0 5.01-2.243 5.01-5.011 0-2.766-2.242-5.01-5.01-5.01s-5.011 2.244-5.011 5.01c0 2.768 2.243 5.011 5.011 5.011" clip-path="url(#clipPath214)" fill="#ffd7da"/>
  </g>
  <g transform="matrix(.26458 0 0 .26458 -48.065 -107.43)" clip-path="url(#clipPath217)" opacity=".14999">
   <path transform="matrix(1.3333 0 0 -1.3333 209.62 381.05)" d="m0 0c57.144 0 103.47-46.325 103.47-103.47 0-57.143-46.324-103.47-103.47-103.47z" clip-path="url(#clipPath215)" fill-rule="evenodd"/>
  </g>
 </g>
</svg>
