<?xml version="1.0" encoding="UTF-8"?>
<!-- Created with Inkscape (http://www.inkscape.org/) -->
<svg width="73.002mm" height="73.002mm" version="1.1" viewBox="0 0 73.002 73.002" xmlns="http://www.w3.org/2000/svg">
 <defs>
  <clipPath id="clipPath244">
   <path transform="translate(-399.96 -71.828)" d="M 0,799.92 H 799.92 V 0 H 0 Z"/>
  </clipPath>
  <clipPath id="clipPath246">
   <path transform="translate(-438.99 -187.82)" d="M 0,799.92 H 799.92 V 0 H 0 Z"/>
  </clipPath>
  <clipPath id="clipPath248">
   <path transform="translate(-426.35 -176.42)" d="M 0,799.92 H 799.92 V 0 H 0 Z"/>
  </clipPath>
  <clipPath id="clipPath250">
   <path transform="translate(-425.19 -220.59)" d="M 0,799.92 H 799.92 V 0 H 0 Z"/>
  </clipPath>
  <clipPath id="clipPath252">
   <path transform="translate(-457.64 -250.67)" d="M 0,799.92 H 799.92 V 0 H 0 Z"/>
  </clipPath>
  <clipPath id="clipPath254">
   <path transform="translate(-457.99 -247.25)" d="M 0,799.92 H 799.92 V 0 H 0 Z"/>
  </clipPath>
  <clipPath id="clipPath256">
   <path transform="translate(-342.1 -250.67)" d="M 0,799.92 H 799.92 V 0 H 0 Z"/>
  </clipPath>
  <clipPath id="clipPath258">
   <path transform="translate(-341.76 -247.25)" d="M 0,799.92 H 799.92 V 0 H 0 Z"/>
  </clipPath>
  <clipPath id="clipPath260">
   <path transform="translate(-428.69 -229.83)" d="M 0,799.92 H 799.92 V 0 H 0 Z"/>
  </clipPath>
  <clipPath id="clipPath262">
   <path transform="translate(-384.38 -170.64)" d="M 0,799.92 H 799.92 V 0 H 0 Z"/>
  </clipPath>
  <clipPath id="clipPath264">
   <path transform="translate(-414.88 -170.64)" d="M 0,799.92 H 799.92 V 0 H 0 Z"/>
  </clipPath>
  <clipPath id="clipPath266">
   <path transform="translate(-376.38 -168.53)" d="M 0,799.92 H 799.92 V 0 H 0 Z"/>
  </clipPath>
  <clipPath id="clipPath268">
   <path transform="translate(-428.69 -229.83)" d="M 0,799.92 H 799.92 V 0 H 0 Z"/>
  </clipPath>
  <clipPath id="clipPath270">
   <path transform="translate(-423.54 -168.53)" d="M 0,799.92 H 799.92 V 0 H 0 Z"/>
  </clipPath>
  <clipPath id="clipPath272">
   <path transform="translate(-399.82 -164.42)" d="M 0,799.92 H 799.92 V 0 H 0 Z"/>
  </clipPath>
  <clipPath id="clipPath274">
   <path transform="translate(-419.32 -192.23)" d="M 0,799.92 H 799.92 V 0 H 0 Z"/>
  </clipPath>
  <clipPath id="clipPath276">
   <path transform="translate(-380.6 -192.23)" d="M 0,799.92 H 799.92 V 0 H 0 Z"/>
  </clipPath>
  <clipPath id="clipPath278">
   <path transform="translate(-422.89 -193.19)" d="M 0,799.92 H 799.92 V 0 H 0 Z"/>
  </clipPath>
  <clipPath id="clipPath280">
   <path transform="translate(-425.13 -192.22)" d="M 0,799.92 H 799.92 V 0 H 0 Z"/>
  </clipPath>
  <clipPath id="clipPath282">
   <path transform="translate(-422.89 -191.31)" d="M 0,799.92 H 799.92 V 0 H 0 Z"/>
  </clipPath>
  <clipPath id="clipPath284">
   <path transform="translate(-377.03 -193.19)" d="M 0,799.92 H 799.92 V 0 H 0 Z"/>
  </clipPath>
  <clipPath id="clipPath286">
   <path transform="translate(-379.28 -192.22)" d="M 0,799.92 H 799.92 V 0 H 0 Z"/>
  </clipPath>
  <clipPath id="clipPath288">
   <path transform="translate(-377.03 -191.31)" d="M 0,799.92 H 799.92 V 0 H 0 Z"/>
  </clipPath>
  <clipPath id="clipPath290">
   <path transform="translate(-399.82 -164.42)" d="M 0,799.92 H 799.92 V 0 H 0 Z"/>
  </clipPath>
  <clipPath id="clipPath292">
   <path transform="translate(-391.8 -169.76)" d="M 0,799.92 H 799.92 V 0 H 0 Z"/>
  </clipPath>
  <clipPath id="clipPath294">
   <path transform="translate(-388.74 -163.04)" d="M 0,799.92 H 799.92 V 0 H 0 Z"/>
  </clipPath>
  <clipPath id="clipPath296">
   <path transform="translate(-387.29 -160.94)" d="M 0,799.92 H 799.92 V 0 H 0 Z"/>
  </clipPath>
  <clipPath id="clipPath298">
   <path transform="translate(-386.22 -158.63)" d="M 0,799.92 H 799.92 V 0 H 0 Z"/>
  </clipPath>
  <clipPath id="clipPath300">
   <path transform="translate(-411.18 -163.04)" d="M 0,799.92 H 799.92 V 0 H 0 Z"/>
  </clipPath>
  <clipPath id="clipPath302">
   <path transform="translate(-412.63 -160.94)" d="M 0,799.92 H 799.92 V 0 H 0 Z"/>
  </clipPath>
  <clipPath id="clipPath304">
   <path transform="translate(-413.7 -158.63)" d="M 0,799.92 H 799.92 V 0 H 0 Z"/>
  </clipPath>
  <clipPath id="clipPath307">
   <path transform="matrix(1.3333 0 0 -1.3333 0 1066.6)" d="M 0,799.92 H 799.92 V 0 H 0 Z"/>
  </clipPath>
  <clipPath id="clipPath305">
   <path transform="translate(-399.96 -278.76)" d="m399.96 278.76h103.47v-206.94h-103.47z"/>
  </clipPath>
 </defs>
 <g transform="translate(-68.527 -111.92)">
  <g fill-rule="evenodd">
   <path transform="matrix(.35278 0 0 -.35278 105.03 184.92)" d="m0 0c56.988 0 103.47 46.479 103.47 103.47 0 56.988-46.48 103.47-103.47 103.47s-103.47-46.48-103.47-103.47c0-56.989 46.48-103.47 103.47-103.47" clip-path="url(#clipPath244)" fill="#f4762f"/>
   <path transform="matrix(.35278 0 0 -.35278 118.8 144)" d="m0 0 19.518-57.996 10.597-31.491c-18.322-16.471-42.551-26.498-69.125-26.504h-0.044c-26.574 6e-3 -50.804 10.033-69.124 26.504l10.596 31.49 19.517 57.996 39.032 1e-3z" clip-path="url(#clipPath246)" fill="#b2b2b2"/>
   <path transform="matrix(.35278 0 0 -.35278 114.34 148.02)" d="m0 0 13.195-52.296 10.004-39.657c-14.717-8.053-31.607-12.635-49.567-12.639h-0.044c-17.96 4e-3 -34.848 4.586-49.567 12.639l10.006 39.656 13.194 52.296 26.389 1e-3z" clip-path="url(#clipPath248)" fill="#e5e5e5"/>
   <path transform="matrix(.35278 0 0 -.35278 113.93 132.44)" d="m0 0 25.225-54.095c-36.784-45.958-64.118-45.958-100.9-1e-3l11.857 25.43 13.368 28.666h25.225z" clip-path="url(#clipPath250)" fill="#b2b2b2"/>
   <path transform="matrix(.35278 0 0 -.35278 125.38 121.83)" d="m0 0c-7.889 4.851-51.781-34.467-32.246-50.58 5.41-4.461 22.566-8.23 19.879-2.934-4.172 8.219 18.07 50.006 12.367 53.514" clip-path="url(#clipPath252)" fill="#e5e5e5"/>
   <path transform="matrix(.35278 0 0 -.35278 125.5 123.04)" d="m0 0c-4.838 3.86-31.533-22.637-28.32-41.192 0.882-5.101-2.422-7.371 0.802-9.943 2.737-2.182 16.454-2.21 14.805 1.04-3.543 6.978 17.824 46.018 12.713 50.095" clip-path="url(#clipPath254)" fill="#b2b2b2"/>
   <path transform="matrix(.35278 0 0 -.35278 84.617 121.83)" d="m0 0c7.889 4.851 51.781-34.467 32.246-50.58-5.409-4.461-22.565-8.23-19.878-2.934 4.171 8.219-18.071 50.006-12.368 53.514" clip-path="url(#clipPath256)" fill="#e5e5e5"/>
   <path transform="matrix(.35278 0 0 -.35278 84.495 123.04)" d="m0 0c4.839 3.86 31.534-22.637 28.321-41.192-0.883-5.101 2.42-7.371-0.804-9.943-2.737-2.182-16.453-2.21-14.803 1.04 3.541 6.978-17.826 46.018-12.714 50.095" clip-path="url(#clipPath258)" fill="#b2b2b2"/>
   <path transform="matrix(.35278 0 0 -.35278 115.16 129.18)" d="m0 0 28.729-56.6c-41.891-48.086-73.022-48.086-114.91 0l13.505 26.608 15.223 29.992h28.728z" clip-path="url(#clipPath260)" fill="#e5e5e5"/>
   <path transform="matrix(.35278 0 0 -.35278 99.531 150.06)" d="m0 0c-8.422 0-15.249-4.141-15.249-9.246 0-5.107 6.827-9.246 15.249-9.246s15.249 4.139 15.249 9.246c0 5.105-6.827 9.246-15.249 9.246" clip-path="url(#clipPath262)" fill="#fff"/>
   <path transform="matrix(.35278 0 0 -.35278 110.29 150.06)" d="m0 0c8.422 0 15.248-4.14 15.248-9.246s-6.826-9.246-15.248-9.246-15.25 4.14-15.25 9.246 6.828 9.246 15.25 9.246" clip-path="url(#clipPath264)" fill="#fff"/>
  </g>
  <g fill="#b2b2b2" fill-rule="evenodd">
   <path transform="matrix(.35278 0 0 -.35278 96.71 150.81)" d="M 0,0 C 11.781,6.741 17.036,21.958 10.459,38.576 -15.747,29.197 -9.449,12.455 0,0" clip-path="url(#clipPath266)"/>
   <path transform="matrix(.35278 0 0 -.35278 115.16 129.18)" d="m0 0c-20.563-14.217-23.635-45.443-29.062-68.432-5.057 23.278-7.471 53.966-28.394 68.432h52.28z" clip-path="url(#clipPath268)"/>
   <path transform="matrix(.35278 0 0 -.35278 113.35 150.81)" d="M 0,0 C -11.781,6.741 -17.035,21.958 -10.459,38.576 16.68,29.994 10.221,13.362 0,0" clip-path="url(#clipPath270)"/>
   <path transform="matrix(.35278 0 0 -.35278 104.98 152.26)" d="m0 0c0.718-3.176 2.687-5.878 5.359-7.563 3.344-2.457 8.016-3.982 13.185-3.982 0.926 0 1.836 0.049 2.725 0.144-9.4-18.792-32.784-18.505-42.173-9e-3 0.861-0.088 1.742-0.135 2.638-0.135 9.397 0 17.147 5.039 18.266 11.545" clip-path="url(#clipPath272)"/>
  </g>
  <g fill-rule="evenodd">
   <path transform="matrix(.35278 0 0 -.35278 111.86 142.45)" d="m0 0c2.826 2.367 6.721 2.62 9.762 0.929 1.133-3.289 0.201-7.079-2.623-9.447-2.826-2.367-6.721-2.62-9.76-0.929-1.135 3.29-0.203 7.08 2.621 9.447" clip-path="url(#clipPath274)" fill="#d3d3d3"/>
   <path transform="matrix(.35278 0 0 -.35278 98.2 142.45)" d="m0 0c-2.826 2.367-6.72 2.62-9.761 0.929-1.133-3.289-0.202-7.079 2.623-9.447 2.826-2.367 6.721-2.62 9.76-0.929 1.134 3.29 0.202 7.08-2.622 9.447" clip-path="url(#clipPath276)" fill="#d3d3d3"/>
   <path transform="matrix(.35278 0 0 -.35278 113.12 142.11)" d="m0 0c2.883 0 5.219-2.338 5.219-5.221 0-2.882-2.336-5.218-5.219-5.218s-5.221 2.336-5.221 5.218c0 2.883 2.338 5.221 5.221 5.221" clip-path="url(#clipPath278)" fill="#57a9aa"/>
   <path transform="matrix(.35278 0 0 -.35278 113.91 142.45)" d="m0 0c1.027 0 1.859-0.834 1.859-1.861 0-1.028-0.832-1.861-1.859-1.861s-1.861 0.833-1.861 1.861c0 1.027 0.834 1.861 1.861 1.861" clip-path="url(#clipPath280)" fill="#fff"/>
   <path transform="matrix(.35278 0 0 -.35278 113.12 142.77)" d="m0 0c0.621 0 1.123-1.497 1.123-3.345 0-1.845-0.502-3.343-1.123-3.343s-1.125 1.498-1.125 3.343c0 1.848 0.504 3.345 1.125 3.345" clip-path="url(#clipPath282)" fill="#333"/>
   <path transform="matrix(.35278 0 0 -.35278 96.941 142.11)" d="m0 0c2.883 0 5.22-2.338 5.22-5.221s-2.337-5.219-5.22-5.219-5.22 2.336-5.22 5.219 2.337 5.221 5.22 5.221" clip-path="url(#clipPath284)" fill="#57a9aa"/>
   <path transform="matrix(.35278 0 0 -.35278 97.734 142.45)" d="m0 0c1.027 0 1.86-0.833 1.86-1.86 0-1.028-0.833-1.862-1.86-1.862s-1.86 0.834-1.86 1.862c0 1.027 0.833 1.86 1.86 1.86" clip-path="url(#clipPath286)" fill="#fff"/>
   <path transform="matrix(.35278 0 0 -.35278 96.941 142.77)" d="m0 0c0.621 0 1.124-1.497 1.124-3.345 0-1.846-0.503-3.343-1.124-3.343s-1.125 1.497-1.125 3.343c0 1.848 0.504 3.345 1.125 3.345" clip-path="url(#clipPath288)" fill="#333"/>
   <path transform="matrix(.35278 0 0 -.35278 104.98 152.26)" d="m0 0c0.718-3.176 2.687-5.878 5.359-7.563 0.859-0.63 1.805-1.2 2.824-1.698-5.16-2.02-10.824-1.992-15.984 0.052 4.209 2.086 7.145 5.395 7.801 9.209" clip-path="url(#clipPath290)" fill="#e5e5e5"/>
   <path transform="matrix(.35278 0 0 -.35278 102.15 150.37)" d="m0 0c3.769 3.078 12.288 3.36 16.399 0l-8.574-8.512z" clip-path="url(#clipPath292)" fill="#84604b"/>
  </g>
  <g fill="#fff">
   <path transform="matrix(.35278 0 0 -.35278 101.07 152.75)" d="m0 0c0.296-0.146 0.417-0.505 0.271-0.801-0.146-0.297-0.504-0.418-0.801-0.271-8.655 4.284-19.135 5.513-28.75 4.773-11.256-0.865-21.289-4.416-25.783-8.909-0.233-0.234-0.614-0.234-0.847 0-0.235 0.233-0.235 0.614 0 0.849 4.68 4.679 15.01 8.369 26.54 9.255 9.803 0.754 20.505-0.507 29.37-4.896" clip-path="url(#clipPath294)"/>
   <path transform="matrix(.35278 0 0 -.35278 100.56 153.48)" d="m0 0c0.317-0.093 0.499-0.426 0.406-0.742-0.093-0.318-0.426-0.499-0.743-0.406-7.501 2.204-15.836 2.228-23.695 0.888-9.146-1.559-17.634-4.963-23.416-8.928-0.274-0.186-0.646-0.117-0.832 0.157-0.187 0.273-0.116 0.646 0.156 0.832 5.913 4.054 14.575 7.531 23.89 9.12 8.023 1.368 16.544 1.339 24.234-0.921" clip-path="url(#clipPath296)"/>
   <path transform="matrix(.35278 0 0 -.35278 100.18 154.3)" d="m0 0c0.328-0.035 0.565-0.332 0.529-0.66s-0.332-0.567-0.661-0.53c-6.563 0.737-13.442-0.16-19.945-2.072-7.456-2.191-14.411-5.712-19.833-9.631-0.268-0.193-0.641-0.131-0.834 0.136-0.193 0.268-0.132 0.642 0.136 0.835 5.524 3.992 12.607 7.579 20.194 9.809 6.645 1.953 13.685 2.869 20.414 2.113" clip-path="url(#clipPath298)"/>
   <path transform="matrix(.35278 0 0 -.35278 108.99 152.75)" d="m0 0c-0.297-0.146-0.418-0.505-0.273-0.801 0.146-0.297 0.505-0.418 0.802-0.271 8.655 4.284 19.135 5.513 28.75 4.773 11.256-0.865 21.289-4.416 25.782-8.909 0.234-0.234 0.615-0.234 0.847 0 0.235 0.233 0.235 0.614 0 0.849-4.679 4.679-15.01 8.369-26.539 9.255-9.803 0.754-20.506-0.507-29.369-4.896" clip-path="url(#clipPath300)"/>
   <path transform="matrix(.35278 0 0 -.35278 109.5 153.48)" d="m0 0c-0.318-0.093-0.5-0.426-0.406-0.742 0.093-0.318 0.426-0.499 0.742-0.406 7.502 2.204 15.836 2.228 23.695 0.888 9.147-1.559 17.635-4.963 23.416-8.928 0.274-0.186 0.647-0.117 0.832 0.157 0.188 0.273 0.117 0.646-0.156 0.832-5.912 4.054-14.574 7.531-23.889 9.12-8.023 1.368-16.545 1.339-24.234-0.921" clip-path="url(#clipPath302)"/>
   <path transform="matrix(.35278 0 0 -.35278 109.87 154.3)" d="m0 0c-0.328-0.035-0.566-0.332-0.529-0.66 0.035-0.328 0.332-0.567 0.66-0.53 6.564 0.737 13.443-0.16 19.945-2.072 7.457-2.191 14.412-5.712 19.834-9.631 0.268-0.193 0.641-0.131 0.834 0.136 0.192 0.268 0.131 0.642-0.137 0.835-5.523 3.992-12.605 7.579-20.193 9.809-6.646 1.953-13.685 2.869-20.414 2.113" clip-path="url(#clipPath304)"/>
  </g>
  <g transform="matrix(.26458 0 0 .26458 -36.069 -71.933)" clip-path="url(#clipPath307)" opacity=".14999">
   <path transform="matrix(1.3333 0 0 -1.3333 533.28 694.88)" d="m0 0c57.144 0 103.47-46.324 103.47-103.47 0-57.143-46.324-103.47-103.47-103.47z" clip-path="url(#clipPath305)" fill-rule="evenodd"/>
  </g>
 </g>
</svg>
