<?xml version="1.0" encoding="UTF-8" standalone="no"?>
<!-- Created with Inkscape (http://www.inkscape.org/) -->

<svg
   width="73.002419mm"
   height="73.002846mm"
   viewBox="0 0 73.002419 73.002846"
   version="1.1"
   id="svg1"
   inkscape:version="1.3.2 (091e20e, 2023-11-25, custom)"
   sodipodi:docname="avatar_2.svg"
   xmlns:inkscape="http://www.inkscape.org/namespaces/inkscape"
   xmlns:sodipodi="http://sodipodi.sourceforge.net/DTD/sodipodi-0.dtd"
   xmlns="http://www.w3.org/2000/svg"
   xmlns:svg="http://www.w3.org/2000/svg">
  <sodipodi:namedview
     id="namedview1"
     pagecolor="#ffffff"
     bordercolor="#000000"
     borderopacity="0.25"
     inkscape:showpageshadow="2"
     inkscape:pageopacity="0.0"
     inkscape:pagecheckerboard="0"
     inkscape:deskcolor="#d1d1d1"
     inkscape:document-units="mm"
     inkscape:zoom="1.0841681"
     inkscape:cx="294.23482"
     inkscape:cy="243.0435"
     inkscape:window-width="2560"
     inkscape:window-height="1494"
     inkscape:window-x="-11"
     inkscape:window-y="-11"
     inkscape:window-maximized="1"
     inkscape:current-layer="layer1" />
  <defs
     id="defs1">
    <clipPath
       clipPathUnits="userSpaceOnUse"
       id="clipPath219">
      <path
         d="M 0,799.92 H 799.92 V 0 H 0 Z"
         transform="translate(-642.13672,-71.828102)"
         id="path219" />
    </clipPath>
    <clipPath
       clipPathUnits="userSpaceOnUse"
       id="clipPath221">
      <path
         d="M 0,799.92 H 799.92 V 0 H 0 Z"
         transform="translate(-681.16802,-187.8193)"
         id="path221" />
    </clipPath>
    <clipPath
       clipPathUnits="userSpaceOnUse"
       id="clipPath223">
      <path
         d="M 0,799.92 H 799.92 V 0 H 0 Z"
         transform="translate(-670.86521,-226.25491)"
         id="path223" />
    </clipPath>
    <clipPath
       clipPathUnits="userSpaceOnUse"
       id="clipPath225">
      <path
         d="M 0,799.92 H 799.92 V 0 H 0 Z"
         transform="translate(-668.52542,-176.4199)"
         id="path225" />
    </clipPath>
    <clipPath
       clipPathUnits="userSpaceOnUse"
       id="clipPath227">
      <path
         d="M 0,799.92 H 799.92 V 0 H 0 Z"
         transform="translate(-622.13872,-165.76371)"
         id="path227" />
    </clipPath>
    <clipPath
       clipPathUnits="userSpaceOnUse"
       id="clipPath229">
      <path
         d="M 0,799.92 H 799.92 V 0 H 0 Z"
         transform="translate(-619.21091,-212.53611)"
         id="path229" />
    </clipPath>
    <clipPath
       clipPathUnits="userSpaceOnUse"
       id="clipPath231">
      <path
         d="M 0,799.92 H 799.92 V 0 H 0 Z"
         transform="translate(-665.06252,-212.53611)"
         id="path231" />
    </clipPath>
    <clipPath
       clipPathUnits="userSpaceOnUse"
       id="clipPath233">
      <path
         d="M 0,799.92 H 799.92 V 0 H 0 Z"
         transform="translate(-619.21091,-193.90431)"
         id="path233" />
    </clipPath>
    <clipPath
       clipPathUnits="userSpaceOnUse"
       id="clipPath235">
      <path
         d="M 0,799.92 H 799.92 V 0 H 0 Z"
         transform="translate(-622.38872,-193.90431)"
         id="path235" />
    </clipPath>
    <clipPath
       clipPathUnits="userSpaceOnUse"
       id="clipPath237">
      <path
         d="M 0,799.92 H 799.92 V 0 H 0 Z"
         transform="translate(-665.06252,-193.90431)"
         id="path237" />
    </clipPath>
    <clipPath
       clipPathUnits="userSpaceOnUse"
       id="clipPath239">
      <path
         d="M 0,799.92 H 799.92 V 0 H 0 Z"
         transform="translate(-668.24021,-193.90431)"
         id="path239" />
    </clipPath>
    <clipPath
       clipPathUnits="userSpaceOnUse"
       id="clipPath242">
      <path
         d="M 0,799.92 H 799.92 V 0 H 0 Z"
         transform="matrix(1.3333333,0,0,-1.3333333,0,1066.56)"
         id="path242" />
    </clipPath>
    <clipPath
       clipPathUnits="userSpaceOnUse"
       id="clipPath240">
      <path
         d="M 641.664,278.764 H 745.133 V 71.8281 H 641.664 Z"
         transform="translate(-641.66411,-278.7637)"
         id="path240" />
    </clipPath>
  </defs>
  <g
     inkscape:label="Camada 1"
     inkscape:groupmode="layer"
     id="layer1"
     transform="translate(-26.987494,-84.137499)">
    <path
       id="path218"
       d="m 0,0 c 56.988,0 103.467,46.48 103.467,103.469 0,56.988 -46.479,103.468 -103.467,103.468 -56.988,0 -103.469,-46.48 -103.469,-103.468 C -103.469,46.48 -56.988,0 0,0"
       style="fill:#f6a7aa;fill-opacity:1;fill-rule:evenodd;stroke:none"
       transform="matrix(0.35277776,0,0,-0.35277776,63.489056,157.14027)"
       clip-path="url(#clipPath219)" />
    <path
       id="path220"
       d="m 0,0 19.518,-57.995 10.597,-31.492 c -18.322,-16.471 -42.551,-26.498 -69.125,-26.504 h -0.045 c -26.574,0.006 -50.802,10.033 -69.123,26.504 L -97.58,-57.996 -78.064,-0.001 -39.031,0 Z"
       style="fill:#333333;fill-opacity:1;fill-rule:evenodd;stroke:none"
       transform="matrix(0.35277776,0,0,-0.35277776,77.25843,116.22115)"
       clip-path="url(#clipPath221)" />
    <path
       id="path222"
       d="m 0,0 21.402,-20.773 7.325,-28.986 -7.289,-28.922 -21.44,-20.836 -28.691,-8.148 -28.764,8.147 -21.402,20.775 -7.327,28.984 7.29,28.922 L -57.457,0 -28.766,8.148 Z"
       style="fill:#333333;fill-opacity:1;fill-rule:evenodd;stroke:none"
       transform="matrix(0.35277776,0,0,-0.35277776,73.623831,102.66193)"
       clip-path="url(#clipPath223)" />
    <path
       id="path224"
       d="m 0,0 13.195,-52.296 10.006,-39.657 c -14.719,-8.053 -31.607,-12.635 -49.568,-12.639 h -0.045 c -17.959,0.004 -34.848,4.586 -49.567,12.639 l 10.006,39.656 13.194,52.296 26.39,0.001 z"
       style="fill:#ffffff;fill-opacity:1;fill-rule:evenodd;stroke:none"
       transform="matrix(0.35277776,0,0,-0.35277776,72.798402,120.24261)"
       clip-path="url(#clipPath225)" />
    <path
       id="path226"
       d="M 0,0 C 15.1,0 13.766,19.313 20.207,19.313 27.098,19.313 23.678,0 39.994,0 l -20.91,-15.631 z"
       style="fill:#f4762f;fill-opacity:1;fill-rule:evenodd;stroke:none"
       transform="matrix(0.35277776,0,0,-0.35277776,56.434206,124.00188)"
       clip-path="url(#clipPath227)" />
    <path
       id="path228"
       d="m 0,0 c 11.344,0 20.539,-11.066 20.539,-24.717 0,-13.651 -9.195,-24.718 -20.539,-24.718 -11.344,0 -20.539,11.067 -20.539,24.718 C -20.539,-11.066 -11.344,0 0,0"
       style="fill:#ffffff;fill-opacity:1;fill-rule:evenodd;stroke:none"
       transform="matrix(0.35277776,0,0,-0.35277776,55.401342,107.50161)"
       clip-path="url(#clipPath229)" />
    <path
       id="path230"
       d="m 0,0 c 11.342,0 20.539,-11.066 20.539,-24.717 0,-13.651 -9.197,-24.718 -20.539,-24.718 -11.344,0 -20.539,11.067 -20.539,24.718 C -20.539,-11.066 -11.344,0 0,0"
       style="fill:#ffffff;fill-opacity:1;fill-rule:evenodd;stroke:none"
       transform="matrix(0.35277776,0,0,-0.35277776,71.576768,107.50161)"
       clip-path="url(#clipPath231)" />
    <path
       id="path232"
       d="m 0,0 c 3.359,0 6.084,-2.725 6.084,-6.085 0,-3.36 -2.725,-6.085 -6.084,-6.085 -3.361,0 -6.086,2.725 -6.086,6.085 C -6.086,-2.725 -3.361,0 0,0"
       style="fill:#000000;fill-opacity:1;fill-rule:evenodd;stroke:none"
       transform="matrix(0.35277776,0,0,-0.35277776,55.401342,114.0745)"
       clip-path="url(#clipPath233)" />
    <path
       id="path234"
       d="m 0,0 c 1.605,0 2.906,-1.302 2.906,-2.908 0,-1.606 -1.301,-2.906 -2.906,-2.906 -1.605,0 -2.908,1.3 -2.908,2.906 C -2.908,-1.302 -1.605,0 0,0"
       style="fill:#ffffff;fill-opacity:1;fill-rule:evenodd;stroke:none"
       transform="matrix(0.35277776,0,0,-0.35277776,56.5224,114.0745)"
       clip-path="url(#clipPath235)" />
    <path
       id="path236"
       d="m 0,0 c 3.359,0 6.084,-2.725 6.084,-6.085 0,-3.36 -2.725,-6.085 -6.084,-6.085 -3.361,0 -6.086,2.725 -6.086,6.085 C -6.086,-2.725 -3.361,0 0,0"
       style="fill:#000000;fill-opacity:1;fill-rule:evenodd;stroke:none"
       transform="matrix(0.35277776,0,0,-0.35277776,71.576768,114.0745)"
       clip-path="url(#clipPath237)" />
    <path
       id="path238"
       d="m 0,0 c 1.605,0 2.906,-1.302 2.906,-2.908 0,-1.606 -1.301,-2.906 -2.906,-2.906 -1.605,0 -2.908,1.3 -2.908,2.906 C -2.908,-1.302 -1.605,0 0,0"
       style="fill:#ffffff;fill-opacity:1;fill-rule:evenodd;stroke:none"
       transform="matrix(0.35277776,0,0,-0.35277776,72.697789,114.0745)"
       clip-path="url(#clipPath239)" />
    <g
       opacity="0.149994"
       id="g241"
       clip-path="url(#clipPath242)"
       transform="matrix(0.26458333,0,0,0.26458333,-163.0425,-99.71437)">
      <path
         d="M 0,0 C 57.145,0 103.469,-46.324 103.469,-103.468 103.469,-160.611 57.145,-206.936 0,-206.936 Z"
         style="fill:#000000;fill-opacity:1;fill-rule:evenodd;stroke:none"
         transform="matrix(1.3333333,0,0,-1.3333333,855.55213,694.87507)"
         clip-path="url(#clipPath240)"
         id="path241" />
    </g>
  </g>
</svg>
