<?xml version="1.0" encoding="UTF-8" standalone="no"?>
<!-- Created with Inkscape (http://www.inkscape.org/) -->

<svg
   width="41.996429mm"
   height="41.996674mm"
   viewBox="0 0 41.996429 41.996674"
   version="1.1"
   id="svg1"
   inkscape:version="1.3.2 (091e20e, 2023-11-25, custom)"
   sodipodi:docname="avatar_7.svg"
   xmlns:inkscape="http://www.inkscape.org/namespaces/inkscape"
   xmlns:sodipodi="http://sodipodi.sourceforge.net/DTD/sodipodi-0.dtd"
   xmlns="http://www.w3.org/2000/svg"
   xmlns:svg="http://www.w3.org/2000/svg">
  <sodipodi:namedview
     id="namedview1"
     pagecolor="#ffffff"
     bordercolor="#000000"
     borderopacity="0.25"
     inkscape:showpageshadow="2"
     inkscape:pageopacity="0.0"
     inkscape:pagecheckerboard="0"
     inkscape:deskcolor="#d1d1d1"
     inkscape:document-units="mm"
     inkscape:zoom="1.0841681"
     inkscape:cx="79.323495"
     inkscape:cy="78.862311"
     inkscape:window-width="2560"
     inkscape:window-height="1494"
     inkscape:window-x="-11"
     inkscape:window-y="-11"
     inkscape:window-maximized="1"
     inkscape:current-layer="layer1" />
  <defs
     id="defs1">
    <clipPath
       clipPathUnits="userSpaceOnUse"
       id="clipPath101">
      <path
         d="M 0,500 H 500 V 0 H 0 Z"
         transform="translate(-309.52261,-103.019)"
         id="path101" />
    </clipPath>
    <clipPath
       clipPathUnits="userSpaceOnUse"
       id="clipPath103">
      <path
         d="M 0,500 H 500 V 0 H 0 Z"
         transform="translate(-283.84201,-118.4516)"
         id="path103" />
    </clipPath>
    <clipPath
       clipPathUnits="userSpaceOnUse"
       id="clipPath105">
      <path
         d="M 0,500 H 500 V 0 H 0 Z"
         transform="translate(-287.368,-66.235304)"
         id="path105" />
    </clipPath>
    <clipPath
       clipPathUnits="userSpaceOnUse"
       id="clipPath107">
      <path
         d="M 0,500 H 500 V 0 H 0 Z"
         transform="translate(-258.01081,-96.313005)"
         id="path107" />
    </clipPath>
    <clipPath
       clipPathUnits="userSpaceOnUse"
       id="clipPath109">
      <path
         d="M 0,500 H 500 V 0 H 0 Z"
         transform="translate(-267.9205,-114.8583)"
         id="path109" />
    </clipPath>
    <clipPath
       clipPathUnits="userSpaceOnUse"
       id="clipPath111">
      <path
         d="M 0,500 H 500 V 0 H 0 Z"
         transform="translate(-234.3487,-113.34551)"
         id="path111" />
    </clipPath>
    <clipPath
       clipPathUnits="userSpaceOnUse"
       id="clipPath113">
      <path
         d="M 0,500 H 500 V 0 H 0 Z"
         transform="translate(-270.43821,-113.5344)"
         id="path113" />
    </clipPath>
    <clipPath
       clipPathUnits="userSpaceOnUse"
       id="clipPath115">
      <path
         d="M 0,500 H 500 V 0 H 0 Z"
         transform="translate(-246.56721,-131.24621)"
         id="path115" />
    </clipPath>
  </defs>
  <g
     inkscape:label="Camada 1"
     inkscape:groupmode="layer"
     id="layer1"
     transform="translate(-83.872912,-127.52917)">
    <path
       id="path100"
       d="m 0,0 c 0,-32.873 -26.649,-59.522 -59.523,-59.522 -32.873,0 -59.522,26.649 -59.522,59.522 0,32.873 26.649,59.523 59.522,59.523 C -26.649,59.523 0,32.873 0,0"
       style="fill:#ffffff icc-color(Display, 1, 1, 1);fill-opacity:1;fill-rule:nonzero;stroke:none"
       transform="matrix(0.35277776,0,0,-0.35277776,125.86934,148.52756)"
       clip-path="url(#clipPath101)" />
    <path
       id="path102"
       d="m 0,0 c -0.09,0.74 -0.716,1.381 -1.454,1.489 0.607,0.356 0.935,1.131 0.768,1.814 -0.167,0.684 -0.815,1.22 -1.518,1.256 0.415,0.376 0.561,1.02 0.348,1.538 -0.213,0.518 -0.769,0.874 -1.328,0.85 0.369,0.48 0.416,1.185 0.113,1.709 -0.304,0.524 -0.938,0.835 -1.538,0.754 0.383,0.611 0.317,1.47 -0.155,2.016 -0.653,0.756 -1.571,0.418 -2.367,0.737 0.389,0.601 0.797,1.284 0.466,2.047 -0.295,0.684 -1.103,1.136 -1.882,1.054 0.592,0.313 1.076,0.877 1.093,1.516 0.016,0.639 -0.563,1.288 -1.239,1.238 0.447,0.477 0.584,1.195 0.339,1.789 -0.244,0.594 -0.857,1.037 -1.53,1.106 -0.314,1.681 -2.951,2.735 -4.541,1.917 0.204,0.485 0.072,1.079 -0.32,1.448 -0.391,0.369 -1.022,0.492 -1.537,0.301 -0.112,0.816 -0.808,1.532 -1.661,1.709 -0.853,0.176 -1.804,-0.2 -2.268,-0.897 0.302,0.555 0.175,1.289 -0.299,1.725 -0.474,0.436 -1.256,0.538 -1.838,0.24 0.367,0.49 -0.015,1.221 -0.591,1.476 -0.577,0.254 -1.312,0.055 -1.942,-0.031 0.205,0.695 -0.148,1.501 -0.814,1.857 -0.666,0.356 -1.582,0.229 -2.11,-0.294 -0.106,0.593 -0.586,1.111 -1.194,1.292 -0.695,0.205 -1.793,-0.114 -1.972,-0.914 -0.04,0.549 -0.627,0.927 -1.177,0.934 -0.669,0.009 -1.351,-0.48 -1.431,-1.143 -0.373,0.503 -0.917,0.488 -1.416,0.718 -0.614,0.283 -1.016,0.623 -1.753,0.405 -0.608,-0.181 -1.088,-0.699 -1.194,-1.292 -0.528,0.523 -1.444,0.65 -2.11,0.294 -0.666,-0.356 -1.02,-1.162 -0.814,-1.857 -0.63,0.086 -1.365,0.285 -1.942,0.031 -0.576,-0.255 -0.958,-0.986 -0.591,-1.476 -0.582,0.298 -1.364,0.196 -1.838,-0.24 -0.474,-0.436 -0.601,-1.17 -0.299,-1.725 -0.464,0.697 -1.415,1.073 -2.268,0.897 -0.853,-0.177 -1.55,-0.893 -1.661,-1.709 -0.515,0.191 -1.146,0.068 -1.538,-0.301 -0.392,-0.369 -0.523,-0.963 -0.32,-1.448 -1.589,0.818 -4.226,-0.236 -4.54,-1.917 -0.673,-0.069 -1.286,-0.512 -1.53,-1.106 -0.245,-0.594 -0.109,-1.312 0.339,-1.789 -0.676,0.05 -1.256,-0.599 -1.239,-1.238 0.017,-0.639 0.501,-1.203 1.093,-1.516 -0.779,0.082 -1.587,-0.37 -1.883,-1.054 -0.33,-0.763 0.078,-1.446 0.467,-2.047 -0.796,-0.319 -1.714,0.019 -2.367,-0.737 -0.473,-0.546 -0.538,-1.405 -0.155,-2.016 -0.6,0.081 -1.235,-0.23 -1.538,-0.754 -0.303,-0.524 -0.256,-1.229 0.113,-1.709 -0.559,0.024 -1.115,-0.332 -1.328,-0.85 -0.213,-0.518 -0.067,-1.162 0.348,-1.538 C -64.246,4.523 -64.894,3.987 -65.061,3.303 -65.228,2.62 -64.9,1.845 -64.294,1.489 -65.031,1.381 -65.657,0.74 -65.747,0 c -0.09,-0.74 0.363,-1.512 1.053,-1.794 -1.002,-1.202 -0.313,-3.358 1.2,-3.758 -0.522,0.138 -1.029,-1.059 -1.074,-1.403 -0.105,-0.796 0.316,-1.303 0.837,-1.843 0.167,-0.173 0.333,-0.347 0.5,-0.52 -0.726,-0.343 -1.712,-1.291 -1.433,-2.01 0.278,-0.72 1.173,-1.172 1.963,-0.994 -1.273,-2.036 0.962,-2.711 1.752,-4.023 0.559,-0.927 0.293,-3.679 2.433,-2.32 -0.305,-0.512 -0.174,-1.209 0.339,-1.542 0.508,-0.33 1.22,-0.232 1.696,0.142 -0.533,-0.699 -0.496,-1.774 0.086,-2.434 0.581,-0.66 1.643,-0.833 2.403,-0.392 -0.014,-0.738 0.451,-1.463 1.128,-1.756 0.677,-0.293 1.525,-0.136 2.052,0.379 -0.098,-0.724 0.375,-1.486 1.069,-1.718 0.693,-0.232 1.529,0.091 1.886,0.729 0.257,-1.168 1.628,-1.663 2.661,-1.27 -0.01,-0.714 0.541,-1.623 1.233,-1.885 0.419,-0.16 2.577,0.466 2.469,0.582 1.311,-1.409 3.804,-1.645 5.195,-0.307 1.313,1.263 2.268,2.363 3.425,3.33 1.158,-0.967 2.113,-2.067 3.425,-3.33 1.392,-1.338 3.885,-1.102 5.196,0.307 -0.108,-0.116 2.05,-0.742 2.469,-0.582 0.692,0.262 1.243,1.171 1.233,1.885 1.033,-0.393 2.404,0.102 2.66,1.27 0.358,-0.638 1.194,-0.961 1.887,-0.729 0.694,0.232 1.167,0.994 1.069,1.718 0.527,-0.515 1.374,-0.672 2.051,-0.379 0.678,0.293 1.143,1.018 1.129,1.756 0.76,-0.441 1.822,-0.268 2.403,0.392 0.581,0.66 0.619,1.735 0.086,2.434 0.476,-0.374 1.188,-0.472 1.696,-0.142 0.513,0.333 0.644,1.03 0.339,1.542 2.14,-1.359 1.874,1.393 2.433,2.32 0.79,1.312 3.025,1.987 1.752,4.023 0.79,-0.178 1.684,0.274 1.963,0.994 0.279,0.719 -0.707,1.667 -1.433,2.01 0.167,0.173 0.333,0.347 0.5,0.52 0.521,0.54 0.942,1.047 0.837,1.843 -0.045,0.344 -0.552,1.541 -1.074,1.403 1.513,0.4 2.201,2.556 1.2,3.758 C -0.363,-1.512 0.09,-0.74 0,0"
       style="fill:#383838 icc-color(Display, 0.21998596, 0.21998596, 0.21998596);fill-opacity:1;fill-rule:nonzero;stroke:none"
       transform="matrix(0.35277776,0,0,-0.35277776,116.8098,143.08328)"
       clip-path="url(#clipPath103)" />
    <path
       id="path104"
       d="m 0,0 c -2.075,7.379 -7.828,13.154 -15.199,15.257 l -13.597,3.88 h -8.572 -8.572 l -13.597,-3.88 C -66.908,13.154 -72.661,7.379 -74.736,0 l -3.742,-6.239 c 10.687,-10.214 25.16,-16.5 41.11,-16.5 15.95,0 30.423,6.286 41.109,16.5 z"
       style="fill:#383838 icc-color(Display, 0.21998596, 0.21998596, 0.21998596);fill-opacity:1;fill-rule:nonzero;stroke:none"
       transform="matrix(0.35277776,0,0,-0.35277776,118.05369,161.50403)"
       clip-path="url(#clipPath105)" />
    <path
       id="path106"
       d="m 0,0 h -8.011 -8.011 l -2.524,-13.217 c 0,0 4.52,-4.738 10.535,-4.987 6.016,0.249 10.536,4.987 10.536,4.987 z"
       style="fill:#d7eae8 icc-color(Display, 0.83898926, 0.91799927, 0.9099884);fill-opacity:1;fill-rule:nonzero;stroke:none"
       transform="matrix(0.35277776,0,0,-0.35277776,107.69713,150.89329)"
       clip-path="url(#clipPath107)" />
    <path
       id="path108"
       d="m 0,0 c 0,-10.833 -8.023,-25.341 -17.921,-25.341 -9.897,0 -17.92,14.508 -17.92,25.341 0,10.833 8.023,19.615 17.92,19.615 C -8.023,19.615 0,10.833 0,0"
       style="fill:#e5f4f3 icc-color(Display, 0.89399719, 0.95698547, 0.95298767);fill-opacity:1;fill-rule:nonzero;stroke:none"
       transform="matrix(0.35277776,0,0,-0.35277776,111.19305,144.35092)"
       clip-path="url(#clipPath109)" />
    <path
       id="path110"
       d="m 0,0 c -0.085,-2.117 -1.345,-4.906 -2.758,-4.849 -1.413,0.057 -2.444,2.938 -2.359,5.055 0.085,2.117 1.3,3.787 2.713,3.73 C -0.991,3.879 0.085,2.117 0,0"
       style="fill:#e5f4f3 icc-color(Display, 0.89399719, 0.95698547, 0.95298767);fill-opacity:1;fill-rule:nonzero;stroke:none"
       transform="matrix(0.35277776,0,0,-0.35277776,99.349663,144.8846)"
       clip-path="url(#clipPath111)" />
    <path
       id="path112"
       d="M 0,0 C 0.072,-2.118 -0.978,-4.992 -2.391,-5.04 -3.805,-5.088 -5.046,-2.291 -5.118,-0.173 -5.19,1.944 -4.102,3.7 -2.689,3.747 -1.276,3.795 -0.072,2.118 0,0"
       style="fill:#e5f4f3 icc-color(Display, 0.89399719, 0.95698547, 0.95298767);fill-opacity:1;fill-rule:nonzero;stroke:none"
       transform="matrix(0.35277776,0,0,-0.35277776,112.08124,144.81796)"
       clip-path="url(#clipPath113)" />
    <path
       id="path114"
       d="m 0,0 c 0.487,-0.992 2.629,-0.736 3.374,-0.357 0.471,-0.644 1.22,-0.93 2.007,-0.88 0.778,0.05 1.507,0.38 2.215,0.706 0.348,-0.706 1.186,-1.464 1.916,-1.17 0.023,-0.586 0.396,-1.144 0.928,-1.39 0.532,-0.246 1.198,-0.169 1.66,0.192 -0.18,-1.246 0.739,-2.929 1.998,-2.914 -0.236,-0.672 0.127,-1.447 0.703,-1.867 0.576,-0.42 1.314,-0.548 2.026,-0.575 -0.399,-1.193 0.774,-2.601 2.019,-2.425 -0.237,-0.409 -0.17,-1.042 0.028,-1.471 0.328,-0.709 1.228,-1.281 0.995,-2.027 -0.085,-0.273 -0.311,-0.473 -0.482,-0.702 -0.663,-0.885 -0.368,-2.322 0.588,-2.876 -0.378,-0.533 -0.733,-1.114 -0.815,-1.763 -0.082,-0.649 0.174,-1.381 0.756,-1.679 0.232,-0.118 0.52,-0.158 0.75,-0.036 0.247,0.13 0.375,0.414 0.427,0.69 0.199,1.05 -0.437,2.064 -0.59,3.122 -0.195,1.34 0.391,2.656 0.962,3.884 1.065,2.287 1.835,4.597 1.133,7.02 -1.073,3.698 -3.597,6.953 -6.911,8.913 -1.494,0.884 -3.131,1.508 -4.804,1.971 -5.438,1.506 -11.47,1.264 -16.482,-1.328 -5.012,-2.592 -8.82,-7.692 -9.217,-13.32 -0.078,-1.096 -0.026,-2.224 0.368,-3.25 0.197,-0.514 0.479,-0.999 0.597,-1.536 0.183,-0.833 -0.044,-1.706 0.059,-2.553 0.102,-0.847 0.783,-1.766 1.619,-1.597 0.087,-1.05 0.268,-2.092 0.542,-3.11 0.961,1.199 1.111,2.988 0.361,4.33 -0.218,0.39 -0.502,0.739 -0.784,1.086 0.533,-0.043 1.056,0.411 1.087,0.946 0.032,0.534 -0.434,1.046 -0.969,1.065 0.524,-0.099 1.115,0.466 1.398,0.918 0.283,0.451 0.258,1.076 -0.06,1.504 0.486,-0.044 0.976,0.317 1.077,0.794 0.101,0.477 -0.199,1.006 -0.661,1.163 0.902,0.116 1.455,1.397 0.99,2.178 0.728,-0.256 1.622,0.315 1.696,1.083 1.132,0.047 1.892,1.577 1.284,2.532 0.456,-0.22 1.039,-0.144 1.422,0.186 0.384,0.329 0.547,0.894 0.398,1.377 0.44,-0.414 1.332,-0.349 1.882,-0.096 0.549,0.253 0.916,0.857 0.887,1.461 0.497,-0.22 1.13,-0.078 1.501,0.353 C 0.221,-1.032 0.23,-0.469 0,0"
       style="fill:#383838 icc-color(Display, 0.21998596, 0.21998596, 0.21998596);fill-opacity:1;fill-rule:nonzero;stroke:none"
       transform="matrix(0.35277776,0,0,-0.35277776,103.66008,138.56963)"
       clip-path="url(#clipPath115)" />
  </g>
</svg>
