<?xml version="1.0" encoding="UTF-8" standalone="no"?>
<!-- Created with Inkscape (http://www.inkscape.org/) -->

<svg
   width="64.578476mm"
   height="99.300049mm"
   viewBox="0 0 64.578476 99.300049"
   version="1.1"
   id="svg1"
   inkscape:version="1.3.2 (091e20e, 2023-11-25, custom)"
   sodipodi:docname="back.svg"
   xmlns:inkscape="http://www.inkscape.org/namespaces/inkscape"
   xmlns:sodipodi="http://sodipodi.sourceforge.net/DTD/sodipodi-0.dtd"
   xmlns="http://www.w3.org/2000/svg"
   xmlns:svg="http://www.w3.org/2000/svg">
  <sodipodi:namedview
     id="namedview1"
     pagecolor="#ffffff"
     bordercolor="#000000"
     borderopacity="0.25"
     inkscape:showpageshadow="2"
     inkscape:pageopacity="0.0"
     inkscape:pagecheckerboard="0"
     inkscape:deskcolor="#d1d1d1"
     inkscape:document-units="mm"
     inkscape:zoom="1.0841681"
     inkscape:cx="121.75234"
     inkscape:cy="187.70152"
     inkscape:window-width="2560"
     inkscape:window-height="1494"
     inkscape:window-x="-11"
     inkscape:window-y="-11"
     inkscape:window-maximized="1"
     inkscape:current-layer="layer1" />
  <defs
     id="defs1">
    <clipPath
       clipPathUnits="userSpaceOnUse"
       id="clipPath34">
      <path
         d="m 58.618,402.306 0.249,-281.318 182.808,0.163 -0.25,281.317 z"
         transform="translate(-177.3564,-394.24411)"
         id="path34" />
    </clipPath>
    <clipPath
       clipPathUnits="userSpaceOnUse"
       id="clipPath36">
      <path
         d="m 58.618,402.306 0.249,-281.318 182.808,0.163 -0.25,281.317 z"
         transform="translate(-168.40431,-388.55221)"
         id="path36" />
    </clipPath>
    <clipPath
       clipPathUnits="userSpaceOnUse"
       id="clipPath38">
      <path
         d="m 58.618,402.306 0.249,-281.318 182.808,0.163 -0.25,281.317 z"
         transform="translate(-246.6445,-156.2939)"
         id="path38" />
    </clipPath>
    <clipPath
       clipPathUnits="userSpaceOnUse"
       id="clipPath40">
      <path
         d="m 58.618,402.306 0.249,-281.318 182.808,0.163 -0.25,281.317 z"
         transform="translate(-161.08401,-387.52251)"
         id="path40" />
    </clipPath>
    <clipPath
       clipPathUnits="userSpaceOnUse"
       id="clipPath42">
      <path
         d="m 58.618,402.306 0.249,-281.318 182.808,0.163 -0.25,281.317 z"
         transform="translate(-51.323701,-114.3555)"
         id="path42" />
    </clipPath>
    <clipPath
       clipPathUnits="userSpaceOnUse"
       id="clipPath44">
      <path
         d="m 58.618,402.306 0.249,-281.318 182.808,0.163 -0.25,281.317 z"
         transform="translate(-108.8799,-156.8271)"
         id="path44" />
    </clipPath>
    <clipPath
       clipPathUnits="userSpaceOnUse"
       id="clipPath46">
      <path
         d="m 58.618,402.306 0.249,-281.318 182.808,0.163 -0.25,281.317 z"
         transform="translate(-118.62501,-379.67681)"
         id="path46" />
    </clipPath>
    <clipPath
       clipPathUnits="userSpaceOnUse"
       id="clipPath48">
      <path
         d="m 58.618,402.306 0.249,-281.318 182.808,0.163 -0.25,281.317 z"
         transform="translate(-80.9854,-413.85451)"
         id="path48" />
    </clipPath>
    <clipPath
       clipPathUnits="userSpaceOnUse"
       id="clipPath50">
      <path
         d="m 58.618,402.306 0.249,-281.318 182.808,0.163 -0.25,281.317 z"
         transform="translate(-88.560505,-385.34081)"
         id="path50" />
    </clipPath>
    <clipPath
       clipPathUnits="userSpaceOnUse"
       id="clipPath52">
      <path
         d="m 58.618,402.306 0.249,-281.318 182.808,0.163 -0.25,281.317 z"
         transform="translate(-108.0825,-356.95511)"
         id="path52" />
    </clipPath>
    <clipPath
       clipPathUnits="userSpaceOnUse"
       id="clipPath54">
      <path
         d="m 58.618,402.306 0.249,-281.318 182.808,0.163 -0.25,281.317 z"
         transform="translate(-42.643101,-308.41601)"
         id="path54" />
    </clipPath>
    <clipPath
       clipPathUnits="userSpaceOnUse"
       id="clipPath56">
      <path
         d="m 58.618,402.306 0.249,-281.318 182.808,0.163 -0.25,281.317 z"
         transform="translate(-240.38041,-273.38091)"
         id="path56" />
    </clipPath>
    <clipPath
       clipPathUnits="userSpaceOnUse"
       id="clipPath58">
      <path
         d="m 58.618,402.306 0.249,-281.318 182.808,0.163 -0.25,281.317 z"
         transform="translate(-207.45951,-103.87211)"
         id="path58" />
    </clipPath>
    <clipPath
       clipPathUnits="userSpaceOnUse"
       id="clipPath60">
      <path
         d="m 58.618,402.306 0.249,-281.318 182.808,0.163 -0.25,281.317 z"
         transform="translate(-201.5347,-295.07421)"
         id="path60" />
    </clipPath>
    <clipPath
       clipPathUnits="userSpaceOnUse"
       id="clipPath62">
      <path
         d="m 58.618,402.306 0.249,-281.318 182.808,0.163 -0.25,281.317 z"
         transform="translate(-232.5493,-322.69821)"
         id="path62" />
    </clipPath>
    <clipPath
       clipPathUnits="userSpaceOnUse"
       id="clipPath64">
      <path
         d="m 58.618,402.306 0.249,-281.318 182.808,0.163 -0.25,281.317 z"
         transform="translate(-201.5347,-295.3608)"
         id="path64" />
    </clipPath>
    <clipPath
       clipPathUnits="userSpaceOnUse"
       id="clipPath66">
      <path
         d="m 58.618,402.306 0.249,-281.318 182.808,0.163 -0.25,281.317 z"
         transform="translate(-226.99221,-338.88721)"
         id="path66" />
    </clipPath>
    <clipPath
       clipPathUnits="userSpaceOnUse"
       id="clipPath68">
      <path
         d="m 58.618,402.306 0.249,-281.318 182.808,0.163 -0.25,281.317 z"
         transform="translate(-201.34231,-296.6523)"
         id="path68" />
    </clipPath>
    <clipPath
       clipPathUnits="userSpaceOnUse"
       id="clipPath70">
      <path
         d="m 58.618,402.306 0.249,-281.318 182.808,0.163 -0.25,281.317 z"
         transform="translate(-201.0415,-296.95121)"
         id="path70" />
    </clipPath>
    <clipPath
       clipPathUnits="userSpaceOnUse"
       id="clipPath72">
      <path
         d="m 58.618,402.306 0.249,-281.318 182.808,0.163 -0.25,281.317 z"
         transform="translate(-172.4673,-348.51861)"
         id="path72" />
    </clipPath>
    <clipPath
       clipPathUnits="userSpaceOnUse"
       id="clipPath74">
      <path
         d="m 58.618,402.306 0.249,-281.318 182.808,0.163 -0.25,281.317 z"
         transform="translate(-201.18901,-296.4375)"
         id="path74" />
    </clipPath>
    <clipPath
       clipPathUnits="userSpaceOnUse"
       id="clipPath76">
      <path
         d="m 58.618,402.306 0.249,-281.318 182.808,0.163 -0.25,281.317 z"
         transform="translate(-166.8936,-319.23581)"
         id="path76" />
    </clipPath>
    <clipPath
       clipPathUnits="userSpaceOnUse"
       id="clipPath78">
      <path
         d="m 58.618,402.306 0.249,-281.318 182.808,0.163 -0.25,281.317 z"
         transform="translate(-229.62841,-341.21391)"
         id="path78" />
    </clipPath>
    <clipPath
       clipPathUnits="userSpaceOnUse"
       id="clipPath80">
      <path
         d="m 58.618,402.306 0.249,-281.318 182.808,0.163 -0.25,281.317 z"
         transform="translate(-247.144,-165.15041)"
         id="path80" />
    </clipPath>
  </defs>
  <g
     inkscape:label="Camada 1"
     inkscape:groupmode="layer"
     id="layer1"
     transform="translate(-72.760417,-98.954117)">
    <path
       id="path32"
       d="m 72.760417,99.011317 0.08784,99.242733 64.490603,-0.0572 -0.0882,-99.242733 z"
       style="fill:#e9c392;fill-opacity:1;fill-rule:nonzero;stroke:none;stroke-width:0.352778" />
    <path
       id="path33"
       d="m 0,0 c 0,0.134 -0.004,0.265 -0.022,0.387 0.515,0.682 0.552,1.706 -0.409,2.125 -0.008,0.004 -0.016,0.007 -0.025,0.01 -0.315,0.747 -1.081,0.947 -1.743,0.75 -0.15,0.066 -0.301,0.129 -0.451,0.194 -0.117,0.235 -0.312,0.447 -0.611,0.606 -0.893,0.477 -1.792,0.921 -2.698,1.339 -3.724,1.803 -7.549,3.314 -11.505,4.548 -0.17,0.198 -0.401,0.36 -0.714,0.452 -2.799,0.824 -5.598,1.648 -8.398,2.472 -0.166,0.298 -0.445,0.55 -0.864,0.685 -12.631,4.074 -25.278,-2.304 -38.078,-1.133 -1.277,0.095 -1.692,-1.164 -1.283,-2.083 -0.388,-0.007 -0.777,-0.005 -1.166,-0.014 -1.928,-0.042 -1.936,-2.998 0,-3 2.945,-0.002 5.89,-0.004 8.835,-0.006 l 0.063,-0.072 c 0,0 0.001,-10e-4 0.002,-10e-4 -0.55,-0.78 -0.371,-2.187 0.759,-2.436 4.278,-0.943 8.575,-1.757 12.889,-2.453 3.159,-0.995 6.338,-1.919 9.527,-2.807 0.008,-0.005 0.017,-0.01 0.024,-0.015 0.103,-0.459 0.423,-0.87 1.02,-1.051 4.528,-1.37 9.1,-2.229 13.808,-2.643 0.533,-0.047 0.92,0.203 1.165,0.565 0.325,-0.009 0.65,-0.018 0.975,-0.023 l -0.204,-0.036 c -1.648,-0.289 -1.288,-3.115 0.398,-2.946 4.919,0.492 11.081,0.094 15.755,1.725 2.192,0.765 3.734,2.263 3.051,4.612 C 0.074,-0.161 0.039,-0.079 0,0"
       style="fill:#7facaa;fill-opacity:1;fill-rule:nonzero;stroke:none"
       transform="matrix(0.35277776,0,0,-0.35277776,114.64872,101.85548)"
       clip-path="url(#clipPath34)" />
    <path
       id="path35"
       d="m 0,0 c -8.958,-0.169 -18.708,-1.564 -24.891,-8.05 -5.326,-5.587 -6.808,-13.702 -8.051,-21.321 -1.93,-11.821 -3.859,-23.642 -5.789,-35.462 -0.857,-5.251 -1.806,-10.726 -4.982,-14.994 -3.314,-4.452 -8.596,-6.961 -13.808,-8.87 -4.646,-1.702 -9.466,-3.077 -14.407,-3.339 -16.173,-0.86 -31.023,10.602 -38.814,24.8 -7.792,14.198 -9.857,30.749 -11.347,46.876 -1.801,19.477 -2.341,41.114 10.072,56.232"
       style="fill:#7facaa;fill-opacity:1;fill-rule:nonzero;stroke:none"
       transform="matrix(0.35277776,0,0,-0.35277776,111.49062,103.86346)"
       clip-path="url(#clipPath36)" />
    <path
       id="path37"
       d="m 0,0 c -45.648,0.977 -91.296,1.952 -136.944,2.929 -1.449,0.03 -1.448,-2.22 0,-2.25 C -91.296,-0.298 -45.648,-1.273 0,-2.25 1.449,-2.28 1.448,-0.03 0,0"
       style="fill:#ffffff;fill-opacity:1;fill-rule:nonzero;stroke:none"
       transform="matrix(0.35277776,0,0,-0.35277776,139.09202,185.79902)"
       clip-path="url(#clipPath38)" />
    <path
       id="path39"
       d="m 0,0 c 4.218,0.113 24.418,-1.796 18.056,8.454 -2.401,3.867 -8.814,5.795 -12.705,7.417 -6.037,2.517 -12.275,4.398 -18.664,5.783 -1.412,0.306 -2.015,-1.862 -0.598,-2.169 C -6,17.769 1.703,15.28 9.02,11.792 10.469,11.102 12.011,10.412 13.383,9.57 16.665,7.557 16.711,2.857 12.583,2.588 8.408,2.315 4.181,2.362 0,2.25 -1.445,2.211 -1.451,-0.039 0,0"
       style="fill:#7facaa;fill-opacity:1;fill-rule:nonzero;stroke:none"
       transform="matrix(0.35277776,0,0,-0.35277776,108.90818,104.22671)"
       clip-path="url(#clipPath40)" />
    <path
       id="path41"
       d="m 0,0 c 12.778,14.848 22.881,31.991 29.68,50.363 2.936,7.936 5.653,16.654 12.489,21.641 1.721,1.255 3.793,2.248 5.91,2.012 3.577,-0.4 5.812,-3.964 7.443,-7.172 11.971,-23.531 20.624,-48.746 25.624,-74.669 0.299,-1.552 0.56,-3.269 -0.253,-4.624 -1.113,-1.856 -3.635,-2.149 -5.797,-2.239 -17.162,-0.721 -34.325,-1.441 -51.487,-2.162 -9.524,-0.399 -20.003,-0.498 -27.367,5.554 -0.801,6.819 2.998,13.945 9.106,17.081"
       style="fill:#7facaa;fill-opacity:1;fill-rule:nonzero;stroke:none"
       transform="matrix(0.35277776,0,0,-0.35277776,70.187186,200.59396)"
       clip-path="url(#clipPath42)" />
    <path
       id="path43"
       d="m 0,0 c 1.554,2.37 1.247,5.615 -0.159,8.076 -1.406,2.46 -3.737,4.254 -6.164,5.719 -2.246,1.355 -4.679,2.505 -7.284,2.82 -2.604,0.315 -5.414,-0.301 -7.328,-2.096 -2.4,-2.253 -2.963,-5.977 -2.14,-9.165 0.823,-3.188 2.818,-5.938 4.944,-8.452 1.906,-2.254 4.033,-4.445 6.744,-5.614 2.71,-1.169 6.136,-1.102 8.341,0.859 1.347,1.2 2.085,2.932 2.642,4.647 0.885,2.723 1.424,5.557 1.598,8.414"
       style="fill:#ffffff;fill-opacity:1;fill-rule:nonzero;stroke:none"
       transform="matrix(0.35277776,0,0,-0.35277776,90.491734,185.61092)"
       clip-path="url(#clipPath44)" />
    <path
       id="path45"
       d="m 0,0 c -1.743,15.042 -5.255,35.464 -19.491,43.872 -5.948,3.513 -11.517,-1.521 -11.895,-6.804 -7.843,-10.219 -12.358,-22.635 -13.953,-35.441 -2.722,-11.633 -1.49,-24.056 2.526,-35.483 1.606,-4.574 3.568,-9.055 5.744,-13.385 1.701,-3.385 3.328,-7.242 6.2,-9.789 8.286,-7.348 16.747,1.783 21.058,8.585 C -0.792,-34.216 1.916,-16.536 0,0"
       style="fill:#e5e0d4;fill-opacity:1;fill-rule:nonzero;stroke:none"
       transform="matrix(0.35277776,0,0,-0.35277776,93.929589,106.9945)"
       clip-path="url(#clipPath46)" />
    <path
       id="path47"
       d="m 0,0 c -10.297,-12.74 -13.535,-31.553 -12.2,-47.497 1.324,-15.813 7.349,-32.036 18.15,-43.871 4.62,-5.063 10.652,-0.215 14.971,3.315 6.031,4.93 10.435,11.861 12.215,19.453 1.047,4.467 1.158,9.083 1.282,13.646 0.169,6.202 0.625,12.389 0.789,18.589 0.234,8.803 -0.463,17.839 -4.632,25.768 -3.596,6.841 -9.742,12.423 -17.636,13.355 -7.085,0.836 -14.2,-1.926 -17.873,-8.192 -0.733,-1.252 1.211,-2.385 1.943,-1.135 3.654,6.233 11.306,8.405 18.113,6.648 7.034,-1.817 11.957,-7.872 14.662,-14.328 3.194,-7.623 3.424,-15.934 3.107,-24.081 -0.336,-8.606 -0.17,-17.516 -1.315,-26.046 -0.973,-7.247 -4.028,-13.883 -9.106,-19.187 -2.396,-2.504 -5.182,-4.633 -8.229,-6.284 -5.18,-2.805 -7.923,1.246 -10.669,5.064 -7.816,10.863 -12.408,23.977 -13.522,37.286 -1.281,15.301 1.633,33.648 11.541,45.906 C 2.493,-0.475 0.911,1.126 0,0"
       style="fill:#ffffff;fill-opacity:1;fill-rule:nonzero;stroke:none"
       transform="matrix(0.35277776,0,0,-0.35277776,80.651173,94.937369)"
       clip-path="url(#clipPath48)" />
    <path
       id="path49"
       d="m 0,0 c -5.848,-0.76 -12.544,-1.719 -16.833,-6.211 -4.322,-4.526 -4.249,-11.149 -2.733,-16.848 3.562,-13.385 17.17,-23.939 30.962,-17.503 11.299,5.272 19.261,20.162 10.671,31.137 -8.201,10.478 -23.76,12.451 -34.973,5.959 -1.253,-0.725 -0.121,-2.671 1.135,-1.943 8.58,4.967 19.62,4.626 27.732,-1.228 11.543,-8.33 8.227,-23.211 -2.737,-30.339 -11.992,-7.796 -25.532,-0.163 -29.92,12.269 -2.071,5.868 -2.773,13.107 2.315,17.648 3.82,3.411 9.491,4.173 14.381,4.809 1.416,0.184 1.434,2.437 0,2.25"
       style="fill:#ffffff;fill-opacity:1;fill-rule:nonzero;stroke:none"
       transform="matrix(0.35277776,0,0,-0.35277776,83.323502,104.99637)"
       clip-path="url(#clipPath50)" />
    <path
       id="path51"
       d="m 0,0 c 2.591,3.401 2.08,8.059 -0.265,11.59 -2.345,3.531 -6.235,6.105 -10.282,8.207 -3.746,1.946 -7.805,3.596 -12.149,4.047 -4.345,0.452 -9.032,-0.432 -12.222,-3.008 -4.005,-3.234 -4.944,-8.577 -3.571,-13.151 1.372,-4.576 4.699,-8.523 8.246,-12.13 3.18,-3.234 6.727,-6.379 11.248,-8.056 4.521,-1.678 10.236,-1.583 13.914,1.233 2.247,1.721 3.477,4.207 4.407,6.668 1.476,3.907 2.374,7.975 2.666,12.075"
       style="fill:#ffffff;fill-opacity:1;fill-rule:nonzero;stroke:none"
       transform="matrix(0.35277776,0,0,-0.35277776,90.210429,115.01021)"
       clip-path="url(#clipPath52)" />
    <path
       id="path53"
       d="m 0,0 c 12.064,-29.105 43.91,-39.75 73.105,-41.054 18.284,-0.816 36.521,1.329 54.788,1.667 19.254,0.356 38.58,-0.821 57.821,-1.443 1.931,-0.062 1.929,2.938 0,3 -17.358,0.561 -34.746,1.462 -52.114,1.491 -17.228,0.028 -34.389,-1.88 -51.614,-1.896 C 51.762,-38.264 15.748,-30.215 2.893,0.797 2.164,2.556 -0.74,1.785 0,0"
       style="fill:#e5e0d4;fill-opacity:1;fill-rule:nonzero;stroke:none"
       transform="matrix(0.35277776,0,0,-0.35277776,67.124863,132.13373)"
       clip-path="url(#clipPath54)" />
    <path
       id="path55"
       d="m 0,0 c -4.245,-0.334 -8.489,-0.667 -12.733,-1.001 -5.28,-0.416 -11.201,-1.161 -14.447,-5.345 -1.975,-2.546 -2.532,-5.895 -2.829,-9.103 -0.328,-3.551 -0.415,-7.123 -0.262,-10.685 0.096,-2.2 0.31,-4.485 1.436,-6.378 2.023,-3.398 6.309,-4.566 10.189,-5.337 4.269,-0.848 8.625,-1.577 12.958,-1.153 4.332,0.424 8.693,2.127 11.521,5.437 1.967,2.302 3.07,5.212 3.921,8.12 1.048,3.578 1.773,7.251 2.162,10.959 0.292,2.791 0.387,5.666 -0.434,8.35 C 10.661,-3.453 8.784,-0.965 6.14,-0.027 2.438,1.285 -1.553,-0.644 -5.004,-2.52"
       style="fill:#e5e0d4;fill-opacity:1;fill-rule:nonzero;stroke:none"
       transform="matrix(0.35277776,0,0,-0.35277776,136.88219,144.49333)"
       clip-path="url(#clipPath56)" />
    <path
       id="path57"
       d="m 0,0 c -0.514,64.031 -2.302,128.061 -5.856,191.998 -0.08,1.439 -2.331,1.449 -2.25,0 C -4.552,128.061 -2.764,64.031 -2.25,0 -2.238,-1.446 0.012,-1.45 0,0"
       style="fill:#ffffff;fill-opacity:1;fill-rule:nonzero;stroke:none"
       transform="matrix(0.35277776,0,0,-0.35277776,125.26843,204.29227)"
       clip-path="url(#clipPath58)" />
    <path
       id="path59"
       d="m 0,0 c 9.713,8.561 21.029,14.872 31.716,22.085 1.194,0.807 0.069,2.756 -1.135,1.943 C 19.731,16.706 8.268,10.281 -1.591,1.591 -2.679,0.631 -1.083,-0.955 0,0"
       style="fill:#ffffff;fill-opacity:1;fill-rule:nonzero;stroke:none"
       transform="matrix(0.35277776,0,0,-0.35277776,123.17829,136.84042)"
       clip-path="url(#clipPath60)" />
    <path
       id="path61"
       d="m 0,0 c -2.089,-0.138 -2.979,-2.295 -2.385,-4.146 0.848,-2.643 3.937,-2.714 6.188,-2.126 0.596,0.155 1.444,0.279 1.793,0.849 0.247,0.401 0.281,1.022 0.254,1.479 -0.06,1.021 -0.588,1.967 -1.321,2.662 -1.583,1.501 -3.959,1.812 -5.672,0.386 -0.972,-0.81 0.319,-2.507 1.363,-1.768 0.649,0.459 1.917,-0.719 1.361,-1.261 -0.557,-0.544 -1.706,0.737 -1.242,1.382 -0.699,0.189 -1.398,0.379 -2.096,0.568 -0.247,-2.68 3.149,-4.632 5.352,-3.111 0.303,0.209 0.603,0.568 0.557,0.971 C 4.017,-2.934 3.481,-1.97 2.407,-1.396 1.723,-1.031 1.012,-1.376 0.754,-2.069 0.23,-3.476 0.722,-5.222 2.101,-5.932 3.427,-6.616 5.156,-5.814 5.611,-4.413 6.047,-3.07 5.11,-1.681 3.669,-1.717 2.351,-1.75 1.034,-3.023 1.569,-4.382 1.917,-5.265 3.08,-5.526 3.626,-4.651 5.103,-2.284 1.245,0.098 -0.327,-2.202 -1.146,-3.401 0.803,-4.527 1.616,-3.338 1.233,-3.898 1.46,-3.187 1.586,-3.543 1.664,-3.764 1.68,-3.521 1.683,-3.516 2.368,-3.605 3.054,-3.695 3.739,-3.784 3.537,-4.046 3.512,-4.113 3.664,-3.985 3.877,-3.957 3.819,-3.88 3.489,-3.754 3.374,-3.748 3.334,-4.002 3.19,-3.941 2.679,-3.724 2.756,-3.116 2.924,-2.667 2.373,-2.891 1.822,-3.115 1.271,-3.339 1.597,-3.513 1.857,-3.72 1.902,-4.115 c 0.186,0.323 0.371,0.647 0.557,0.971 -0.865,-0.597 -2.061,0.138 -1.966,1.169 0.112,1.223 -1.517,1.374 -2.097,0.568 -1.949,-2.712 2.382,-6.495 4.776,-4.11 2.393,2.387 -1.36,6.726 -4.087,4.796 0.454,-0.589 0.909,-1.177 1.363,-1.766 1.234,1.027 3.477,-0.603 3.092,-2.069 0.262,0.262 0.524,0.523 0.786,0.785 C 3.2,-4.128 1.055,-4.942 0.029,-3.934 -0.239,-3.671 -0.63,-2.292 0,-2.25 1.437,-2.155 1.448,0.096 0,0"
       style="fill:#ffffff;fill-opacity:1;fill-rule:nonzero;stroke:none"
       transform="matrix(0.35277776,0,0,-0.35277776,134.11955,127.09528)"
       clip-path="url(#clipPath62)" />
    <path
       id="path63"
       d="m 0,0 c -0.573,0.609 2.129,6.727 2.389,7.231 2.179,4.214 5.048,8.22 7.718,12.133 5.693,8.344 11.973,16.248 18.721,23.762 0.964,1.075 -0.621,2.671 -1.592,1.591 C 19.159,35.722 11.753,26.157 5.178,16.008 2.854,12.421 -0.122,8.639 -1.206,4.493 -1.589,3.029 -2.828,-0.274 -1.591,-1.591 -0.598,-2.649 0.991,-1.056 0,0"
       style="fill:#ffffff;fill-opacity:1;fill-rule:nonzero;stroke:none"
       transform="matrix(0.35277776,0,0,-0.35277776,123.17829,136.73931)"
       clip-path="url(#clipPath64)" />
    <path
       id="path65"
       d="m 0,0 c -1.051,-2.558 0.935,-5.841 3.756,-5.93 2.953,-0.092 5.316,3.285 4.069,6.003 -1.112,2.426 -4.636,3.269 -6.679,1.506 -2.364,-2.042 -1.488,-6.244 1.885,-6.368 2.955,-0.108 4.489,3.233 2.69,5.505 -1.923,2.43 -6.037,0.8 -5.974,-2.255 0.053,-2.633 3.466,-4.016 5.54,-2.652 1.15,0.756 1.727,2.421 1.049,3.67 C 5.677,0.693 4.05,0.928 3.038,-0.005 0.643,-2.212 5.223,-5.284 6.828,-2.547 8.464,0.243 3.074,1.934 2.49,-1.157 2.368,-1.806 2.669,-2.302 3.276,-2.542 4.144,-2.885 4.961,-2.622 5.643,-2.04 5.053,-1.585 4.464,-1.131 3.875,-0.677 L 3.438,-1.397 C 2.684,-2.638 4.628,-3.77 5.38,-2.533 l 0.438,0.721 C 6.513,-0.669 4.986,0.35 4.051,-0.449 L 3.874,-0.372 C 4.136,-0.833 4.398,-1.294 4.66,-1.755 4.687,-1.608 4.932,-1.956 4.846,-1.502 4.816,-1.346 5.021,-1.316 4.73,-1.37 4.769,-1.363 4.459,-1.631 4.378,-1.777 4.101,-2.271 3.936,-2.515 3.309,-2.485 2.912,-2.466 2.356,-2.264 2.139,-1.905 1.472,-0.796 3.435,0.344 4.097,-0.877 4.692,-1.972 3.494,-3.069 2.454,-2.339 1.186,-1.45 2.566,0.229 3.727,0.27 4.837,0.309 5.998,-0.458 5.915,-1.66 5.831,-2.857 4.562,-4.015 3.353,-3.576 2.143,-3.136 1.714,-1.707 2.169,-0.598 2.719,0.74 0.543,1.323 0,0"
       style="fill:#ffffff;fill-opacity:1;fill-rule:nonzero;stroke:none"
       transform="matrix(0.35277776,0,0,-0.35277776,132.15913,121.38417)"
       clip-path="url(#clipPath66)" />
    <path
       id="path67"
       d="m 0,0 c 0.118,4.805 -0.462,8.988 0.365,13.826 0.94,5.494 2.114,10.945 3.409,16.366 2.458,10.283 5.322,20.464 7.71,30.765 h -2.17 c 1.442,-7.05 11.128,-1.973 7.082,3.132 -4.32,5.453 -11.804,-3.533 -5.654,-6.012 2.402,-0.969 7.156,0.662 6.925,3.83 -0.206,2.809 -4.524,3.976 -6.813,3.324 C 8.431,64.542 7.708,62.005 9.23,60.06 c 2.254,-2.882 5.795,-0.978 7.919,0.932 0.412,0.371 0.463,1.231 0,1.591 -1.934,1.503 -5.074,2.533 -5.753,-0.74 -0.101,-0.486 0.064,-1.016 0.517,-1.271 1.443,-0.813 2.385,-0.819 3.807,0.042 0.615,0.373 0.75,1.251 0.228,1.767 -1.13,1.117 -2.019,1.358 -3.549,0.905 -1.385,-0.41 -0.795,-2.582 0.599,-2.169 0.453,-0.109 0.906,-0.218 1.359,-0.326 0.076,0.588 0.152,1.177 0.227,1.766 0.325,-0.521 0.649,-1.043 0.974,-1.565 v 1.591 c -1.594,0.715 -2.952,0.372 -4.074,-1.028 -0.222,1.089 -1.924,1.056 -2.17,0 C 6.789,50.661 3.728,39.901 1.184,29.012 -0.09,23.558 -1.227,18.071 -2.118,12.541 -2.813,8.223 -2.144,4.322 -2.25,0 -2.285,-1.449 -0.035,-1.448 0,0"
       style="fill:#ffffff;fill-opacity:1;fill-rule:nonzero;stroke:none"
       transform="matrix(0.35277776,0,0,-0.35277776,123.11041,136.2837)"
       clip-path="url(#clipPath68)" />
    <path
       id="path69"
       d="m 0,0 c -4.277,17.137 -13.437,32.811 -20.694,48.797 -0.598,1.317 -2.538,0.175 -1.943,-1.135 C -15.457,31.845 -6.399,16.348 -2.17,-0.598 -1.819,-2.002 0.351,-1.407 0,0"
       style="fill:#ffffff;fill-opacity:1;fill-rule:nonzero;stroke:none"
       transform="matrix(0.35277776,0,0,-0.35277776,123.0043,136.17825)"
       clip-path="url(#clipPath70)" />
    <path
       id="path71"
       d="M 0,0 C 0.071,-0.423 0.142,-0.846 0.213,-1.269 0.277,-1.649 0.651,-1.951 0.999,-2.054 3.488,-2.796 7.581,-3.041 8.025,0.478 8.375,3.254 4.649,4.868 2.344,4.58 -0.056,4.28 -0.923,1.712 -0.22,-0.371 0.742,-3.216 4.059,-3.742 6.646,-4.009 7.134,-4.06 7.604,-3.624 7.73,-3.184 8.621,-0.092 7.749,4.096 3.958,4.565 1.087,4.921 -0.763,2.175 -0.227,-0.479 0.395,-3.561 3.799,-4.627 6.499,-3.553 7.693,-3.078 9.054,-2.117 9.45,-0.822 9.961,0.848 8.562,1.918 7.321,2.689 4.792,4.261 0.198,5.266 -1.021,1.456 -2.024,-1.682 1.883,-4.05 4.514,-2.607 6.773,-1.368 7.797,2.443 4.821,3.536 1.966,4.584 -0.544,1.467 1.181,-1.084 3.108,-3.934 7.799,-1.455 6.541,1.718 6,3.08 4.276,3.965 3.013,2.943 1.841,1.995 2.035,0.386 3.169,-0.453 4.26,-1.259 5.303,0.407 4.532,1.314 L 3.256,0.543 c 0.4,-1.388 2.572,-0.798 2.17,0.599 C 4.702,3.654 1.167,1.812 2.941,-0.277 3.396,0.312 3.85,0.901 4.305,1.49 5.204,0.825 3.276,-1.244 2.881,0.512 2.621,1.667 4.129,1.742 4.44,1 5.029,-0.41 2.554,-1.115 1.663,-0.483 0.536,0.317 1.349,1.493 2.364,1.837 3.025,2.062 3.735,1.906 4.374,1.687 5.441,1.321 8.115,0.221 6.542,-0.97 4.777,-2.306 1.138,-1.724 2.02,1.157 2.446,2.548 3.872,2.64 4.892,1.748 6.153,0.645 5.979,-1.133 5.561,-2.585 5.922,-2.31 6.284,-2.035 6.646,-1.759 5.015,-1.59 0.933,-1.008 1.831,1.618 2.25,2.842 4.34,2.343 5.136,1.66 5.934,0.973 5.685,0 4.677,-0.31 3.691,-0.613 2.537,-0.165 1.597,0.115 L 2.383,-0.67 C 2.312,-0.248 2.241,0.175 2.169,0.598 1.93,2.023 -0.238,1.419 0,0"
       style="fill:#ffffff;fill-opacity:1;fill-rule:nonzero;stroke:none"
       transform="matrix(0.35277776,0,0,-0.35277776,112.92396,117.98642)"
       clip-path="url(#clipPath72)" />
    <path
       id="path73"
       d="m 0,0 c -2.291,4.292 -8.826,6.559 -12.828,8.985 -6.174,3.744 -12.348,7.487 -18.522,11.231 -1.241,0.753 -2.373,-1.192 -1.135,-1.943 5.051,-3.063 10.103,-6.126 15.154,-9.189 L -10.596,5 C -8.064,3.465 -3.406,1.606 -1.943,-1.136 -1.261,-2.414 0.682,-1.278 0,0"
       style="fill:#ffffff;fill-opacity:1;fill-rule:nonzero;stroke:none"
       transform="matrix(0.35277776,0,0,-0.35277776,123.05633,136.35948)"
       clip-path="url(#clipPath74)" />
    <path
       id="path75"
       d="m 0,0 c -1.461,0.556 -3.07,-0.568 -3.302,-2.065 -0.259,-1.663 1.132,-3.081 2.649,-3.484 1.496,-0.397 3.951,-0.169 5.227,0.776 1.218,0.902 1.35,2.483 0.853,3.821 -1.046,2.817 -4.875,4.931 -7.35,2.502 -2.168,-2.126 -1.425,-6.017 1.848,-6.341 2.773,-0.273 5.38,2.508 3.673,5.14 -1.536,2.369 -5.713,2.531 -6.335,-0.657 -0.527,-2.699 2.425,-5.556 4.982,-3.861 2.618,1.735 1.399,6.276 -1.979,5.409 -1.405,-0.361 -2.493,-1.744 -1.981,-3.213 0.467,-1.341 2.169,-1.892 3.436,-1.446 1.466,0.516 2.066,2.727 0.546,3.575 -1.626,0.906 -3.015,-1.559 -1.435,-2.513 0.318,-0.193 0.821,-0.226 1.135,0 2.036,1.464 0.222,4.783 -2.121,3.824 -1.114,-0.456 -1.72,-1.665 -1.692,-2.831 0.034,-1.491 1.101,-2.63 2.127,-3.587 1.058,-0.987 2.652,0.6 1.591,1.591 -0.53,0.495 -1.31,1.093 -1.449,1.851 -0.095,0.519 0.208,0.95 0.409,1.094 H 1.967 C 1.92,-0.386 1.872,-0.357 1.825,-0.328 L 2.342,-1 C 2.19,-1.284 2.04,-1.567 1.888,-1.851 1.599,-1.813 1.311,-1.775 1.021,-1.737 1.115,-1.475 1.084,-1.334 0.928,-1.316 0.84,-1.333 0.752,-1.333 0.664,-1.317 0.629,-1.278 0.395,-1.2 0.401,-1.256 0.365,-0.902 1.18,-0.846 1.359,-1 c 0.692,-0.593 -0.69,-2.042 -1.538,-0.985 -0.713,0.889 -0.315,2.24 0.963,1.814 1.054,-0.352 1.579,-1.605 0.415,-2.198 -0.951,-0.483 -2.317,-0.078 -2.154,1.168 0.219,1.669 1.871,1.858 3.053,1.032 0.768,-0.537 2.192,-2.398 0.778,-2.968 -0.794,-0.321 -2.122,-0.466 -2.931,-0.242 -0.301,0.083 -0.729,0.27 -0.894,0.561 -0.197,0.345 -0.128,0.831 0.351,0.648 C 0.756,-2.686 1.342,-0.511 0,0"
       style="fill:#ffffff;fill-opacity:1;fill-rule:nonzero;stroke:none"
       transform="matrix(0.35277776,0,0,-0.35277776,110.95768,128.31674)"
       clip-path="url(#clipPath76)" />
    <path
       id="path77"
       d="m 0,0 c -2.07,-0.484 -3.299,-2.637 -2.771,-4.67 0.092,-0.355 0.414,-0.716 0.786,-0.787 2,-0.38 4.016,1.156 4.057,3.254 0.024,1.198 -0.57,2.1 -1.822,2.157 -1.029,0.047 -2.022,-0.457 -2.67,-1.237 -1.481,-1.778 -0.501,-4.364 1.54,-5.181 2.188,-0.877 4.499,0.725 4.999,2.9 0.146,0.634 -0.196,1.16 -0.786,1.383 -1.56,0.591 -3.443,1.056 -4.847,-0.148 -1.067,-0.916 -1.499,-2.522 -0.546,-3.678 0.856,-1.039 2.445,-1.11 3.537,-0.412 1.334,0.852 1.55,2.573 1.242,3.993 C 2.61,-1.92 2.111,-1.632 1.634,-1.6 -1.082,-1.415 -1.625,-5.38 1.038,-5.944 2.451,-6.243 3.054,-4.075 1.636,-3.774 1.355,-3.715 1.477,-3.839 1.634,-3.85 1.273,-3.574 0.911,-3.299 0.549,-3.024 0.646,-3.466 0.711,-4.187 0.291,-4.506 0.153,-4.61 -0.258,-4.75 -0.346,-4.531 c -0.183,0.458 0.773,0.709 1.014,0.722 0.694,0.038 1.432,-0.3 2.067,-0.541 -0.262,0.461 -0.524,0.922 -0.786,1.384 -0.241,-1.051 -1.404,-2.048 -2.411,-1.157 -0.855,0.756 -0.219,2.098 0.903,1.757 l -0.672,0.517 c 0.287,-0.632 -0.493,-1.564 -1.156,-1.438 0.262,-0.262 0.523,-0.524 0.785,-0.785 -0.231,0.887 0.329,1.698 1.2,1.903 C 2.007,-1.84 1.411,0.33 0,0"
       style="fill:#ffffff;fill-opacity:1;fill-rule:nonzero;stroke:none"
       transform="matrix(0.35277776,0,0,-0.35277776,133.08912,120.56336)"
       clip-path="url(#clipPath78)" />
    <path
       id="path79"
       d="m 0,0 c -2.306,6.955 -11.713,10.403 -17.967,6.586 -1.509,-0.921 -3.047,-2.229 -4.793,-1.955 -2.714,0.426 -3.369,4.05 -5.358,5.945 -2.621,2.5 -6.868,1.498 -10.299,0.338 -16.031,-5.42 -32.316,-10.967 -46.126,-20.746 7.091,-2.307 14.697,-2.309 22.154,-2.289 19.581,0.051 39.162,0.101 58.743,0.153 1.958,0.005 4.002,0.03 5.738,0.934 4.065,2.116 3.88,9.158 -0.29,11.056 -1.433,0.654 -3.517,1.355 -3.213,2.9"
       style="fill:#7facaa;fill-opacity:1;fill-rule:evenodd;stroke:none"
       transform="matrix(0.35277776,0,0,-0.35277776,139.26823,182.67465)"
       clip-path="url(#clipPath80)" />
  </g>
</svg>
