<?xml version="1.0" encoding="UTF-8"?>
<!-- Created with Inkscape (http://www.inkscape.org/) -->
<svg width="88.813mm" height="91.705mm" version="1.1" viewBox="0 0 88.813 91.705" xmlns="http://www.w3.org/2000/svg">
 <g transform="translate(-4.4979 -51.065)">
  <path d="m73.399 80.599c0.2794-1.4922 0.4325-3.0339 0.4325-4.6073 0-13.765-11.16-24.927-24.927-24.927-13.766 0-24.927 11.162-24.927 24.927 0 1.5734 0.15275 3.115 0.43215 4.6073-11.363 2.3213-19.912 12.372-19.912 24.423 0 13.765 11.16 24.927 24.927 24.927 5.8346 0 11.196-2.0108 15.444-5.3693-1.0428 8.0821-3.641 13.01-5.5555 15.663-0.762 1.0548-6e-3 2.5259 1.2958 2.5259h16.591c1.3003 0 2.0581-1.4676 1.2979-2.5224-1.9145-2.66-4.5216-7.6024-5.5686-15.677 4.2489 3.3655 9.6153 5.3799 15.455 5.3799 13.767 0 24.927-11.162 24.927-24.927 0-12.051-8.5485-22.102-19.912-24.423" fill="#040606"/>
 </g>
</svg>
