<?xml version="1.0" encoding="UTF-8"?>
<!-- Created with Inkscape (http://www.inkscape.org/) -->
<svg width="88.161mm" height="77.41mm" version="1.1" viewBox="0 0 88.161 77.41" xmlns="http://www.w3.org/2000/svg">
 <g transform="translate(-60.854 -109.8)">
  <path d="m117.4 111.53c-6.041 2.6247-10.575 8.1668-12.468 14.45-1.893-6.283-6.4269-11.825-12.468-14.45-9.2643-4.0322-21.126-0.80433-27.069 7.3695-5.7813 7.9516-5.6748 19.103-1.7787 28.127 3.8922 9.0311 11.043 16.252 18.643 22.49 7.075 5.8067 14.692 10.975 21.395 17.191 0.72002 0.66675 1.8348 0.66675 2.5548 0 6.7028-6.216 14.32-11.384 21.395-17.191 7.5995-6.2371 14.746-13.458 18.643-22.49 3.8922-9.024 3.9984-20.175-1.7826-28.127-5.9429-8.1739-17.8-11.402-27.065-7.3695" fill="#d72146"/>
 </g>
</svg>
