<?xml version="1.0" encoding="UTF-8" standalone="no"?>
<svg
   height="24px"
   viewBox="0 -960 960 960"
   width="24px"
   fill="#1f1f1f"
   version="1.1"
   id="svg1"
   sodipodi:docname="playing_cards.svg"
   inkscape:version="1.3.2 (091e20e, 2023-11-25, custom)"
   xmlns:inkscape="http://www.inkscape.org/namespaces/inkscape"
   xmlns:sodipodi="http://sodipodi.sourceforge.net/DTD/sodipodi-0.dtd"
   xmlns="http://www.w3.org/2000/svg"
   xmlns:svg="http://www.w3.org/2000/svg">
  <defs
     id="defs1" />
  <sodipodi:namedview
     id="namedview1"
     pagecolor="#ffffff"
     bordercolor="#000000"
     borderopacity="0.25"
     inkscape:showpageshadow="2"
     inkscape:pageopacity="0.0"
     inkscape:pagecheckerboard="0"
     inkscape:deskcolor="#d1d1d1"
     inkscape:zoom="50.708333"
     inkscape:cx="11.99014"
     inkscape:cy="12"
     inkscape:window-width="2560"
     inkscape:window-height="1494"
     inkscape:window-x="-11"
     inkscape:window-y="-11"
     inkscape:window-maximized="1"
     inkscape:current-layer="svg1" />
  <g
     id="g1"
     transform="rotate(180,480,-499.92)">
    <path
       d="m 608,-368 46,-166 -142,-98 -46,166 z m -448,161 -33,-16 Q 96,-236 85,-267.5 74,-299 88,-330 l 72,-156 z m 160,87 q -33,0 -56.5,-24 -23.5,-24 -23.5,-57 v -239 l 107,294 q 3,7 5,13.5 2,6.5 7,12.5 z m 206,-5 q -31,11 -62,-3 -31,-14 -42,-45 L 245,-662 q -11,-31 3,-61.5 14,-30.5 45,-41.5 l 301,-110 q 31,-11 61.5,3 30.5,14 41.5,45 l 178,489 q 11,31 -3,61.5 -14,30.5 -45,41.5 z"
       id="path1" />
  </g>
</svg>
