<?xml version="1.0" encoding="UTF-8"?>
<!-- Created with Inkscape (http://www.inkscape.org/) -->
<svg width="88.162mm" height="90.232mm" version="1.1" viewBox="0 0 88.162 90.232" xmlns="http://www.w3.org/2000/svg">
 <g transform="translate(-60.854 -103.45)">
  <path d="m127.61 121.14c-7.0767-5.8067-14.693-10.975-21.396-17.187-0.71966-0.67028-1.8344-0.67028-2.5541 0-6.7028 6.2124-14.319 11.381-21.396 17.187-7.5988 6.2406-14.75 13.462-18.644 22.49-3.8947 9.0241-4.0005 20.175 1.7815 28.127 5.9408 8.1739 17.494 10.601 27.069 7.3695 3.9405-1.3264 6.664-2.9739 8.5372-4.5297-0.96308 8.6148-3.6795 13.811-5.6621 16.556-0.762 1.0583-0.0071 2.5294 1.2947 2.5294h16.591c1.2982 0 2.0567-1.4711 1.2982-2.5259-1.9897-2.7587-4.7237-7.9798-5.6832-16.616 1.8697 1.5381 4.5932 3.1926 8.5584 4.5861 9.532 3.3549 21.121 0.80434 27.065-7.3695 5.782-7.9516 5.6762-19.103 1.7815-28.127-3.8947-9.0276-11.042-16.249-18.641-22.49" fill="#040606"/>
 </g>
</svg>
