<?xml version='1.0' encoding='utf-8'?>
<svg xmlns="http://www.w3.org/2000/svg" enable-background="new 0 0 139 189" viewBox="0 0 139 189"> <defs> <linearGradient id="r" x1="72.737" x2="85.434" gradientUnits="userSpaceOnUse"> <stop offset="0"/> <stop stop-color="#4b4b4b" offset="1"/> </linearGradient> <linearGradient id="q" x1="72.754" x2="85.422" gradientUnits="userSpaceOnUse"> <stop stop-color="#0083cc" offset="0"/> <stop stop-color="#24a4cc" offset="1"/> </linearGradient> <linearGradient id="p" x1="84.349" x2="91.388" gradientUnits="userSpaceOnUse"> <stop stop-color="#ffd8c1" offset="0"/> <stop stop-color="#ffeded" offset="1"/> </linearGradient> <linearGradient id="o" x1="32.976" x2="104.58" gradientUnits="userSpaceOnUse"> <stop stop-color="#ffd8c1" offset="0"/> <stop stop-color="#ffeded" offset="1"/> </linearGradient> <linearGradient id="n" x1="68.775" x2="85.684" gradientUnits="userSpaceOnUse"> <stop stop-color="#0083cc" offset="0"/> <stop stop-color="#24a4cc" offset="1"/> </linearGradient> <linearGradient id="m" x1="35.206" x2="106.41" gradientUnits="userSpaceOnUse"> <stop stop-color="#ffd8c1" offset="0"/> <stop stop-color="#ffeded" offset="1"/> </linearGradient> <linearGradient id="l" x1="78.649" x2="88.895" gradientUnits="userSpaceOnUse"> <stop stop-color="#ffd8c1" offset="0"/> <stop stop-color="#ffeded" offset="1"/> </linearGradient> <linearGradient id="k" x1="83.191" x2="86.798" gradientUnits="userSpaceOnUse"> <stop stop-color="#ffd8c1" offset="0"/> <stop stop-color="#ffeded" offset="1"/> </linearGradient> <linearGradient id="j" x1="82.903" x2="87.222" gradientUnits="userSpaceOnUse"> <stop stop-color="#ffd8c1" offset="0"/> <stop stop-color="#ffeded" offset="1"/> </linearGradient> <linearGradient id="i" x1="82.615" x2="87.646" gradientUnits="userSpaceOnUse"> <stop stop-color="#ffd8c1" offset="0"/> <stop stop-color="#ffeded" offset="1"/> </linearGradient> <linearGradient id="h" x1="82.474" x2="87.924" gradientUnits="userSpaceOnUse"> <stop stop-color="#ffd8c1" offset="0"/> <stop stop-color="#ffeded" offset="1"/> </linearGradient> <linearGradient id="g" x1="44.487" x2="104.22" gradientUnits="userSpaceOnUse"> <stop stop-color="#ffd8c1" offset="0"/> <stop stop-color="#ffeded" offset="1"/> </linearGradient> <linearGradient id="b" x1="-235.93" x2="-235.18" gradientTransform="matrix(-23.971 -26.267 -33.863 18.594 10989 -15232)" gradientUnits="userSpaceOnUse"> <stop stop-color="#ffd8c1" offset="0"/> <stop stop-color="#ffeded" offset="1"/> </linearGradient> <linearGradient id="f" x1="-235.82" x2="-235.07" gradientTransform="matrix(-21.78 -18.11 -18.11 21.78 3785.4 -14829)" gradientUnits="userSpaceOnUse"> <stop offset="0"/> <stop stop-color="#4b4b4b" offset="1"/> </linearGradient> <linearGradient id="e" x1="70.186" x2="92.9" gradientUnits="userSpaceOnUse"> <stop stop-color="#f0eb00" offset="0"/> <stop stop-color="#ff0" offset="1"/> </linearGradient> <linearGradient id="z" x1="-229.39" x2="-228.64" gradientTransform="matrix(-2.5853 -3.5039 -3.5039 2.5853 1181.7 -1993.9)" gradientUnits="userSpaceOnUse"> <stop stop-color="#c10000" offset="0"/> <stop stop-color="#ff433e" offset="1"/> </linearGradient> <linearGradient id="v" x1="-235.82" x2="-235.07" gradientTransform="matrix(-21.78 -18.11 -18.11 21.78 3785.4 -14829)" gradientUnits="userSpaceOnUse"> <stop stop-color="#0083cc" offset="0"/> <stop stop-color="#24a4cc" offset="1"/> </linearGradient> <linearGradient id="bu" x1="43.584" x2="127.9" gradientUnits="userSpaceOnUse"> <stop offset="0"/> <stop stop-color="#4b4b4b" offset="1"/> </linearGradient> <linearGradient id="bs" x1="70.097" x2="75.599" gradientUnits="userSpaceOnUse"> <stop offset="0"/> <stop stop-color="#4b4b4b" offset="1"/> </linearGradient> <linearGradient id="bq" x1="-228.99" x2="-228.24" gradientTransform="matrix(-4.7291 -2.5426 -5.2418 2.2939 1520.5 -1628.5)" gradientUnits="userSpaceOnUse"> <stop offset="0"/> <stop stop-color="#4b4b4b" offset="1"/> </linearGradient> <linearGradient id="c" x1="-236.45" x2="-235.7" gradientTransform="matrix(-27.541 -7.1599 -7.1606 27.538 -2936.2 -15123)" gradientUnits="userSpaceOnUse"> <stop stop-color="#f0a700" offset="0"/> <stop stop-color="#ffed00" offset="1"/> </linearGradient> <linearGradient id="bk" x1="-2.2637" x2="97.301" gradientUnits="userSpaceOnUse"> <stop offset="0"/> <stop stop-color="#4b4b4b" offset="1"/> </linearGradient> <linearGradient id="bi" x1="49.731" x2="90.539" gradientUnits="userSpaceOnUse"> <stop stop-color="#f0eb00" offset="0"/> <stop stop-color="#ff0" offset="1"/> </linearGradient> <linearGradient id="bh" x1="-235.81" x2="-235.07" gradientTransform="matrix(-21.78 -18.11 -18.11 21.78 3785.4 -14829)" gradientUnits="userSpaceOnUse"> <stop stop-color="#0083cc" offset="0"/> <stop stop-color="#24a4cc" offset="1"/> </linearGradient> <linearGradient id="bg" x1="50.884" x2="55.841" gradientUnits="userSpaceOnUse"> <stop stop-color="#f0eb00" offset="0"/> <stop stop-color="#ff0" offset="1"/> </linearGradient> <linearGradient id="be" x1="54.765" x2="67.26" gradientUnits="userSpaceOnUse"> <stop stop-color="#f0eb00" offset="0"/> <stop stop-color="#ff0" offset="1"/> </linearGradient> <linearGradient id="bd" x1="66.271" x2="53.574" gradientUnits="userSpaceOnUse"> <stop offset="0"/> <stop stop-color="#4b4b4b" offset="1"/> </linearGradient> <linearGradient id="bc" x1="66.254" x2="53.586" gradientUnits="userSpaceOnUse"> <stop stop-color="#0083cc" offset="0"/> <stop stop-color="#24a4cc" offset="1"/> </linearGradient> <linearGradient id="bb" x1="54.651" x2="47.612" gradientUnits="userSpaceOnUse"> <stop stop-color="#ffd8c1" offset="0"/> <stop stop-color="#ffeded" offset="1"/> </linearGradient> <linearGradient id="ba" x1="106.02" x2="34.422" gradientUnits="userSpaceOnUse"> <stop stop-color="#ffd8c1" offset="0"/> <stop stop-color="#ffeded" offset="1"/> </linearGradient> <linearGradient id="az" x1="70.235" x2="53.325" gradientUnits="userSpaceOnUse"> <stop stop-color="#0083cc" offset="0"/> <stop stop-color="#24a4cc" offset="1"/> </linearGradient> <linearGradient id="ay" x1="103.79" x2="32.586" gradientUnits="userSpaceOnUse"> <stop stop-color="#ffd8c1" offset="0"/> <stop stop-color="#ffeded" offset="1"/> </linearGradient> <linearGradient id="ax" x1="60.351" x2="50.105" gradientUnits="userSpaceOnUse"> <stop stop-color="#ffd8c1" offset="0"/> <stop stop-color="#ffeded" offset="1"/> </linearGradient> <linearGradient id="aw" x1="55.809" x2="52.202" gradientUnits="userSpaceOnUse"> <stop stop-color="#ffd8c1" offset="0"/> <stop stop-color="#ffeded" offset="1"/> </linearGradient> <linearGradient id="av" x1="56.096" x2="51.781" gradientUnits="userSpaceOnUse"> <stop stop-color="#ffd8c1" offset="0"/> <stop stop-color="#ffeded" offset="1"/> </linearGradient> <linearGradient id="au" x1="56.386" x2="51.351" gradientUnits="userSpaceOnUse"> <stop stop-color="#ffd8c1" offset="0"/> <stop stop-color="#ffeded" offset="1"/> </linearGradient> <linearGradient id="at" x1="56.526" x2="51.076" gradientUnits="userSpaceOnUse"> <stop stop-color="#ffd8c1" offset="0"/> <stop stop-color="#ffeded" offset="1"/> </linearGradient> <linearGradient id="as" x1="94.513" x2="34.782" gradientUnits="userSpaceOnUse"> <stop stop-color="#ffd8c1" offset="0"/> <stop stop-color="#ffeded" offset="1"/> </linearGradient> <linearGradient id="a" x1="-238.02" x2="-237.27" gradientTransform="matrix(23.971 26.267 33.863 -18.594 -10832 15493)" gradientUnits="userSpaceOnUse"> <stop stop-color="#ffd8c1" offset="0"/> <stop stop-color="#ffeded" offset="1"/> </linearGradient> <linearGradient id="ar" x1="-237.94" x2="-237.19" gradientTransform="matrix(21.78 18.11 18.11 -21.78 -3628.4 15091)" gradientUnits="userSpaceOnUse"> <stop offset="0"/> <stop stop-color="#4b4b4b" offset="1"/> </linearGradient> <linearGradient id="aq" x1="68.814" x2="46.097" gradientUnits="userSpaceOnUse"> <stop stop-color="#f0eb00" offset="0"/> <stop stop-color="#ff0" offset="1"/> </linearGradient> <linearGradient id="x" x1="-238.02" x2="-237.28" gradientTransform="matrix(23.971 26.267 33.863 -18.594 -10832 15493)" gradientUnits="userSpaceOnUse"> <stop stop-color="#ffd8c1" offset="0"/> <stop stop-color="#ffeded" offset="1"/> </linearGradient> <linearGradient id="ao" x1="-245.26" x2="-244.51" gradientTransform="matrix(2.5853 3.5039 3.5039 -2.5853 -1024.8 2255.5)" gradientUnits="userSpaceOnUse"> <stop stop-color="#c10000" offset="0"/> <stop stop-color="#ff433e" offset="1"/> </linearGradient> <linearGradient id="t" x1="-237.94" x2="-237.19" gradientTransform="matrix(21.78 18.11 18.11 -21.78 -3628.4 15091)" gradientUnits="userSpaceOnUse"> <stop stop-color="#0083cc" offset="0"/> <stop stop-color="#24a4cc" offset="1"/> </linearGradient> <linearGradient id="aj" x1="95.418" x2="11.098" gradientUnits="userSpaceOnUse"> <stop offset="0"/> <stop stop-color="#4b4b4b" offset="1"/> </linearGradient> <linearGradient id="ah" x1="68.904" x2="63.401" gradientUnits="userSpaceOnUse"> <stop offset="0"/> <stop stop-color="#4b4b4b" offset="1"/> </linearGradient> <linearGradient id="af" x1="-246.45" x2="-245.7" gradientTransform="matrix(4.7291 2.5426 5.2418 -2.2939 -1363.6 1890.2)" gradientUnits="userSpaceOnUse"> <stop offset="0"/> <stop stop-color="#4b4b4b" offset="1"/> </linearGradient> <linearGradient id="d" x1="-237.7" x2="-236.95" gradientTransform="matrix(27.541 7.1599 7.1606 -27.538 3093.1 15385)" gradientUnits="userSpaceOnUse"> <stop stop-color="#f0a700" offset="0"/> <stop stop-color="#ffed00" offset="1"/> </linearGradient> <linearGradient id="ad" x1="-237.71" x2="-236.95" gradientTransform="matrix(27.541 7.1599 7.1606 -27.538 3093.1 15385)" gradientUnits="userSpaceOnUse"> <stop stop-color="#f0a700" offset="0"/> <stop stop-color="#ffed00" offset="1"/> </linearGradient> <linearGradient id="y" x1="141.26" x2="41.699" gradientUnits="userSpaceOnUse"> <stop offset="0"/> <stop stop-color="#4b4b4b" offset="1"/> </linearGradient> <linearGradient id="w" x1="89.269" x2="48.46" gradientUnits="userSpaceOnUse"> <stop stop-color="#f0eb00" offset="0"/> <stop stop-color="#ff0" offset="1"/> </linearGradient> <linearGradient id="u" x1="88.117" x2="83.16" gradientUnits="userSpaceOnUse"> <stop stop-color="#f0eb00" offset="0"/> <stop stop-color="#ff0" offset="1"/> </linearGradient> <linearGradient id="s" x1="84.237" x2="71.74" gradientUnits="userSpaceOnUse"> <stop stop-color="#f0eb00" offset="0"/> <stop stop-color="#ff0" offset="1"/> </linearGradient> </defs> <path d="m20 4h103c8.864 0 16 7.136 16 16v153c0 8.864-7.136 16-16 16h-103c-8.864 0-16-7.136-16-16v-153c0-8.864 7.136-16 16-16z" opacity=".498"/> <path d="m16 0h103c8.864 0 16 7.136 16 16v153c0 8.864-7.136 16-16 16h-103c-8.864 0-16-7.136-16-16v-153c0-8.864 7.136-16 16-16z" fill="#e7e7e7"/> <path d="m18 2h103c8.864 0 16 7.136 16 16v153c0 8.864-7.136 16-16 16h-103c-8.864 0-16-7.136-16-16v-153c0-8.864 7.136-16 16-16z" fill="#c7891f"/> <path d="m17 1h103c8.864 0 16 7.136 16 16v153c0 8.864-7.136 16-16 16h-103c-8.864 0-16-7.136-16-16v-153c0-8.864 7.136-16 16-16z" fill="#fff"/> <path d="m9.027 11.24h6.396v10.951l9.221-10.951h7.426l-11.945 14.206 13.174 15.794h-8.007l-9.869-11.815v11.815h-6.396v-30"/> <path d="m127.66 175.63h-6.396v-10.951l-9.22 10.951h-7.426l11.944-14.206-13.174-15.794h8.008l9.868 11.815v-11.815h6.396v30"/> <path d="m19.774,47.665c-4.924,7.825-20.034,21.149-10.462,25.263 5.811,1.894 8.576-1.982 9.747-4.549h.234l-3.859,12.947 8.938-.038c0,0-3.85-12.445-3.858-12.921h.094c.946,2.097 4.535,6.439 8.484,4.786 11.545-4.637-5.456-17.826-9.318-25.488z"/> <path d="m117.67 139c4.924-7.824 20.034-21.149 10.462-25.263-5.811-1.894-8.575 1.982-9.747 4.549h-0.234l3.859-12.946-8.938 0.038s3.85 12.445 3.858 12.921h-0.095c-0.945-2.097-4.535-6.438-8.483-4.785-11.546 4.634 5.456 17.824 9.318 25.486z"/> <path d="m47.174 88.95h44.693v12.098h-44.693z"/> <path d="m94.65,78.809-.006-.205-.083-2.656-.006-.187-.181-.044-4.154-1.034 2.13-34.314 .003-.066-.029-.059-5.432-10.799-.235-.47-.209.482-4.858,11.228-.025.059 .007.064 3.586,34.015-4.469,1.081-.233-.042-.002.099-.002.191-.019,1.466-.131-.007c-.188-1.333-.304-2.551-.077-3.483 3.149-2.663-10.438-4.937-3.165-8.259 .479-3.208 1.715-6.041 1.995-9.551 1.289-2.65-2.534-7.603 1.769-7.32 1.302-2.626-2.809-7.277-.207-10.948 .349-3.105 2.91-11.092 1.651-11.264-4.367,9.705-4.188-.9-6.453,1.377-2.269,1.907-3.946,2.68-5.271-2.708-1.77,1.866-2.845,2.623-4.334,3.839l-.507-1.479c-1.19-7.03-1.657,4.552-3.34-2.304-1.301,8.172-3.064-1.624-4.037,2.739-.98-.09-1.916,2.188-3.454.458-2.375-5.27-.211,8.086-5.589-3.009 .541,5.778 1.494,11.504 2.297,17.25-2.496,4.416-4.125,10.19-3.556,14.885 5.367.452 4.454,6.754 7.1,9.995-1.863,2.613-10.16,4.589-7.786,7.487-.092,4.827-.265,10.767-.164,16.008 9.044,3.553 18.822,3.617 28.409,1.758 2.728-.102 4.123-1.142 4.776-2.708 1.518-.139 2.882-.806 3.907-1.817 .03.079.072.151.123.217 .164.206.411.389.71.568 .447.269 1.011.518 1.55.704s1.049.311 1.426.313l.183-.013 .207-.032 .004-.001v-.013c.479-.104 1.136-.325 1.763-.63 .358-.176.701-.375.984-.599s.508-.467.611-.765c.028-.081.04-.163.04-.245-.004-.32-.174-.591-.386-.84-.369-.425-.912-.804-1.312-1.055l.091-.01c.325-.05.6-.12.821-.253 .221-.124.393-.361.387-.638 .006-.276-.166-.514-.387-.639-.091-.054-.192-.096-.301-.133 .116-.048.229-.102.324-.175 .224-.166.368-.438.363-.741 .005-.304-.14-.575-.363-.741-.114-.086-.249-.148-.393-.202 .146-.054.277-.12.393-.208 .224-.166.368-.438.363-.741 .005-.304-.14-.575-.363-.741-.114-.086-.249-.148-.393-.202 .146-.054.277-.12.393-.208 .224-.166.368-.438.363-.741 .001-.104-.021-.204-.051-.297l3.031-.642 .203-.045z" fill="#fff"/> <path d="m82.301,83.37v-1.893c0-.52.148-1.001.39-1.422-.624-.464-1.359-.782-2.162-.907 .259,1.753.475,3.587.117,5.166 .19,1.604.299,3.148.117,4.486 .956-.197 1.81-.671 2.476-1.336 .401-.402.729-.875.973-1.395-1.112-.398-1.911-1.451-1.911-2.699z" fill="url(#r)"/> <path d="m83.075,80.373c-.174.332-.282.703-.283,1.104v1.893c.002,1.006.626,1.862 1.508,2.214l-.005-.003c-.073-.076-.136-.187-.136-.318s.063-.242.135-.318 .164-.136.267-.189l.056-.022c.025-.17.042-.342.05-.518-.157-.085-.295-.178-.39-.305-.069-.092-.118-.209-.117-.336s.048-.244.117-.336 .158-.169.261-.237l.035-.019c-.198-.95-.671-1.798-1.333-2.462l-.165-.148z" fill="url(#q)"/> <path d="m85.35,84.499 .034-.006c-.222-.061-.42-.128-.589-.204-.048-.022-.086-.049-.13-.073-.008.176-.024.348-.05.518 .197-.094.439-.171.735-.235z"/> <path d="m83.88,79.479c-.342.222-.614.532-.806.894l.164.148c.662.664 1.135,1.512 1.333,2.462 .202-.125.457-.228.765-.313 .056-.016.123-.027.182-.042-.272-.066-.523-.141-.723-.231-.221-.103-.397-.215-.52-.378-.069-.092-.118-.209-.117-.336s.048-.244.117-.336 .158-.169.261-.237c.201-.131.463-.234.774-.323l-.079-.129c-.155-.048-.311-.096-.437-.153-.221-.103-.397-.215-.52-.378-.069-.092-.118-.209-.117-.336-.001-.093.03-.177.071-.253l-.348-.059z"/> <path d="m87.69,74.696c-.722-38.183-.843-35.673-1.216-44.063l-4.407,10.188 3.577,33.938 2.046-.063z" fill="#ac9393"/> <path d="m89.936,75.117-4.478.139-3.569.863 12.254,2.196-.067-2.168z" fill="#d45500"/> <path d="m94.65,78.809-.006-.205-.083-2.656-.006-.187-.181-.044-4.154-1.034 2.13-34.314 .003-.066-.029-.059-5.432-10.799-.235-.47-.209.482-4.858,11.228-.025.059 .007.064 3.586,34.015-4.469,1.081-.233-.042-.002.099-.002.191-.019,1.466-.131-.007c-.188-1.333-.304-2.551-.077-3.483 3.149-2.663-10.438-4.937-3.165-8.259 .479-3.208 1.715-6.041 1.995-9.551 1.289-2.65-2.534-7.603 1.769-7.32 1.302-2.626-2.809-7.277-.207-10.948 .349-3.105 2.91-11.092 1.651-11.264-4.367,9.705-4.188-.9-6.453,1.377-2.269,1.907-3.946,2.68-5.271-2.708-1.77,1.866-2.845,2.623-4.334,3.839l-.507-1.479c-1.19-7.03-1.657,4.552-3.34-2.304-1.301,8.172-3.064-1.624-4.037,2.739-.98-.09-1.916,2.188-3.454.458-2.375-5.27-.211,8.086-5.589-3.009 .541,5.778 1.494,11.504 2.297,17.25-2.496,4.416-4.125,10.19-3.556,14.885 5.367.452 4.454,6.754 7.1,9.995-1.863,2.613-10.16,4.589-7.786,7.487-.092,4.827-.265,10.767-.164,16.008 9.044,3.553 18.822,3.617 28.409,1.758 2.728-.102 4.123-1.142 4.776-2.708 1.518-.139 2.882-.806 3.907-1.817 .03.079.072.151.123.217 .164.206.411.389.71.568 .447.269 1.011.518 1.55.704s1.049.311 1.426.313l.183-.013 .207-.032 .004-.001v-.013c.479-.104 1.136-.325 1.763-.63 .358-.176.701-.375.984-.599s.508-.467.611-.765c.028-.081.04-.163.04-.245-.004-.32-.174-.591-.386-.84-.369-.425-.912-.804-1.312-1.055l.091-.01c.325-.05.6-.12.821-.253 .221-.124.393-.361.387-.638 .006-.276-.166-.514-.387-.639-.091-.054-.192-.096-.301-.133 .116-.048.229-.102.324-.175 .224-.166.368-.438.363-.741 .005-.304-.14-.575-.363-.741-.114-.086-.249-.148-.393-.202 .146-.054.277-.12.393-.208 .224-.166.368-.438.363-.741 .005-.304-.14-.575-.363-.741-.114-.086-.249-.148-.393-.202 .146-.054.277-.12.393-.208 .224-.166.368-.438.363-.741 .001-.104-.021-.204-.051-.297l3.031-.642 .203-.045zm-15.501,11.441c-7.035,3.487-22.146,3.671-30.466,0v-11.197c0-1.331.271-2.596.759-3.745l-1.049-1.049 6.731-5.07 .77.617c.671-.168 1.369-.267 2.089-.284-1.792-1.883-3.424-4.319-3.697-6.806-.69-1.382-1.209-2.902-1.52-4.523-.947-.202-1.582-.837-3.486-1.456 0,0 .012-7.744 3.84-13.567l-1.776-12.296 1.976,2.811 .698-3.487 1.788,2.921 1.108-2.909 1.195,2.451 1.004-3.269 1.628,3.559 1.542-3.536 1.002,2.518c.574-1.556 1.112-3.077 1.112-3.313 0-.322.948,2.235 1.639,4.145l1.485-3.216 .807,2.16 1.76-3.376 1.896,4.635 1.635-2.557 .935,2.029 2.031-2.781 1.675,4.272 2.255-2.791c0,0-2.257,11.54-2.509,12.106 1.484,2.34 1.733,4.429 1.733,4.429-.68.238-1.776.45-3.113.622 .714,1.941 1.121,4.088 1.121,6.354 0,3.128-.764,6.035-2.065,8.472 .239.155.41.308.458.451 .315.948-.789,2.052-.789,2.052s-.333-.277-.835-.657c-.158.216-.31.438-.478.643 0,1.959-.357,3.461-.847,4.598l.138.051 .576-1.218 5.085,4.147-1.254.875c.89,1.452 1.411,3.155 1.411,4.989v11.196zm12.706-49.848-2.124,34.23-1.551.048c-.719-38.06-.842-35.702-1.212-43.994l4.887,9.716zm-9.788.419 4.407-10.188c.373,8.39.494,5.88 1.216,44.063l-2.046.063-3.577-33.938zm2.209,39.305c.122.163.299.275.52.378 .126.058.281.105.437.153l.286.078-.182.042-.025.009c-.312.089-.573.192-.774.323-.103.068-.191.144-.261.237s-.118.209-.117.336 .048.244.117.336c.122.163.299.275.52.378 .199.09.45.165.723.231l-.182.042c-.308.086-.563.188-.765.313l-.035.019c-.103.068-.191.144-.261.237s-.118.209-.117.336 .048.244.117.336c.095.127.232.22.39.305l.13.073c.169.076.367.144.589.204l-.034.006c-.296.064-.538.141-.734.235-.018.007-.04.014-.056.022-.103.053-.191.111-.267.189-.072.076-.136.187-.135.318s.063.242.136.318l.005.003c-.882-.352-1.506-1.208-1.508-2.214v-1.893c.001-.401.109-.772.283-1.104 .191-.362.464-.672.806-.894l.35.057c-.041.077-.072.161-.071.253-.003.129.046.246.115.338zm1.509,6.057c.061-.013.116-.038.175-.054l.136.021c-.119.111-.287.272-.482.463 .062-.141.118-.285.171-.43zm-2.546,1.281c-.666.666-1.52,1.14-2.476,1.336 .182-1.338.073-2.883-.117-4.486 .357-1.579.142-3.413-.117-5.166 .803.125 1.538.443 2.162.907-.241.421-.39.902-.39,1.422v1.893c0,1.248.799,2.301 1.91,2.7-.243.519-.571.993-.972,1.394zm2.766,1.795c-.378-.172-.726-.366-.965-.546-.12-.089-.212-.176-.266-.245-.055-.069-.063-.113-.063-.115 .185-.299.665-.815 1.09-1.237 .425-.424.797-.764.798-.765l.091-.084-.006-.064c.356.027.729.046 1.128.046h.012c.099.98.147,2.147.148,3.611-.444-.031-1.267-.278-1.967-.601zm3.413-2.969 .084.047c.193.108.686.396 1.116.742 .216.172.416.36.554.536s.206.34.204.444l-.014.087c-.049.15-.209.348-.452.538-.628.503-1.761.949-2.446,1.117-.002-1.421-.049-2.574-.146-3.552 .349-.002.678-.007.987-.019l.113.06zm1.41-1.246c.125.083.144.124.149.218-.006.095-.024.135-.149.218-.172.109-.543.188-1.016.229l-.11.01c-.121.009-.252.016-.386.021-.322.013-.678.017-1.054.018l-.449.001-.045-.001c-.399-.001-.778-.019-1.131-.048-.258-.021-.501-.047-.721-.08-.166-.025-.322-.052-.462-.083-.296-.063-.53-.141-.671-.214l-.106-.068c.034-.031.108-.082.243-.132 .257-.102.654-.191 1.141-.257l.488-.054c.331-.029.688-.047 1.063-.052l.201-.003 .299.001c.467.001.9.006 1.287.023l.49.034 .299.032c.292.042.516.111.64.187zm-.024-1.822c.121.1.168.183.173.353-.005.169-.052.253-.173.353-.151.123-.459.214-.86.269l-.247.03-.25.017c-.424.026-.91.031-1.434.032h-.2l-.308-.009c-.358-.01-.702-.03-1.017-.068-.177-.021-.344-.047-.501-.075-.188-.035-.364-.073-.52-.117-.293-.081-.523-.178-.662-.27-.069-.044-.114-.088-.136-.118l-.014-.029-.008-.016 .006-.013 .016-.032c.036-.053.15-.143.329-.223 .216-.1.521-.188.883-.261 .151-.03.315-.056.486-.08 .229-.031.471-.054.727-.07 .167-.011.338-.017.514-.02l.204-.004c.649,0 1.247.003 1.75.041 .177.014.339.032.488.057l.127.017c.289.057.505.14.627.236zm0-1.892c.121.1.168.183.173.353-.005.169-.052.253-.173.353-.13.105-.374.188-.692.244-.128.023-.264.042-.415.055l-.083.006c-.513.041-1.13.043-1.801.043l-.395-.011-.541-.031-.576-.063-.503-.088c-.113-.024-.23-.048-.33-.076-.293-.081-.523-.178-.662-.27-.069-.044-.114-.088-.136-.118l-.021-.045 .021-.045c.036-.053.15-.143.329-.223 .145-.066.331-.129.545-.185l.156-.037c.151-.034.312-.066.485-.093l.108-.016 .519-.06c.316-.027.65-.044 1-.044 .72,0 1.383.002 1.915.054 .162.016.314.034.45.061l.036.01c.268.056.475.134.591.226zm0-1.187c-.105.085-.29.155-.524.208-.146.034-.313.061-.499.08l-.084.01c-.526.048-1.178.049-1.884.049-.464,0-.904-.027-1.304-.074-.338-.04-.636-.097-.9-.163l-.141-.032c-.293-.081-.523-.178-.662-.27-.069-.044-.114-.088-.136-.118l-.021-.045 .021-.045c.021-.03.069-.071.135-.115 .053-.035.114-.072.194-.108 .19-.088.449-.167.755-.234 .558-.122 1.277-.2 2.059-.199 .94,0 1.787.002 2.365.114l.104.028c.23.053.417.123.522.206 .063.051.104.1.131.158 .026.053.04.113.042.195-.005.171-.052.255-.173.355zm.307-1.087c-.002-.002-.004-.005-.006-.007-.336-.253-.802-.345-1.363-.4-.562-.051-1.223-.05-1.929-.05-.96,0-1.829.106-2.477.286-.238.066-.436.146-.611.235l-3.813-.624 .026-2.048 12.179,2.183-2.006.425zm-9.222-2.937 3.569-.863 4.478-.139 4.14,1.03 .067,2.168-12.254-2.196z"/> <path d="m88.464,89.8c.686-.168 1.818-.613 2.446-1.117 .243-.19.403-.387.452-.538l.014-.087c.002-.104-.064-.267-.204-.444s-.338-.364-.554-.536c-.431-.346-.923-.634-1.116-.742l-.084-.047-.112-.06c-.31.012-.639.017-.987.019 .097.978.143,2.131.145,3.552z" fill="#520"/> <path d="m80.913,78.496 3.813.624c.176-.089.373-.169.611-.235 .647-.18 1.517-.286 2.477-.286 .706,0 1.367-.001 1.929.05 .562.055 1.027.147 1.363.4l.006.007 2.007-.425-12.179-2.183-.027,2.048z" fill="#803300"/> <path d="m87.813,86.249c-.399,0-.771-.019-1.128-.046l.006.064-.091.084c-.001,0-.373.34-.798.765-.425.422-.905.938-1.09,1.237-.001.002.008.046.063.115 .054.069.146.155.266.245 .239.18.587.375.965.546 .699.323 1.522.57 1.968.601-.001-1.464-.05-2.631-.148-3.611h-.013z" fill="#a40"/> <path d="m86.187,79.786 .322.631c.399.047.84.074 1.304.074 .706,0 1.357-.001 1.884-.049l.084-.01 .058-.666-3.652.02z" fill="#520"/> <path d="m90.08,79.273 .202-.042-.104-.028c-.578-.112-1.425-.115-2.365-.114-.781-.001-1.501.077-2.059.199l.054.009 4.272-.024z" fill="#803300"/> <path d="m90.935,79.595c-.026-.058-.068-.106-.131-.158-.105-.083-.292-.152-.522-.206l-.202.042-4.271.023-.054-.009c-.306.067-.564.146-.755.234-.08.036-.142.073-.194.108l.755.124 .049.5c.265.066.563.123.9.163l-.322-.631 3.651-.02-.058.666c.186-.019.353-.046.499-.08l.055-.63 .6-.126z"/> <path d="m90.935,79.595c-.026-.058-.068-.106-.131-.158-.105-.083-.292-.152-.522-.206l-.104-.028c-.578-.112-1.425-.115-2.365-.114-.781-.001-1.501.077-2.059.199-.306.067-.564.146-.755.234-.08.036-.142.073-.194.108-.065.044-.114.085-.135.115l-.021.045 .021.045c.021.03.066.073.136.118 .139.091.369.189.662.27l.141.032c.265.066.563.123.9.163 .399.047.84.074 1.304.074 .706,0 1.357-.001 1.884-.049l.084-.01c.186-.019.353-.046.499-.08 .234-.054.419-.124.524-.208 .121-.1.168-.184.173-.353-.002-.084-.016-.144-.042-.197z" fill="url(#p)"/> <path d="m85.544,81.23c-.214.056-.4.118-.545.185-.179.08-.293.169-.329.223l-.021.045 .021.045c.021.03.066.073.136.118 .139.091.369.189.662.27 .1.028.217.051.33.076l-.046-.477c-.063-.166-.132-.327-.208-.485z"/> <path d="m87.813,80.981c-.35,0-.684.017-1,.044 .226.46.427.901.605,1.347l.395.011c.671,0 1.288-.002 1.801-.043l.114-1.305c-.532-.051-1.195-.054-1.915-.054z" fill="#520"/> <path d="m90.178,81.096c-.136-.026-.288-.045-.45-.061l-.114,1.305 .083-.006c.151-.013.287-.032.415-.055l.103-1.174-.037-.009z"/> <path d="m86.186,81.101 .115,1.178c.183.026.374.047.576.063-.171-.409-.366-.821-.583-1.257l-.108.016z" fill="#a40"/> <path d="m86.294,81.085c.217.436.412.848.583,1.257l.541.031c-.179-.446-.38-.887-.605-1.347l-.519.059z"/> <path d="m85.701,81.193 .052.52 .046.477 .503.088-.115-1.178-.486.093z"/> <path d="m90.804,81.33c-.116-.091-.323-.17-.59-.224l-.036-.01c-.136-.026-.288-.045-.45-.061-.532-.051-1.195-.054-1.915-.054-.35,0-.684.017-1,.044l-.519.06-.108.016-.485.093-.156.037c-.214.056-.4.118-.545.185-.179.08-.293.169-.329.223l-.021.045 .021.045c.021.03.066.073.136.118 .139.091.369.189.662.27 .1.028.217.051.33.076l.503.088c.183.026.374.047.576.063l.541.031 .395.011c.671,0 1.288-.002 1.801-.043l.083-.006c.151-.013.287-.032.415-.055 .318-.056.563-.139.692-.244 .121-.1.168-.184.173-.353-.006-.172-.053-.256-.174-.355z" fill="url(#o)"/> <path d="m84.649,83.575 .008.016c-.001-.009-.001-.019-.002-.028l-.006.012z" fill="url(#n)"/> <path d="m85,83.308c-.179.08-.293.169-.329.223l-.016.032c.001.01.001.02.002.028l.014.029c.021.03.066.073.136.118 .139.091.369.189.662.27 .155.043.331.082.52.117l-.105-1.077c-.364.071-.669.16-.884.26z"/> <path d="m87.813,82.874-.204.004c.095.271.186.544.265.833 .05.183.097.371.14.565 .523-.001 1.01-.006 1.434-.032l.116-1.329c-.504-.038-1.102-.041-1.751-.041z" fill="#520"/> <path d="m89.563,82.915-.116,1.329 .25-.017 .247-.03 .107-1.226-.488-.056z"/> <path d="m87.095,82.897c-.256.016-.498.039-.727.07l.12,1.232c.314.038.658.059 1.017.068-.034-.145-.068-.289-.106-.427-.089-.326-.191-.637-.304-.943z" fill="#a40"/> <path d="m87.609,82.878c-.176.003-.347.009-.514.02 .112.306.215.616.304.943 .038.138.072.282.106.427l.308.009h.2c-.043-.194-.09-.382-.14-.565-.079-.29-.169-.564-.264-.834z"/> <path d="m85.882,83.047 .105,1.077c.157.028.324.054.501.075l-.12-1.232c-.17.024-.334.05-.486.08z"/> <path d="m90.804,83.222c-.122-.096-.338-.179-.626-.234l-.127-.017-.488-.057c-.503-.038-1.101-.042-1.75-.041l-.204.004c-.176.003-.347.009-.514.02-.256.016-.498.039-.727.07-.171.023-.335.05-.486.08-.362.072-.667.161-.883.261-.179.08-.293.169-.329.223l-.016.032-.006.013 .008.016 .014.029c.021.03.066.073.136.118 .139.091.369.189.662.27 .155.043.331.082.52.117 .157.028.324.054.501.075 .314.038.658.059 1.017.068l.308.009h.2c.523-.001 1.01-.006 1.434-.032l.25-.017 .247-.03c.401-.055.709-.146.86-.269 .121-.1.168-.184.173-.353-.006-.172-.053-.255-.174-.355z" fill="url(#m)"/> <path d="m86.08,85.066-.019-.191c-.486.065-.884.155-1.141.257-.135.05-.209.102-.243.132 .023.019.056.042.106.068 .141.073.375.15.671.214 .14.031.296.058.462.083 .015-.005.03-.009.045-.014 .047-.18.087-.363.119-.549z"/> <path d="m85.384,84.493c-.222-.061-.42-.128-.589-.204-.048-.022-.086-.049-.13-.073-.157-.085-.295-.178-.39-.305-.069-.092-.118-.209-.117-.336s.048-.244.117-.336 .158-.169.261-.237l.035-.019c.202-.125.457-.228.765-.313 .056-.016.123-.027.182-.042-.272-.066-.523-.141-.723-.231-.221-.103-.397-.215-.52-.378-.069-.092-.118-.209-.117-.336s.048-.244.117-.336 .158-.169.261-.237c.201-.131.463-.234.774-.323l.025-.009c.056-.016.123-.027.182-.042-.101-.024-.194-.05-.286-.078-.155-.048-.311-.096-.437-.153-.221-.103-.397-.215-.52-.378-.069-.092-.118-.209-.117-.336-.001-.093.03-.177.071-.253l-.35-.057c-.342.222-.614.532-.806.894-.174.332-.282.703-.283,1.104v1.893c.002,1.006.626,1.862 1.508,2.214l-.005-.003c-.073-.076-.136-.187-.136-.318s.063-.242.135-.318 .164-.136.267-.189l.056-.022c.196-.094.438-.17.734-.235l.036-.008z" fill="url(#l)"/> <path d="m84.806,79.953c.139.091.369.189.662.27l.141.032-.049-.5-.755-.124c-.065.044-.114.085-.135.115l-.021.045 .021.045c.022.029.067.072.136.117z" fill="url(#k)"/> <path d="m85,81.415c-.179.08-.293.169-.329.223l-.021.045 .021.045c.021.03.066.073.136.118 .139.091.369.189.662.27 .1.028.217.051.33.076l-.046-.477-.052-.52-.156.037c-.214.054-.401.117-.545.183z" fill="url(#j)"/> <path d="m84.67,83.53-.016.032-.006.013 .008.016 .014.029c.021.03.066.073.136.118 .139.091.369.189.662.27 .155.043.331.082.52.117l-.105-1.077c-.362.072-.667.161-.883.261-.179.079-.293.168-.33.221z" fill="url(#i)"/> <path d="m86.08,85.066-.019-.191c-.486.065-.884.155-1.141.257-.135.05-.209.102-.243.132 .023.019.056.042.106.068 .141.073.375.15.671.214 .14.031.296.058.462.083 .015-.005.03-.009.045-.014 .056-.02.113-.033.166-.057l-.047-.492z" fill="url(#h)"/> <path d="m88.112,84.768c.058.31.107.64.15.989 .376,0 .731-.005 1.054-.018l.083-.948c-.387-.018-.82-.022-1.287-.023z" fill="#520"/> <path d="m89.399,84.791-.083.948 .386-.021 .11-.01 .077-.884c-.152-.013-.315-.025-.49-.033z"/> <path d="m86.549,84.821 .088.888c.353.029.731.047 1.131.048-.045-.352-.097-.679-.156-.987-.374.004-.732.022-1.063.051z" fill="#a40"/> <path d="m87.813,84.767-.201.003c.06.309.111.635.156.987l.045.001 .449-.001c-.043-.349-.093-.68-.15-.989l-.299-.001z"/> <path d="m86.061,84.875 .019.191 .048.492-.166.057c-.015.005-.03.009-.045.014 .22.033.463.06.721.08l-.088-.888c-.171.015-.335.033-.489.054z"/> <path d="m90.828,85.044c-.124-.076-.348-.145-.64-.188l-.299-.032c-.152-.015-.315-.026-.49-.034-.387-.018-.82-.022-1.287-.023l-.299-.001-.201.003c-.374.005-.731.022-1.063.052-.17.015-.334.033-.488.054-.486.065-.884.155-1.141.257-.135.05-.209.102-.243.132 .023.019.056.042.106.068 .141.073.375.15.671.214 .14.031.296.058.462.083 .22.033.463.06.721.08 .353.029.731.047 1.131.048l.045.001 .449-.001c.376,0 .731-.005 1.054-.018l.386-.021 .11-.01c.473-.04.844-.12 1.016-.229 .125-.083.144-.123.149-.218-.006-.093-.024-.133-.149-.217z" fill="url(#g)"/> <path d="m55.305,58.604c.501.348 1.414.272 2.059.148-.091,1.19 1.514,4.642 4.446,5.925s5.043,1.592 5.815,2.742c1.509.044 2.35-.562 1.666-2.124 .369.121 1.505-.016 1.91-.014-.828,1.752.501,1.769 1.094,2.048 .461-.346 1.447-1.371 1.754-2.088 .003.131-.009.243-.009.37 .168-.204.319-.426.478-.643-1.122-.85-3.094-2.22-4.111-2.184 .105-.369-.052-.842.105-1.526 0,0 3.821.986 5.172,1.863 1.302-2.437 2.065-5.344 2.065-8.472 0-2.266-.407-4.413-1.121-6.354-5.122.661-13.802.732-16.341-.6-2.569,2.202-3.538,5.337-2.943,9.611-2.591.894-3.713,1.07-4.576.887 .311,1.622.829,3.142 1.52,4.523-.153-1.384.115-2.784 1.017-4.112zm20.032-5.64c.641,0 1.218.185 1.632.479 .274.162.482.421.582.732 .011.032.021.063.029.095 .015.063.021.128.027.194 .003.027.012.052.012.079 0,.005-.002.01-.002.015 0,.007.002.015.002.021 0,.017-.004.032-.005.049s.005.041.005.062c0,.531-.299.967-.687,1.048-.121.066-.251.116-.39.141-.351.151-.762.243-1.206.243-1.259,0-2.281-.708-2.281-1.579s1.024-1.579 2.282-1.579zm-3.207,3.1 .372-.221c.594.965 1.459,2.552 1.336,3.281s-1.24.572-1.832.992l-.249-.358c.521-.37 1.338-.006 1.439-.606s-.51-2.186-1.066-3.088zm1.62,8.622c-2.191.104-5.478.252-8.797,0 3.49-1.289 5.94-1.685 8.797,0zm-5.979-11.466c.64,0 1.217.185 1.632.479 .273.162.48.42.58.73 .012.032.021.064.03.097 .015.063.022.127.028.193 .002.027.012.053.012.08 0,.005-.002.01-.002.015 0,.008.002.014.002.022 0,.016-.004.032-.004.048s.004.041.004.062c0,.531-.299.968-.688,1.048-.12.066-.249.115-.388.141-.35.152-.761.243-1.205.243-1.26,0-2.282-.707-2.282-1.579s1.022-1.579 2.281-1.579zm-3.804,8.949c.584-.809 6.141-.896 6.141-.896-.054.7-.296,1.04-.305,1.422-1.39-.491-5.697,1.668-5.697,1.668s-.725-1.384-.139-2.194z"/> <path d="m55.305,58.604c.501.348 1.414.272 2.059.148-.091,1.19 1.514,4.642 4.446,5.925s5.043,1.592 5.815,2.742c1.509.044 2.35-.562 1.666-2.124 .369.121 1.505-.016 1.91-.014-.828,1.752.501,1.769 1.094,2.048 .461-.346 1.447-1.371 1.754-2.088 .003.131-.009.243-.009.37 .168-.204.319-.426.478-.643-1.122-.85-3.094-2.22-4.111-2.184 .105-.369-.052-.842.105-1.526 0,0 3.821.986 5.172,1.863 1.302-2.437 2.065-5.344 2.065-8.472 0-2.266-.407-4.413-1.121-6.354-5.122.661-13.802.732-16.341-.6-2.569,2.202-3.538,5.337-2.943,9.611-2.591.894-3.713,1.07-4.576.887 .311,1.622.829,3.142 1.52,4.523-.153-1.384.115-2.784 1.017-4.112zm20.032-5.64c.641,0 1.218.185 1.632.479 .274.162.482.421.582.732 .011.032.021.063.029.095 .015.063.021.128.027.194 .003.027.012.052.012.079 0,.005-.002.01-.002.015 0,.007.002.015.002.021 0,.017-.004.032-.005.049s.005.041.005.062c0,.531-.299.967-.687,1.048-.121.066-.251.116-.39.141-.351.151-.762.243-1.206.243-1.259,0-2.281-.708-2.281-1.579s1.024-1.579 2.282-1.579zm-3.207,3.1 .372-.221c.594.965 1.459,2.552 1.336,3.281s-1.24.572-1.832.992l-.249-.358c.521-.37 1.338-.006 1.439-.606s-.51-2.186-1.066-3.088zm1.62,8.622c-2.191.104-5.478.252-8.797,0 3.49-1.289 5.94-1.685 8.797,0zm-5.979-11.466c.64,0 1.217.185 1.632.479 .273.162.48.42.58.73 .012.032.021.064.03.097 .015.063.022.127.028.193 .002.027.012.053.012.08 0,.005-.002.01-.002.015 0,.008.002.014.002.022 0,.016-.004.032-.004.048s.004.041.004.062c0,.531-.299.968-.688,1.048-.12.066-.249.115-.388.141-.35.152-.761.243-1.205.243-1.26,0-2.282-.707-2.282-1.579s1.022-1.579 2.281-1.579zm-3.804,8.949c.584-.809 6.141-.896 6.141-.896-.054.7-.296,1.04-.305,1.422-1.39-.491-5.697,1.668-5.697,1.668s-.725-1.384-.139-2.194z" fill="url(#b)"/> <path d="m77.738,74.064 1.254-.875-5.085-4.147-.576,1.218c1.84.777 3.374,2.119 4.407,3.804z"/> <path d="m77.458,74.26c-.249.201-4.688-2.813-4.688-2.813l.561-1.188-.138-.051c-.443,1.031-.983,1.778-1.446,2.284-1.008,1.1-6.962,1.923-10.169,0-.998-.599-2.335-1.647-3.595-2.97-.72.018-1.417.116-2.089.284 .654.534 1.418,1.172 1.418,1.172l-7.044,5.156-.826-.826c-.488,1.149-.759,2.414-.759,3.745v11.197c8.32,3.671 23.431,3.487 30.466,0v-11.197c0-1.834-.521-3.538-1.411-4.989l-.28.196zm-20.404,18.136 1.028-10.885 .948-.093 .623,11.165-2.599-.187zm12.431-12.237-2.956,2.064 3.209,2.298-2.138,2.125-2.17-3.693-2.243,3.618-2.283-2.472 3.75-1.875-3.542-2.414 .799-.706-4.047-3.074h13.055l-2.48,2.839 1.046,1.29z"/> <path d="m77.458,74.26c-.249.201-4.688-2.813-4.688-2.813l.561-1.188-.138-.051c-.443,1.031-.983,1.778-1.446,2.284-1.008,1.1-6.962,1.923-10.169,0-.998-.599-2.335-1.647-3.595-2.97-.72.018-1.417.116-2.089.284 .654.534 1.418,1.172 1.418,1.172l-7.044,5.156-.826-.826c-.488,1.149-.759,2.414-.759,3.745v11.197c8.32,3.671 23.431,3.487 30.466,0v-11.197c0-1.834-.521-3.538-1.411-4.989l-.28.196zm-20.404,18.136 1.028-10.885 .948-.093 .623,11.165-2.599-.187zm12.431-12.237-2.956,2.064 3.209,2.298-2.138,2.125-2.17-3.693-2.243,3.618-2.283-2.472 3.75-1.875-3.542-2.414 .799-.706-4.047-3.074h13.055l-2.48,2.839 1.046,1.29z" fill="url(#f)"/> <path d="m77.458,74.26 .279-.196c-1.033-1.685-2.566-3.027-4.407-3.804l-.561,1.188c.001-.001 4.44,3.013 4.689,2.812z"/> <path d="m73.907,69.042-.576,1.218-.561,1.188c0,0 4.439,3.014 4.688,2.813l.279-.196 1.254-.875-5.084-4.148z" fill="url(#e)"/> <path d="m74.262,43.987c.974,1.256 1.776,2.708 2.365,4.309 1.337-.172 2.434-.384 3.113-.622 0,0-.249-2.088-1.733-4.429l-.011.025c-1.201.284-2.453.52-3.734.717z"/> <path d="m56.01,43.849c-.976-.167-1.937-.359-2.875-.58l-.014-.1c-3.828,5.824-3.84,13.567-3.84,13.567 1.904.619 2.539,1.254 3.486,1.456-.218-1.14-.346-2.323-.346-3.544 0-4.2 1.371-8.005 3.589-10.799z"/> <path d="m57.343,57.307c-.595-4.274.374-7.409 2.943-9.611 2.54,1.332 11.219,1.26 16.341.6-.589-1.6-1.392-3.052-2.365-4.309-5.822.893-12.327.875-18.252-.138-2.218,2.793-3.589,6.599-3.589,10.8 0,1.221.127,2.404.346,3.544 .863.184 1.985.007 4.576-.886z"/> <path d="m57.343,57.307c-.595-4.274.374-7.409 2.943-9.611 2.54,1.332 11.219,1.26 16.341.6-.589-1.6-1.392-3.052-2.365-4.309-5.822.893-12.327.875-18.252-.138-2.218,2.793-3.589,6.599-3.589,10.8 0,1.221.127,2.404.346,3.544 .863.184 1.985.007 4.576-.886z" fill="url(#b)"/> <path d="m70.053,54.798c0-.027-.01-.053-.012-.08 .003.032.009.063.009.095l.003-.015z" fill="#fff"/> <path d="m67.771,56.377c.444,0 .855-.091 1.205-.243l-.227.023c-.72,0-1.305-.592-1.305-1.322s.584-1.322 1.305-1.322c.239,0 .461.07.654.185-.415-.294-.992-.479-1.632-.479-1.26,0-2.282.708-2.282,1.579s1.023,1.579 2.282,1.579z" fill="#fff"/> <path d="m67.445,54.835c0,.729.584,1.322 1.305,1.322 .078,0 .153-.01.227-.023 .139-.025.268-.075.388-.141-.041.009-.083.017-.127.017-.45,0-.814-.477-.814-1.065s.365-1.064.814-1.064c.434,0 .785.444.811,1.002 0-.016.004-.032.004-.048 0-.008-.002-.014-.002-.022 0-.032-.006-.063-.009-.095-.006-.065-.013-.13-.028-.193l-.03-.097c-.1-.311-.307-.569-.58-.73-.192-.115-.415-.185-.654-.185-.721.001-1.305.592-1.305,1.322z" fill="#0f90cc"/> <path d="m69.238,53.881c-.45,0-.814.477-.814,1.064s.365,1.065.814,1.065c.043,0 .086-.008.127-.017 .39-.08.688-.517.688-1.048 0-.021-.004-.041-.004-.062-.026-.558-.378-1.002-.811-1.002z"/> <path d="m77.62,54.543c0-.027-.009-.052-.012-.079 .003.031.009.062.01.094 0-.005.002-.01.002-.015z" fill="#fff"/> <path d="m75.337,56.122c.444,0 .855-.092 1.206-.243l-.228.023c-.72,0-1.304-.592-1.304-1.322s.584-1.321 1.304-1.321c.24,0 .461.07.653.185-.414-.294-.991-.479-1.632-.479-1.259,0-2.281.708-2.281,1.579s1.024,1.578 2.282,1.578z" fill="#fff"/> <path d="m75.012,54.579c0,.73.584,1.322 1.304,1.322 .078,0 .153-.01.228-.023 .139-.025.269-.075.39-.141-.043.009-.084.017-.128.017-.45,0-.814-.477-.814-1.064s.364-1.064.814-1.064c.434,0 .785.444.81,1.003 .001-.017.005-.032.005-.049 0-.007-.002-.014-.002-.021-.001-.032-.007-.063-.01-.094-.006-.066-.013-.131-.027-.194l-.029-.095c-.1-.311-.308-.57-.582-.732-.192-.114-.413-.185-.653-.185-.722-.001-1.306.591-1.306,1.32z" fill="#0f90cc"/> <path d="m76.805,53.625c-.45,0-.814.477-.814,1.064s.364,1.064.814,1.064c.044,0 .085-.008.128-.017 .388-.081.687-.517.687-1.048 0-.021-.003-.041-.005-.062-.025-.557-.376-1.001-.81-1.001z"/> <path d="m73.75,64.686c-2.856-1.685-5.306-1.289-8.797,0 3.319.252 6.605.104 8.797,0z"/> <path d="m73.75,64.686c-2.856-1.685-5.306-1.289-8.797,0 3.319.252 6.605.104 8.797,0z" fill="url(#b)"/> <path d="m73.75,64.686c-2.856-1.685-5.306-1.289-8.797,0 3.319.252 6.605.104 8.797,0z" fill="url(#z)"/> <path d="m58.083,81.512-1.029,10.884 2.599.188-.623-11.165z" fill="#808080"/> <path d="m71.757,59.758 .249.358c.592-.42 1.708-.263 1.832-.992s-.742-2.316-1.336-3.281l-.372.221c.556.902 1.168,2.489 1.066,3.088s-.917.237-1.439.606z"/> <path d="m61.482,69.51c-3.031-1.102-5.579-3.558-7.196-6.793 .272,2.486 1.905,4.923 3.697,6.806l.244-.013h3.255z"/> <path d="m68.688,69.51h.917c1.271,0 2.48.251 3.588.699 .489-1.137.847-2.639.847-4.598-1.471,1.802-3.305,3.155-5.352,3.899z"/> <path d="m61.482,69.51h7.207c2.046-.744 3.88-2.097 5.351-3.899 0-.127.012-.239.009-.37-.307.717-1.293,1.743-1.754,2.088-.593-.279-1.922-.295-1.094-2.048-.405-.001-1.542.135-1.91.014 .684,1.562-.157,2.168-1.666,2.124-.772-1.149-2.883-1.46-5.815-2.742s-4.537-4.735-4.446-5.925c-.645.125-1.558.2-2.059-.148-.902,1.328-1.17,2.728-1.019,4.113 1.617,3.235 4.165,5.691 7.196,6.793z"/> <path d="m61.482,69.51h7.207c2.046-.744 3.88-2.097 5.351-3.899 0-.127.012-.239.009-.37-.307.717-1.293,1.743-1.754,2.088-.593-.279-1.922-.295-1.094-2.048-.405-.001-1.542.135-1.91.014 .684,1.562-.157,2.168-1.666,2.124-.772-1.149-2.883-1.46-5.815-2.742s-4.537-4.735-4.446-5.925c-.645.125-1.558.2-2.059-.148-.902,1.328-1.17,2.728-1.019,4.113 1.617,3.235 4.165,5.691 7.196,6.793z" fill="url(#b)"/> <path d="m71.747,72.492c.463-.505 1.003-1.252 1.446-2.284-1.107-.448-2.317-.699-3.588-.699h-.917c-1.143.415-2.35.646-3.603.646s-2.46-.231-3.604-.646h-3.255l-.244.013c1.26,1.322 2.597,2.371 3.595,2.97 3.207,1.924 9.162,1.1 10.17,0z"/> <path d="m71.747,72.492c.463-.505 1.003-1.252 1.446-2.284-1.107-.448-2.317-.699-3.588-.699h-.917c-1.143.415-2.35.646-3.603.646s-2.46-.231-3.604-.646h-3.255l-.244.013c1.26,1.322 2.597,2.371 3.595,2.97 3.207,1.924 9.162,1.1 10.17,0z" fill="url(#v)"/> <path d="m65.085,70.156c1.253,0 2.46-.231 3.603-.646h-7.207c1.144.415 2.352.646 3.604.646z"/> <path d="m65.085,70.156c1.253,0 2.46-.231 3.603-.646h-7.207c1.144.415 2.352.646 3.604.646z" fill="url(#b)"/> <path d="m65.085,70.156c1.253,0 2.46-.231 3.603-.646h-7.207c1.144.415 2.352.646 3.604.646z" fill="url(#v)"/> <path d="m72.294,67.329c-.593-.279-1.922-.295-1.094-2.048-.405-.001-1.542.135-1.91.014 .684,1.562-.157,2.168-1.666,2.124-.772-1.149-2.883-1.46-5.815-2.742s-4.537-4.735-4.446-5.925c-.645.125-1.558.2-2.059-.148-.902,1.328-1.17,2.728-1.019,4.113 .272,2.486 1.905,4.923 3.697,6.806 1.26,1.322 2.597,2.371 3.595,2.97 3.207,1.923 9.161,1.1 10.169,0 .463-.505 1.003-1.252 1.446-2.284 .489-1.137.847-2.639.847-4.598 0-.127.012-.239.009-.37-.306.717-1.293,1.742-1.754,2.088z" fill="url(#bu)"/> <path d="m75.352,65.625c0,0 1.104-1.104.789-2.052-.048-.143-.219-.296-.458-.451-.35.653-.742,1.266-1.166,1.846 .502.38.835.657.835.657z"/> <path d="m70.406,62.784c1.018-.036 2.989,1.333 4.111,2.184 .424-.58.816-1.193 1.166-1.846-1.351-.877-5.172-1.863-5.172-1.863-.157.683 0,1.157-.105,1.525z"/> <path d="m70.406,62.784c1.018-.036 2.989,1.333 4.111,2.184 .424-.58.816-1.193 1.166-1.846-1.351-.877-5.172-1.863-5.172-1.863-.157.683 0,1.157-.105,1.525z" fill="url(#b)"/> <path d="m76.141,63.573c-.048-.143-.219-.296-.458-.451-1.351-.877-5.172-1.863-5.172-1.863-.157.684 0,1.157-.105,1.526 1.018-.036 2.989,1.333 4.111,2.184 .502.38.835.657.835.657s1.105-1.105.789-2.053z" fill="url(#bs)"/> <path d="m69.803,62.695c.009-.382.251-.722.305-1.422 0,0-5.557.087-6.141.896s.139,2.194.139,2.194 4.307-2.158 5.697-1.668z"/> <path d="m69.803,62.695c.009-.382.251-.722.305-1.422 0,0-5.557.087-6.141.896s.139,2.194.139,2.194 4.307-2.158 5.697-1.668z" fill="url(#b)"/> <path d="m69.803,62.695c.009-.382.251-.722.305-1.422 0,0-5.557.087-6.141.896s.139,2.194.139,2.194 4.307-2.158 5.697-1.668z" fill="url(#bq)"/> <path d="m66.037,32.764c-.691-1.909-1.639-4.467-1.639-4.145 0,.237-.538,1.758-1.112,3.313l1.451,3.647 1.3-2.815z"/> <path d="m66.037,32.764c-.691-1.909-1.639-4.467-1.639-4.145 0,.237-.538,1.758-1.112,3.313l1.451,3.647 1.3-2.815z" fill="url(#c)"/> <path d="m60.742 32.951-1.628-3.559-1.005 3.269 1.457 2.985z"/> <path d="m60.742 32.951-1.628-3.559-1.005 3.269 1.457 2.985z" fill="url(#c)"/> <path d="m71.986 32.966-1.897-4.635-1.76 3.377 1.646 4.402z"/> <path d="m71.986 32.966-1.897-4.635-1.76 3.377 1.646 4.402z" fill="url(#c)"/> <path d="m55.806,33.119-1.788-2.922-.698,3.488 1.472,2.094z"/> <path d="m55.806,33.119-1.788-2.922-.698,3.488 1.472,2.094z" fill="url(#c)"/> <path d="m78.261 33.93-1.675-4.273-2.031 2.781 1.784 3.871z"/> <path d="m78.261 33.93-1.675-4.273-2.031 2.781 1.784 3.871z" fill="url(#c)"/> <path d="m68.329,31.708-.807-2.16-1.485,3.216 .71,1.979 1.582-3.035z"/> <path d="m63.286 31.933-1.002-2.518-1.542 3.536 1.184 2.587s0.704-1.825 1.36-3.605z"/> <path d="m74.555,32.438-.934-2.029-1.635,2.557 .784,1.919z"/> <path d="m58.109 32.661-1.195-2.451-1.108 2.909 1.44 2.353z"/> <path d="m75.583,38.635c-.298.149-1.071.25-2.158.315 2.197,1.22 3.64,2.808 4.583,4.294 .252-.566 2.509-12.106 2.509-12.106l-2.255,2.791 .267.68c.064.109-1.071,3.088-2.946,4.026z"/> <path d="m57.537,38.81c-2.62-.092-4.457-.175-4.457-.175v-3.75l.24-1.2-1.976-2.811 1.776,12.296c1.116-1.697 2.557-3.229 4.417-4.36z"/> <path d="m56.01,43.849c2.302-2.899 5.515-4.707 9.075-4.707 3.615,0 6.868,1.867 9.177,4.845 1.281-.197 2.533-.433 3.734-.717 .003-.003.007-.017.011-.025-.943-1.487-2.386-3.074-4.583-4.294-3.715.225-11.109.027-15.887-.14-1.86,1.131-3.301,2.663-4.417,4.36l.014.1c.939.219 1.9.411 2.876.578z"/> <path d="m65.085,39.142c-3.56,0-6.773,1.808-9.075,4.707 5.925,1.012 12.43,1.031 18.252.138-2.308-2.978-5.562-4.845-9.177-4.845z"/> <path d="m65.085,39.142c-3.56,0-6.773,1.808-9.075,4.707 5.925,1.012 12.43,1.031 18.252.138-2.308-2.978-5.562-4.845-9.177-4.845z" fill="url(#b)"/> <path d="m53.081,38.635c0,0 1.837.083 4.457.175 1.819-1.107 4.033-1.833 6.743-1.945 3.979.008 6.94.861 9.144,2.085 1.087-.065 1.86-.167 2.158-.315 1.876-.938 3.011-3.917 2.945-4.025l-.267-.68-1.922,2.379-1.784-3.871-1.785,2.446-.784-1.918-2.011,3.144-1.646-4.403-1.582,3.035c0,0-.313-.883-.71-1.979l-1.3,2.816-1.451-3.647c-.656,1.78-1.36,3.605-1.36,3.605l-1.184-2.587-1.176,2.696-1.457-2.986-.863,2.811-1.44-2.353-1.014,2.66-1.472-2.094-.24,1.2v3.751z"/> <path d="m53.081,38.635c0,0 1.837.083 4.457.175 1.819-1.107 4.033-1.833 6.743-1.945 3.979.008 6.94.861 9.144,2.085 1.087-.065 1.86-.167 2.158-.315 1.876-.938 3.011-3.917 2.945-4.025l-.267-.68-1.922,2.379-1.784-3.871-1.785,2.446-.784-1.918-2.011,3.144-1.646-4.403-1.582,3.035c0,0-.313-.883-.71-1.979l-1.3,2.816-1.451-3.647c-.656,1.78-1.36,3.605-1.36,3.605l-1.184-2.587-1.176,2.696-1.457-2.986-.863,2.811-1.44-2.353-1.014,2.66-1.472-2.094-.24,1.2v3.751z" fill="url(#c)"/> <path d="m57.537,38.81c4.778.167 12.172.365 15.887.14-2.204-1.224-5.166-2.077-9.144-2.085-2.71.112-4.924.838-6.743,1.945z"/> <path d="m78.007,43.245c-.943-1.487-2.386-3.074-4.583-4.294s-5.166-2.077-9.144-2.085c-2.71.111-4.924.838-6.743,1.945-1.86,1.131-3.301,2.663-4.417,4.36-3.828,5.824-3.84,13.567-3.84,13.567 1.904.619 2.539,1.254 3.486,1.456 .863.184 1.985.007 4.576-.887-.595-4.274.374-7.409 2.943-9.611 2.54,1.332 11.219,1.26 16.341.6 1.337-.172 2.434-.384 3.113-.622 .002-.001-.247-2.089-1.732-4.429z" fill="url(#bk)"/> <path d="m57.537,38.81c4.778.167 12.172.365 15.887.14-2.204-1.224-5.166-2.077-9.144-2.085-2.71.112-4.924.838-6.743,1.945z" fill="url(#c)"/> <path d="m78.261,33.93-1.922,2.379-1.784-3.871-.935-2.029-1.635,2.557-2.011,3.144-1.646-4.403-.807-2.16-1.485,3.216-1.3,2.816-1.451-3.647-1.002-2.518-1.542,3.536-1.176,2.696-1.457-2.986-1.195-2.451-1.108,2.909-1.014,2.66-1.472-2.094-1.976-2.811 1.776,12.296 .014.1c.938.221 1.899.413 2.875.58 5.925,1.012 12.43,1.031 18.252.138 1.281-.197 2.533-.433 3.734-.717 .003-.003.007-.017.011-.025 .252-.566 2.509-12.106 2.509-12.106l-2.253,2.791z" fill="url(#bi)"/> <path d="m55.894,69.807c-.315-.257-.606-.492-.77-.617l-6.731,5.07 1.049,1.049c1.154-2.719 3.535-4.773 6.452-5.502z"/> <path d="m57.312,70.979c0,0-.764-.638-1.418-1.172-2.917.729-5.298,2.784-6.453,5.502l.826.826 7.045-5.156z"/> <path d="m57.312,70.979c0,0-.764-.638-1.418-1.172-2.917.729-5.298,2.784-6.453,5.502l.826.826 7.045-5.156z" fill="url(#bh)"/> <path d="m55.894 69.807c-0.315-0.257-0.606-0.492-0.77-0.617l-6.731 5.07 1.875 1.875 7.044-5.156s-0.764-0.638-1.418-1.172z" fill="url(#bg)"/> <path d="m57.864 76.03 4.048 3.074 1.54-1.36 1.911 3.741 2.055-3.873 1.021 1.257 2.48-2.839z" fill="#ff8900"/> <path d="m61.912,79.104-.8.705 3.542,2.414-3.75,1.875 2.283,2.472 2.243-3.617 2.17,3.693 2.139-2.125-3.21-2.298 2.956-2.064-1.046-1.29-2.727,3.122z"/> <path d="m61.912,79.104-.8.705 3.542,2.414-3.75,1.875 2.283,2.472 2.243-3.617 2.17,3.693 2.139-2.125-3.21-2.298 2.956-2.064-1.046-1.29-2.727,3.122z" fill="url(#v)"/> <path d="m65.363 81.485-1.911-3.741-1.54 1.36 3.8 2.887 2.727-3.122-1.021-1.257z" fill="#ff8900"/> <path d="m66.529,82.223 2.956-2.064-1.046-1.29-1.021-1.257-2.055,3.873-1.911-3.741-1.54,1.36-.8.705 3.542,2.414-3.75,1.875 2.283,2.472 2.243-3.617 2.17,3.693 2.139-2.125z" fill="url(#be)"/> <path d="m56.699,105.63v1.893c0,.521-.148,1.001-.39,1.422 .624.464 1.359.782 2.162.907-.259-1.753-.475-3.587-.117-5.166-.19-1.604-.299-3.148-.117-4.486-.957.197-1.809.671-2.476,1.336-.401.402-.729.876-.973,1.395 1.112.398 1.911,1.451 1.911,2.699z" fill="url(#bd)"/> <path d="m55.925,108.627c.174-.332.283-.703.283-1.104v-1.893c-.001-1.007-.625-1.862-1.507-2.214l.004.004c.073.076.136.187.136.317s-.063.241-.135.317-.164.137-.267.189l-.056.021c-.025.17-.042.343-.05.519 .157.085.294.178.39.305 .069.092.119.209.117.336s-.048.244-.117.336-.158.169-.261.237l-.035.019c.198.95.671,1.798 1.333,2.462l.165.149z" fill="url(#bc)"/> <path d="m53.65,104.501-.035.006c.223.061.42.128.589.204 .048.022.086.049.13.073 .007-.176.025-.349.05-.519-.196.094-.438.172-.734.236z"/> <path d="m55.12,109.521c.341-.222.614-.532.806-.894l-.164-.148c-.662-.664-1.135-1.512-1.333-2.462-.202.125-.457.228-.765.313-.056.016-.123.027-.182.042 .272.066.523.142.722.231 .221.103.398.215.52.378 .069.092.119.209.117.336s-.048.244-.117.336-.158.169-.261.237c-.201.131-.463.234-.775.323l.079.129c.155.048.311.096.437.153 .221.103.398.215.52.378 .069.092.119.209.117.336 .001.093-.031.177-.072.253l.351.059z"/> <path d="m51.31,114.304c.722,38.183.844,35.673 1.216,44.063l4.408-10.188-3.577-33.938-2.047.063z" fill="#ac9393"/> <path d="m49.064,113.883 4.478-.139 3.568-.863-12.253-2.196 .067,2.168z" fill="#d45500"/> <path d="m44.35,110.191 .006.205 .083,2.656 .006.187 .18.044 4.154,1.035-2.13,34.313-.003.066 .029.059 5.432,10.799 .236.47 .208-.482 4.857-11.229 .026-.059-.007-.064-3.586-34.015 4.469-1.081 .233.042 .001-.099 .003-.191 .018-1.466 .132.007c.188,1.333.303,2.551.076,3.482-3.149,2.663 10.438,4.938 3.166,8.26-.479,3.208-1.715,6.041-1.995,9.551-1.289,2.65 2.534,7.603-1.768,7.32-1.302,2.626 2.808,7.277.207,10.948-.349,3.105-2.911,11.092-1.651,11.264 4.367-9.704 4.188.9 6.453-1.377 2.269-1.907 3.946-2.68 5.271,2.708 1.771-1.865 2.846-2.622 4.334-3.838l.507,1.479c1.191,7.03 1.658-4.552 3.342,2.304 1.301-8.172 3.064,1.624 4.037-2.739 .979.09 1.915-2.188 3.453-.458 2.375,5.271.211-8.086 5.589,3.01-.54-5.778-1.494-11.505-2.297-17.25 2.495-4.416 4.125-10.19 3.556-14.886-5.366-.451-4.453-6.753-7.099-9.994 1.863-2.612 10.159-4.589 7.785-7.487 .093-4.827.266-10.768.164-16.008-9.045-3.553-18.823-3.617-28.409-1.758-2.728.102-4.124,1.143-4.777,2.708-1.518.14-2.881.806-3.907,1.817-.031-.078-.073-.151-.123-.217-.164-.206-.412-.389-.71-.568-.447-.269-1.011-.518-1.55-.704s-1.049-.311-1.425-.313l-.183.013-.207.032-.004.001v.013c-.479.104-1.135.325-1.762.63-.359.176-.702.376-.984.6s-.508.467-.612.765c-.028.081-.04.163-.04.245 .004.32.174.592.385.84 .369.426.913.805 1.313,1.056l-.091.01c-.325.05-.601.12-.822.253-.221.124-.393.361-.387.638-.006.276.166.514.387.639 .091.054.192.096.3.133-.116.048-.229.102-.324.175-.224.166-.368.438-.363.741-.004.304.139.575.363.741 .114.086.249.148.393.202-.145.054-.277.12-.393.208-.224.166-.368.438-.363.741-.004.304.139.575.363.741 .114.086.249.148.393.202-.145.054-.277.12-.393.208-.224.166-.368.438-.363.741-.001.104.021.204.051.298l-3.032.641-.201.042zm15.501-11.441c7.036-3.487 22.146-3.672 30.467,0v11.197c0,1.33-.271,2.596-.759,3.744l1.049,1.049-6.731,5.07c-.164-.125-.456-.359-.77-.617-.672.168-1.369.267-2.089.284 1.791,1.883 3.424,4.319 3.696,6.806 .689,1.382 1.209,2.902 1.52,4.523 .946.201 1.581.838 3.485,1.456 0,0-.012,7.743-3.84,13.567l1.776,12.296-1.977-2.811-.697,3.487-1.787-2.922-1.108,2.909-1.195-2.451-1.004,3.269-1.629-3.559-1.542,3.536-1.002-2.518c-.574,1.556-1.112,3.077-1.112,3.313 0,.322-.948-2.235-1.64-4.145l-1.483,3.217-.808-2.161-1.76,3.376-1.897-4.635-1.635,2.558-.935-2.03-2.032,2.782-1.674-4.272-2.254,2.791c0,0 2.256-11.54 2.508-12.105-1.484-2.341-1.733-4.43-1.733-4.43 .68-.237 1.777-.449 3.113-.621-.713-1.941-1.121-4.089-1.121-6.354 0-3.128.763-6.035 2.065-8.472-.239-.156-.41-.309-.458-.451-.315-.948.79-2.053.79-2.053s.333.277.835.657c.158-.216.309-.438.478-.643 0-1.959.357-3.462.847-4.599l-.138-.051-.576,1.218-5.086-4.147 1.254-.875c-.889-1.451-1.411-3.154-1.411-4.988v-11.195zm-12.706,49.848 2.124-34.23 1.551-.048c.718,38.06.841,35.702 1.211,43.994l-4.886-9.716zm9.788-.419-4.408,10.188c-.372-8.39-.494-5.88-1.216-44.063l2.046-.063 3.578,33.938zm-2.209-39.305c-.122-.163-.299-.275-.52-.378-.126-.058-.281-.105-.437-.153-.091-.028-.185-.054-.286-.078l.182-.042 .025-.009c.312-.089.574-.192.775-.323 .103-.068.192-.144.261-.237s.119-.209.117-.336-.048-.244-.117-.336c-.122-.163-.299-.275-.52-.378-.199-.09-.45-.165-.722-.231l.182-.042c.308-.086.563-.188.765-.313l.035-.019c.103-.068.192-.144.261-.237s.119-.209.117-.336-.048-.244-.117-.336c-.095-.127-.233-.22-.39-.305l-.13-.073c-.168-.076-.366-.144-.589-.204l.035-.006c.296-.064.538-.142.734-.235l.056-.021c.103-.053.192-.111.267-.189 .072-.076.136-.187.135-.317s-.063-.241-.136-.317l-.004-.004c.882.352 1.506,1.207 1.507,2.214v1.893c0,.401-.108.772-.283,1.104-.192.361-.464.672-.806.894l-.35-.058c.041-.076.073-.16.072-.253 0-.13-.05-.247-.119-.339zm-1.509-6.057c-.06.013-.116.038-.174.054l-.136-.021c.119-.111.287-.272.482-.463-.063.141-.119.285-.172.43zm2.546-1.282c.667-.665 1.519-1.139 2.476-1.336-.182,1.338-.073,2.883.117,4.486-.357,1.579-.142,3.413.117,5.166-.803-.125-1.538-.443-2.162-.907 .242-.421.39-.901.39-1.422v-1.893c0-1.248-.798-2.301-1.91-2.7 .243-.518.571-.991.972-1.394zm-2.767-1.794c.378.172.727.366.965.546 .12.09.212.176.265.245 .056.069.064.112.063.115-.185.299-.665.815-1.09,1.237-.425.424-.797.764-.798.765l-.091.084 .006.064c-.356-.027-.728-.046-1.128-.046h-.012c-.098-.98-.146-2.147-.148-3.611 .446.031 1.269.278 1.968.601zm-3.413,2.97-.083-.047c-.193-.108-.686-.396-1.116-.742-.215-.172-.416-.359-.554-.536s-.207-.34-.204-.444l.013-.087c.048-.15.209-.348.453-.538 .627-.503 1.761-.948 2.446-1.116 .001,1.421.048,2.574.145,3.552-.349.002-.678.007-.987.019l-.113-.061zm-1.409,1.244c-.125-.083-.144-.123-.149-.218 .006-.095.025-.135.149-.218 .173-.109.543-.188 1.017-.229l.11-.01c.122-.009.252-.016.385-.021 .322-.013.678-.017 1.055-.018l.448-.001 .045.001c.4.001.778.019 1.131.048 .258.021.501.047.721.08 .166.025.322.052.461.083 .296.063.53.141.671.214l.107.068c-.034.03-.108.082-.243.132-.256.103-.655.191-1.141.257l-.488.054c-.331.029-.688.047-1.062.052l-.202.003-.299-.001c-.466-.001-.899-.006-1.286-.023l-.491-.034-.299-.032c-.291-.041-.516-.111-.64-.187zm.023,1.822c-.12-.1-.167-.183-.173-.353 .006-.169.053-.253.173-.353 .152-.123.46-.215.861-.27l.246-.029 .25-.018c.423-.026.91-.031 1.434-.032h.199l.308.009c.359.01.703.03 1.017.068 .177.021.344.047.501.075 .189.034.365.073.52.116 .293.081.523.179.662.27 .069.045.114.088.136.118l.013.029 .007.016-.006.013-.015.032c-.037.054-.151.143-.33.223-.215.1-.52.188-.883.261-.151.029-.315.057-.486.08-.229.03-.47.054-.727.069-.167.011-.337.017-.513.02l-.205.004c-.649.001-1.247-.003-1.749-.041-.177-.014-.34-.032-.489-.057l-.126-.017c-.286-.053-.502-.136-.625-.233zm0,1.893c-.12-.1-.167-.183-.173-.353 .006-.169.053-.253.173-.353 .13-.105.375-.188.693-.244 .127-.023.264-.042.415-.055l.083-.006c.513-.041 1.129-.044 1.8-.044l.396.011 .541.031 .576.063 .504.088c.113.024.23.048.33.075 .293.081.523.179.662.27 .069.045.114.088.136.118l.021.045-.021.045c-.037.054-.151.143-.33.223-.145.066-.331.129-.545.185l-.157.037c-.151.034-.311.066-.485.093l-.108.016-.519.06c-.316.027-.65.045-1,.044-.719.001-1.383-.003-1.915-.054-.163-.016-.315-.034-.45-.061l-.037-.01c-.266-.054-.472-.132-.59-.224zm0,1.187c.105-.086.29-.155.524-.209 .146-.034.313-.061.5-.08l.083-.01c.527-.049 1.178-.05 1.884-.05 .464,0 .905.027 1.304.074 .338.04.636.097.901.163l.141.031c.293.081.523.179.662.27 .069.045.114.088.136.118l.021.045-.021.045c-.021.03-.07.071-.135.114-.053.035-.114.072-.195.108-.19.088-.45.167-.754.234-.558.122-1.277.2-2.06.199-.94.001-1.787-.003-2.364-.114l-.104-.028c-.23-.054-.417-.123-.523-.206-.062-.051-.104-.1-.13-.157-.026-.054-.04-.113-.042-.195 .005-.168.052-.252.172-.352zm-.306,1.087c.001.003.004.005.006.007 .335.253.801.345 1.364.4 .561.051 1.222.05 1.928.05 .961,0 1.83-.106 2.477-.286 .239-.066.435-.146.611-.235l3.813.624-.026,2.048-12.179-2.183 2.006-.425zm9.221,2.937-3.568.863-4.478.139-4.14-1.03-.067-2.168 12.253,2.196z"/> <path d="m50.536,99.2c-.686.168-1.819.613-2.446,1.116-.243.19-.404.388-.453.538l-.013.087c-.003.104.064.267.204.444s.338.364.554.536c.431.346.923.634 1.116.742l.083.047 .113.06c.309-.012.639-.017.987-.019-.097-.977-.143-2.13-.145-3.551z" fill="#520"/> <path d="m58.087,110.504-3.813-.624c-.176.089-.372.169-.611.235-.647.18-1.516.286-2.477.286-.706,0-1.367.001-1.928-.05-.563-.056-1.028-.147-1.364-.4l-.006-.007-2.007.425 12.179,2.183 .027-2.048z" fill="#803300"/> <path d="m51.187,102.752c.4,0 .772.019 1.128.046l-.006-.064 .091-.084c.001-.001.374-.341.798-.765s.905-.938 1.09-1.237c.001-.003-.007-.046-.063-.115-.053-.069-.145-.155-.265-.245-.239-.18-.587-.374-.965-.546-.699-.323-1.522-.57-1.967-.601 .001,1.464.05,2.631.148,3.611h.011z" fill="#a40"/> <path d="m52.813,109.215-.322-.632c-.398-.047-.839-.074-1.304-.074-.706,0-1.356.001-1.884.05l-.083.01-.057.666 3.65-.02z" fill="#520"/> <path d="m48.92,109.727-.202.042 .104.028c.577.111 1.424.115 2.364.114 .782.001 1.501-.077 2.06-.199l-.054-.009-4.272.024z" fill="#803300"/> <path d="m48.065,109.405c.026.058.069.106.13.157 .105.083.293.152.523.206l.202-.042 4.271-.023 .054.009c.305-.067.564-.146.754-.234 .081-.036.142-.073.195-.108l-.756-.123-.048-.5c-.265-.066-.563-.123-.901-.163l.322.632-3.65.02 .057-.666c-.186.02-.353.046-.5.08l-.054.631-.599.124z"/> <path d="m48.065,109.405c.026.058.069.106.13.157 .105.083.293.152.523.206l.104.028c.577.111 1.424.115 2.364.114 .782.001 1.501-.077 2.06-.199 .305-.067.564-.146.754-.234 .081-.036.142-.073.195-.108 .064-.043.114-.084.135-.114l.021-.045-.021-.045c-.022-.03-.067-.073-.136-.118-.139-.091-.369-.188-.662-.27l-.141-.031c-.265-.066-.563-.123-.901-.163-.398-.047-.839-.074-1.304-.074-.706,0-1.356.001-1.884.05l-.083.01c-.186.02-.353.046-.5.08-.234.054-.419.123-.524.209-.12.1-.167.184-.173.353 .003.081.017.141.043.194z" fill="url(#bb)"/> <path d="m53.456,107.77c.214-.056.4-.118.545-.185 .179-.08.293-.169.33-.223l.021-.045-.021-.045c-.022-.03-.067-.073-.136-.118-.139-.091-.369-.188-.662-.27-.1-.027-.217-.051-.33-.075l.045.478c.063.164.133.324.208.483z"/> <path d="m51.187,108.019c.35.001.684-.017 1-.044-.226-.46-.426-.901-.605-1.348l-.396-.011c-.671,0-1.288.003-1.8.044l-.114,1.305c.532.051 1.195.055 1.915.054z" fill="#520"/> <path d="m48.822,107.904c.135.026.287.045.45.061l.114-1.305-.083.006c-.151.013-.287.031-.415.055l-.103,1.174 .037.009z"/> <path d="m52.814,107.899-.116-1.178c-.182-.026-.374-.047-.576-.063 .171.408.366.821.583,1.257l.109-.016z" fill="#a40"/> <path d="m52.706,107.915c-.217-.436-.412-.849-.583-1.257l-.541-.031c.179.446.379.888.605,1.348l.519-.06z"/> <path d="m53.299,107.807-.051-.52-.045-.478-.504-.088 .116,1.178 .484-.092z"/> <path d="m48.195,107.67c.117.092.324.17.59.225l.037.01c.135.026.287.045.45.061 .532.051 1.195.055 1.915.054 .35.001.684-.017 1-.044l.519-.06 .108-.016 .485-.093 .157-.037c.214-.056.4-.118.545-.185 .179-.08.293-.169.33-.223l.021-.045-.021-.045c-.022-.03-.067-.073-.136-.118-.139-.091-.369-.188-.662-.27-.1-.027-.217-.051-.33-.075l-.504-.088c-.182-.026-.374-.047-.576-.063l-.541-.031-.396-.011c-.671,0-1.288.003-1.8.044l-.083.006c-.151.013-.287.031-.415.055-.318.057-.563.139-.693.244-.12.1-.167.184-.173.353 .006.169.053.252.173.352z" fill="url(#ba)"/> <path d="m54.351,105.425-.007-.016c.001.009.001.019.001.028l.006-.012z" fill="url(#az)"/> <path d="m54,105.692c.179-.08.293-.169.33-.223l.015-.032c0-.01 0-.02-.001-.028l-.013-.029c-.022-.03-.067-.073-.136-.118-.139-.091-.369-.188-.662-.27-.155-.043-.331-.082-.52-.116l.105,1.077c.362-.072.667-.161.882-.261z"/> <path d="m51.187,106.126 .205-.004c-.095-.271-.186-.544-.265-.833-.05-.184-.097-.371-.139-.565-.524.001-1.011.006-1.434.032l-.116,1.329c.502.038 1.1.042 1.749.041z" fill="#520"/> <path d="m49.438,106.085 .116-1.329-.25.018-.246.029-.108,1.226 .488.056z"/> <path d="m51.904,106.103c.256-.016.498-.039.727-.069l-.12-1.232c-.313-.038-.658-.059-1.017-.068 .035.145.069.289.107.427 .089.325.192.636.303.942z" fill="#a40"/> <path d="m51.392,106.122c.176-.003.346-.009.513-.02-.111-.306-.214-.616-.303-.943-.038-.138-.072-.282-.107-.427l-.308-.009h-.199c.042.194.089.382.139.565 .079.29.169.564.265.834z"/> <path d="m53.117,105.953-.105-1.077c-.157-.028-.324-.054-.501-.075l.12,1.232c.171-.023.335-.051.486-.08z"/> <path d="m48.195,105.777c.123.097.338.18.627.234l.126.017 .489.057c.502.038 1.1.042 1.749.041l.205-.004c.176-.003.346-.009.513-.02 .256-.016.498-.039.727-.069 .171-.023.335-.051.486-.08 .363-.072.668-.161.883-.261 .179-.08.293-.169.33-.223l.015-.032 .006-.013-.007-.016-.013-.029c-.022-.03-.067-.073-.136-.118-.139-.091-.369-.188-.662-.27-.155-.043-.331-.082-.52-.116-.157-.028-.324-.054-.501-.075-.313-.038-.658-.059-1.017-.068l-.308-.009h-.199c-.524.001-1.011.006-1.434.032l-.25.018-.246.029c-.401.055-.709.146-.861.27-.12.1-.167.184-.173.353 .004.17.051.253.171.352z" fill="url(#ay)"/> <path d="m52.921,103.934 .018.191c.486-.065.885-.154 1.141-.257 .135-.05.209-.102.243-.132-.023-.02-.056-.043-.107-.068-.141-.073-.375-.15-.671-.214-.139-.031-.296-.058-.461-.083-.015.005-.031.009-.045.014-.048.18-.087.363-.118.549z"/> <path d="m53.615,104.507c.223.061.42.128.589.204 .048.022.086.049.13.073 .157.085.294.178.39.305 .069.092.119.209.117.336s-.048.244-.117.336-.158.169-.261.237l-.035.019c-.202.125-.457.228-.765.313-.056.016-.123.027-.182.042 .272.066.523.142.722.231 .221.103.398.215.52.378 .069.092.119.209.117.336s-.048.244-.117.336-.158.169-.261.237c-.201.131-.463.234-.775.323l-.025.009c-.056.016-.123.027-.182.042 .101.024.195.05.286.078 .155.048.311.096.437.153 .221.103.398.215.52.378 .069.092.119.209.117.336 .001.093-.031.177-.072.253l.35.058c.341-.222.614-.532.806-.894 .174-.332.283-.703.283-1.104v-1.893c-.001-1.007-.625-1.862-1.507-2.214l.004.004c.073.076.136.187.136.317s-.063.241-.135.317-.164.137-.267.189l-.056.021c-.196.094-.438.171-.734.235-.008.006-.021.007-.033.009z" fill="url(#ax)"/> <path d="m54.194,109.047c-.139-.091-.369-.188-.662-.27l-.141-.031 .048.5 .756.123c.064-.043.114-.084.135-.114l.021-.045-.021-.045c-.022-.03-.067-.073-.136-.118z" fill="url(#aw)"/> <path d="m54,107.585c.179-.08.293-.169.33-.223l.021-.045-.021-.045c-.022-.03-.067-.073-.136-.118-.139-.091-.369-.188-.662-.27-.1-.027-.217-.051-.33-.075l.045.478 .051.52 .157-.037c.214-.056.4-.119.545-.185z" fill="url(#av)"/> <path d="m54.33,105.47 .015-.032 .006-.013-.007-.016-.013-.029c-.022-.03-.067-.073-.136-.118-.139-.091-.369-.188-.662-.27-.155-.043-.331-.082-.52-.116l.105,1.077c.363-.072.668-.161.883-.261 .178-.08.292-.169.329-.222z" fill="url(#au)"/> <path d="m52.921,103.934 .018.191c.486-.065.885-.154 1.141-.257 .135-.05.209-.102.243-.132-.023-.02-.056-.043-.107-.068-.141-.073-.375-.15-.671-.214-.139-.031-.296-.058-.461-.083-.015.005-.031.009-.045.014-.056.02-.113.033-.166.057l.048.492z" fill="url(#at)"/> <path d="m50.888,104.232c-.057-.31-.107-.641-.149-.989-.376.001-.732.005-1.055.018l-.082.948c.386.018.82.022 1.286.023z" fill="#520"/> <path d="m49.602,104.209 .082-.948-.385.021-.11.01-.078.884c.152.013.315.025.491.033z"/> <path d="m52.451,104.179-.088-.888c-.353-.029-.731-.047-1.131-.048 .045.353.097.679.157.987 .373-.004.731-.022 1.062-.051z" fill="#a40"/> <path d="m51.187,104.233 .202-.003c-.06-.309-.111-.635-.157-.987l-.045-.001-.448.001c.042.349.092.68.149.989l.299.001z"/> <path d="m52.938,104.125-.018-.191-.048-.492 .166-.057c.015-.005.031-.009.045-.014-.22-.033-.463-.06-.721-.08l.088.888c.171-.015.335-.033.488-.054z"/> <path d="m48.172,103.955c.125.076.349.146.64.188l.299.032c.152.015.315.026.491.034 .387.018.82.022 1.286.023l.299.001 .202-.003c.374-.005.731-.022 1.062-.052 .17-.015.334-.032.488-.054 .486-.065.885-.154 1.141-.257 .135-.05.209-.102.243-.132-.023-.02-.056-.043-.107-.068-.141-.073-.375-.15-.671-.214-.139-.031-.296-.058-.461-.083-.22-.033-.463-.06-.721-.08-.353-.029-.731-.047-1.131-.048l-.045-.001-.448.001c-.376.001-.732.005-1.055.018l-.385.021-.11.01c-.473.04-.844.119-1.017.229-.125.083-.144.123-.149.218 .005.094.024.134.149.217z" fill="url(#as)"/> <path d="m83.696,130.396c-.501-.349-1.414-.273-2.06-.148 .092-1.19-1.514-4.643-4.445-5.926s-5.043-1.592-5.814-2.741c-1.509-.044-2.351.562-1.667,2.124-.368-.121-1.504.016-1.91.014 .828-1.752-.501-1.769-1.094-2.047-.46.346-1.447,1.371-1.753,2.088-.003-.131.009-.243.009-.37-.168.204-.319.427-.478.643 1.122.851 3.094,2.22 4.112,2.184-.105.368.051.842-.105,1.526 0,0-3.822-.986-5.172-1.863-1.302,2.437-2.065,5.344-2.065,8.472 0,2.266.407,4.413 1.121,6.354 5.123-.661 13.803-.732 16.342.599 2.569-2.201 3.538-5.336 2.943-9.61 2.591-.894 3.713-1.07 4.576-.887-.311-1.621-.83-3.142-1.52-4.523 .15,1.383-.119,2.783-1.02,4.111zm-20.033,5.64c-.64,0-1.217-.185-1.632-.479-.274-.162-.482-.421-.582-.731-.012-.032-.021-.063-.029-.096-.015-.063-.022-.128-.028-.194-.003-.026-.012-.052-.012-.079 0-.005.001-.01.001-.015 0-.007-.001-.015-.001-.021 0-.017.004-.032.004-.049s-.004-.041-.004-.062c0-.531.299-.967.687-1.048 .12-.066.25-.116.39-.142 .35-.15.762-.243 1.206-.243 1.258,0 2.281.708 2.281,1.579s-1.023,1.58-2.281,1.58zm3.206-3.1-.372.221c-.593-.965-1.459-2.552-1.336-3.281 .125-.729 1.241-.571 1.833-.991l.249.358c-.521.369-1.337.006-1.44.605s.511,2.185 1.066,3.088zm-1.619-8.622c2.191-.104 5.479-.252 8.798,0-3.491,1.29-5.941,1.684-8.798,0zm5.978,11.466c-.64,0-1.217-.185-1.631-.479-.272-.161-.48-.42-.58-.73-.012-.031-.021-.063-.029-.096-.015-.063-.022-.128-.028-.193-.003-.027-.012-.053-.012-.08 0-.005.001-.009.001-.015s-.001-.015-.001-.022c0-.016.004-.031.004-.047s-.004-.041-.004-.063c0-.53.299-.968.688-1.048 .12-.065.249-.115.388-.141 .35-.152.76-.243 1.204-.243 1.26,0 2.282.707 2.282,1.578s-1.022,1.579-2.282,1.579zm3.806-8.95c-.584.81-6.142.896-6.142.896 .054-.699.296-1.039.306-1.422 1.39.49 5.697-1.668 5.697-1.668s.724,1.385.139,2.194z"/> <path d="m83.696,130.396c-.501-.349-1.414-.273-2.06-.148 .092-1.19-1.514-4.643-4.445-5.926s-5.043-1.592-5.814-2.741c-1.509-.044-2.351.562-1.667,2.124-.368-.121-1.504.016-1.91.014 .828-1.752-.501-1.769-1.094-2.047-.46.346-1.447,1.371-1.753,2.088-.003-.131.009-.243.009-.37-.168.204-.319.427-.478.643 1.122.851 3.094,2.22 4.112,2.184-.105.368.051.842-.105,1.526 0,0-3.822-.986-5.172-1.863-1.302,2.437-2.065,5.344-2.065,8.472 0,2.266.407,4.413 1.121,6.354 5.123-.661 13.803-.732 16.342.599 2.569-2.201 3.538-5.336 2.943-9.61 2.591-.894 3.713-1.07 4.576-.887-.311-1.621-.83-3.142-1.52-4.523 .15,1.383-.119,2.783-1.02,4.111zm-20.033,5.64c-.64,0-1.217-.185-1.632-.479-.274-.162-.482-.421-.582-.731-.012-.032-.021-.063-.029-.096-.015-.063-.022-.128-.028-.194-.003-.026-.012-.052-.012-.079 0-.005.001-.01.001-.015 0-.007-.001-.015-.001-.021 0-.017.004-.032.004-.049s-.004-.041-.004-.062c0-.531.299-.967.687-1.048 .12-.066.25-.116.39-.142 .35-.15.762-.243 1.206-.243 1.258,0 2.281.708 2.281,1.579s-1.023,1.58-2.281,1.58zm3.206-3.1-.372.221c-.593-.965-1.459-2.552-1.336-3.281 .125-.729 1.241-.571 1.833-.991l.249.358c-.521.369-1.337.006-1.44.605s.511,2.185 1.066,3.088zm-1.619-8.622c2.191-.104 5.479-.252 8.798,0-3.491,1.29-5.941,1.684-8.798,0zm5.978,11.466c-.64,0-1.217-.185-1.631-.479-.272-.161-.48-.42-.58-.73-.012-.031-.021-.063-.029-.096-.015-.063-.022-.128-.028-.193-.003-.027-.012-.053-.012-.08 0-.005.001-.009.001-.015s-.001-.015-.001-.022c0-.016.004-.031.004-.047s-.004-.041-.004-.063c0-.53.299-.968.688-1.048 .12-.065.249-.115.388-.141 .35-.152.76-.243 1.204-.243 1.26,0 2.282.707 2.282,1.578s-1.022,1.579-2.282,1.579zm3.806-8.95c-.584.81-6.142.896-6.142.896 .054-.699.296-1.039.306-1.422 1.39.49 5.697-1.668 5.697-1.668s.724,1.385.139,2.194z" fill="url(#a)"/> <path d="m61.262,114.936-1.254.875 5.086,4.147 .576-1.218c-1.842-.777-3.374-2.119-4.408-3.804z"/> <path d="m61.542,114.74c.249-.201 4.689,2.813 4.689,2.813l-.561,1.188 .138.051c.444-1.031.983-1.777 1.446-2.283 1.008-1.1 6.962-1.924 10.17,0 .996.599 2.335,1.647 3.595,2.97 .72-.018 1.417-.116 2.089-.284-.654-.534-1.418-1.172-1.418-1.172l7.044-5.156 .826.826c.488-1.148.759-2.414.759-3.744v-11.199c-8.32-3.672-23.431-3.487-30.467,0v11.197c0,1.834.521,3.537 1.411,4.988l.279-.195zm20.405-18.136-1.028,10.885-.948.093-.623-11.165 2.599.187zm-12.431,12.237 2.954-2.063-3.209-2.299 2.14-2.124 2.17,3.692 2.243-3.617 2.283,2.473-3.752,1.875 3.543,2.414-.799.705 4.047,3.074h-13.055l2.481-2.84-1.046-1.29z"/> <path d="m61.542,114.74c.249-.201 4.689,2.813 4.689,2.813l-.561,1.188 .138.051c.444-1.031.983-1.777 1.446-2.283 1.008-1.1 6.962-1.924 10.17,0 .996.599 2.335,1.647 3.595,2.97 .72-.018 1.417-.116 2.089-.284-.654-.534-1.418-1.172-1.418-1.172l7.044-5.156 .826.826c.488-1.148.759-2.414.759-3.744v-11.199c-8.32-3.672-23.431-3.487-30.467,0v11.197c0,1.834.521,3.537 1.411,4.988l.279-.195zm20.405-18.136-1.028,10.885-.948.093-.623-11.165 2.599.187zm-12.431,12.237 2.954-2.063-3.209-2.299 2.14-2.124 2.17,3.692 2.243-3.617 2.283,2.473-3.752,1.875 3.543,2.414-.799.705 4.047,3.074h-13.055l2.481-2.84-1.046-1.29z" fill="url(#ar)"/> <path d="m61.542,114.74-.28.195c1.034,1.686 2.566,3.027 4.408,3.805l.561-1.188c-.001.001-4.44-3.013-4.689-2.812z"/> <path d="m65.094,119.958 .576-1.218 .561-1.188c0,0-4.44-3.014-4.689-2.813l-.28.195-1.254.875 5.086,4.149z" fill="url(#aq)"/> <path d="m64.738,145.013c-.974-1.256-1.777-2.708-2.366-4.308-1.336.172-2.433.384-3.113.621 0,0 .249,2.089 1.733,4.43l.012-.025c1.201-.286 2.452-.521 3.734-.718z"/> <path d="m82.99,145.15c.976.167 1.937.359 2.876.58l.014.1c3.828-5.824 3.84-13.567 3.84-13.567-1.904-.618-2.539-1.255-3.485-1.456 .219,1.14.346,2.322.346,3.544-.001,4.201-1.373,8.006-3.591,10.799z"/> <path d="m81.658,131.693c.595,4.274-.374,7.409-2.943,9.61-2.539-1.331-11.22-1.26-16.342-.599 .589,1.6 1.392,3.052 2.366,4.308 5.822-.893 12.328-.874 18.252.138 2.218-2.793 3.59-6.599 3.59-10.8 0-1.222-.127-2.404-.346-3.544-.864-.183-1.986-.006-4.577.887z"/> <path d="m81.658,131.693c.595,4.274-.374,7.409-2.943,9.61-2.539-1.331-11.22-1.26-16.342-.599 .589,1.6 1.392,3.052 2.366,4.308 5.822-.893 12.328-.874 18.252.138 2.218-2.793 3.59-6.599 3.59-10.8 0-1.222-.127-2.404-.346-3.544-.864-.183-1.986-.006-4.577.887z" fill="url(#a)"/> <path d="m68.948,134.201c0,.027.009.053.012.08-.003-.032-.009-.063-.01-.095l-.002.015z" fill="#fff"/> <path d="m71.228,132.623c-.443,0-.854.091-1.204.243l.227-.023c.719,0 1.304.592 1.304,1.321s-.585,1.322-1.304,1.322c-.24,0-.461-.07-.655-.186 .415.295.992.479 1.631.479 1.26,0 2.282-.708 2.282-1.579s-1.021-1.577-2.281-1.577z" fill="#fff"/> <path d="m71.555,134.164c0-.729-.585-1.321-1.304-1.321-.078,0-.154.011-.227.023-.139.025-.268.075-.388.141 .041-.009.083-.018.126-.018 .449,0 .814.478.814,1.065s-.365,1.064-.814,1.064c-.434,0-.785-.443-.81-1.002 0,.016-.004.031-.004.047 0,.008.001.015.001.022 .001.032.007.063.01.095 .006.065.013.131.028.193l.029.096c.1.311.308.569.58.73 .193.115.415.186.655.186 .719.001 1.304-.59 1.304-1.321z" fill="#0f90cc"/> <path d="m69.762,135.119c.449,0 .814-.477.814-1.064s-.365-1.065-.814-1.065c-.042,0-.085.009-.126.018-.39.08-.688.518-.688,1.048 0,.021.003.041.004.063 .025.557.377,1 .81,1z"/> <path d="m61.38,134.457c0,.027.009.053.012.079-.003-.031-.009-.062-.01-.094 0,.005-.002.01-.002.015z" fill="#fff"/> <path d="m63.663,132.878c-.444,0-.855.093-1.206.243 .073-.013.149-.022.227-.022 .719,0 1.304.593 1.304,1.322s-.584,1.321-1.304,1.321c-.24,0-.461-.07-.653-.185 .415.294.992.479 1.632.479 1.258,0 2.281-.707 2.281-1.579s-1.023-1.579-2.281-1.579z" fill="#fff"/> <path d="m63.988,134.421c0-.729-.584-1.322-1.304-1.322-.078,0-.154.01-.227.022-.139.025-.27.075-.39.142 .042-.009.083-.017.127-.017 .45,0 .814.477.814,1.064s-.365,1.064-.814,1.064c-.434,0-.785-.444-.81-1.003 0,.017-.004.032-.004.049 0,.007.001.015.001.021 .001.032.007.063.01.094 .006.066.013.132.028.194l.029.096c.1.311.308.569.582.731 .192.114.413.185.653.185 .72.001 1.305-.591 1.305-1.32z" fill="#0f90cc"/> <path d="m62.195,135.375c.45,0 .814-.477.814-1.064s-.365-1.064-.814-1.064c-.044,0-.085.008-.127.017-.388.081-.687.517-.687,1.048 0,.021.003.041.004.062 .025.557.376,1.001.81,1.001z"/> <path d="m65.25,124.314c2.856,1.684 5.307,1.289 8.798,0-3.319-.251-6.606-.104-8.798,0z"/> <path d="m65.25,124.314c2.856,1.684 5.307,1.289 8.798,0-3.319-.251-6.606-.104-8.798,0z" fill="url(#x)"/> <path d="m65.25,124.314c2.856,1.684 5.307,1.289 8.798,0-3.319-.251-6.606-.104-8.798,0z" fill="url(#ao)"/> <path d="m80.918,107.488 1.029-10.884-2.6-.188 .623,11.165z" fill="#808080"/> <path d="m67.243,129.242-.249-.358c-.592.42-1.708.263-1.833.991-.123.729.743,2.316 1.336,3.281l.372-.221c-.555-.902-1.167-2.488-1.066-3.088s.918-.236 1.44-.605z"/> <path d="m77.518,119.49c3.031,1.102 5.58,3.559 7.196,6.793-.272-2.486-1.905-4.923-3.696-6.806l-.244.013h-3.256z"/> <path d="m70.311,119.49h-.915c-1.271,0-2.481-.251-3.589-.699-.489,1.137-.847,2.64-.847,4.599 1.471-1.803 3.305-3.156 5.351-3.9z"/> <path d="m77.518,119.49h-7.207c-2.046.744-3.88,2.097-5.351,3.899 0,.127-.012.239-.009.37 .306-.717 1.293-1.742 1.753-2.088 .593.278 1.922.295 1.094,2.047 .406.002 1.542-.135 1.91-.014-.684-1.563.158-2.168 1.667-2.124 .771,1.149 2.883,1.46 5.814,2.741s4.537,4.735 4.445,5.926c.646-.125 1.559-.2 2.06.148 .901-1.328 1.17-2.729 1.019-4.113-1.615-3.233-4.164-5.69-7.195-6.792z"/> <path d="m77.518,119.49h-7.207c-2.046.744-3.88,2.097-5.351,3.899 0,.127-.012.239-.009.37 .306-.717 1.293-1.742 1.753-2.088 .593.278 1.922.295 1.094,2.047 .406.002 1.542-.135 1.91-.014-.684-1.563.158-2.168 1.667-2.124 .771,1.149 2.883,1.46 5.814,2.741s4.537,4.735 4.445,5.926c.646-.125 1.559-.2 2.06.148 .901-1.328 1.17-2.729 1.019-4.113-1.615-3.233-4.164-5.69-7.195-6.792z" fill="url(#a)"/> <path d="m67.253,116.508c-.463.506-1.002,1.252-1.446,2.283 1.107.448 2.317.699 3.589.699h.915c1.143-.415 2.352-.646 3.604-.646s2.46.231 3.604.646h3.256l.244-.013c-1.26-1.322-2.599-2.371-3.595-2.97-3.209-1.923-9.163-1.099-10.171.001z"/> <path d="m67.253,116.508c-.463.506-1.002,1.252-1.446,2.283 1.107.448 2.317.699 3.589.699h.915c1.143-.415 2.352-.646 3.604-.646s2.46.231 3.604.646h3.256l.244-.013c-1.26-1.322-2.599-2.371-3.595-2.97-3.209-1.923-9.163-1.099-10.171.001z" fill="url(#t)"/> <path d="m73.915,118.844c-1.252,0-2.461.231-3.604.646h7.207c-1.143-.415-2.351-.646-3.603-.646z"/> <path d="m73.915,118.844c-1.252,0-2.461.231-3.604.646h7.207c-1.143-.415-2.351-.646-3.603-.646z" fill="url(#x)"/> <path d="m73.915,118.844c-1.252,0-2.461.231-3.604.646h7.207c-1.143-.415-2.351-.646-3.603-.646z" fill="url(#t)"/> <path d="m66.705,121.672c.593.278 1.922.295 1.094,2.047 .406.002 1.542-.135 1.91-.014-.684-1.563.158-2.168 1.667-2.124 .771,1.149 2.883,1.46 5.814,2.741s4.537,4.735 4.445,5.926c.646-.125 1.559-.2 2.06.148 .901-1.328 1.17-2.729 1.019-4.113-.272-2.486-1.905-4.923-3.696-6.806-1.26-1.322-2.599-2.371-3.595-2.97-3.208-1.924-9.163-1.1-10.17,0-.463.506-1.002,1.252-1.446,2.283-.489,1.137-.847,2.64-.847,4.599 0,.127-.012.239-.009.37 .307-.716 1.294-1.741 1.754-2.087z" fill="url(#aj)"/> <path d="m63.648,123.375c0,0-1.104,1.104-.79,2.053 .048.143.22.295.458.451 .35-.654.743-1.267 1.166-1.847-.502-.38-.834-.657-.834-.657z"/> <path d="m68.595,126.216c-1.018.036-2.99-1.333-4.112-2.184-.423.58-.816,1.192-1.166,1.847 1.351.877 5.172,1.863 5.172,1.863 .157-.684 0-1.158.106-1.526z"/> <path d="m68.595,126.216c-1.018.036-2.99-1.333-4.112-2.184-.423.58-.816,1.192-1.166,1.847 1.351.877 5.172,1.863 5.172,1.863 .157-.684 0-1.158.106-1.526z" fill="url(#a)"/> <path d="m62.858,125.428c.048.143.22.295.458.451 1.351.877 5.172,1.863 5.172,1.863 .157-.685 0-1.158.105-1.526-1.018.036-2.99-1.333-4.112-2.184-.502-.38-.835-.657-.835-.657s-1.103,1.104-.788,2.053z" fill="url(#ah)"/> <path d="m69.198,126.305c-.01.383-.252.723-.306,1.422 0,0 5.558-.087 6.142-.896s-.139-2.193-.139-2.193-4.307,2.157-5.697,1.667z"/> <path d="m69.198,126.305c-.01.383-.252.723-.306,1.422 0,0 5.558-.087 6.142-.896s-.139-2.193-.139-2.193-4.307,2.157-5.697,1.667z" fill="url(#a)"/> <path d="m69.198,126.305c-.01.383-.252.723-.306,1.422 0,0 5.558-.087 6.142-.896s-.139-2.193-.139-2.193-4.307,2.157-5.697,1.667z" fill="url(#af)"/> <path d="m72.962,156.236c.691,1.909 1.64,4.467 1.64,4.145 0-.236.538-1.758 1.112-3.313l-1.452-3.647-1.3,2.815z"/> <path d="m72.962,156.236c.691,1.909 1.64,4.467 1.64,4.145 0-.236.538-1.758 1.112-3.313l-1.452-3.647-1.3,2.815z" fill="url(#d)"/> <path d="m78.258 156.05 1.629 3.558 1.004-3.268-1.457-2.985z"/> <path d="m78.258 156.05 1.629 3.558 1.004-3.268-1.457-2.985z" fill="url(#ad)"/> <path d="m67.014 156.03 1.897 4.635 1.76-3.376-1.646-4.402z"/> <path d="m67.014 156.03 1.897 4.635 1.76-3.376-1.646-4.402z" fill="url(#d)"/> <path d="m83.195 155.88 1.787 2.922 0.697-3.488-1.471-2.094z"/> <path d="m83.195 155.88 1.787 2.922 0.697-3.488-1.471-2.094z" fill="url(#d)"/> <path d="m60.739 155.07 1.674 4.273 2.032-2.782-1.784-3.87z"/> <path d="m60.739 155.07 1.674 4.273 2.032-2.782-1.784-3.87z" fill="url(#d)"/> <path d="m70.671,157.292 .808,2.161 1.483-3.217c-.396-1.096-.709-1.979-.709-1.979l-1.582,3.035z"/> <path d="m75.714 157.07 1.002 2.518 1.542-3.536-1.184-2.587c1e-3 0-0.703 1.825-1.36 3.605z"/> <path d="m64.445,156.561 .934,2.03 1.635-2.558-.784-1.918z"/> <path d="m80.891 156.34 1.195 2.451 1.109-2.909-1.441-2.353z"/> <path d="m63.418,150.365c.297-.149 1.071-.25 2.158-.315-2.197-1.22-3.64-2.808-4.583-4.294-.252.565-2.508,12.105-2.508,12.105l2.254-2.791-.267-.68c-.066-.109 1.07-3.087 2.946-4.025z"/> <path d="m81.463,150.189c2.619.093 4.456.176 4.456.176v3.75l-.24,1.2 1.977,2.811-1.776-12.296c-1.116,1.697-2.556,3.229-4.417,4.359z"/> <path d="m82.99,145.15c-2.302,2.899-5.515,4.707-9.075,4.707-3.615,0-6.868-1.866-9.177-4.845-1.282.197-2.533.433-3.734.718-.003.003-.007.018-.012.025 .943,1.486 2.386,3.074 4.583,4.294 3.715-.225 11.109-.027 15.888.14 1.86-1.131 3.301-2.662 4.416-4.359l-.014-.1c-.939-.22-1.9-.413-2.875-.58z"/> <path d="m73.915 149.86c3.561 0 6.773-1.808 9.075-4.707-5.924-1.012-12.43-1.03-18.252-0.138 2.308 2.979 5.561 4.845 9.177 4.845z"/> <path d="m73.915 149.86c3.561 0 6.773-1.808 9.075-4.707-5.924-1.012-12.43-1.03-18.252-0.138 2.308 2.979 5.561 4.845 9.177 4.845z" fill="url(#a)"/> <path d="m85.919,150.365c0,0-1.837-.083-4.456-.176-1.819,1.107-4.034,1.834-6.744,1.945-3.978-.008-6.939-.861-9.144-2.085-1.087.065-1.86.166-2.158.315-1.876.938-3.012,3.916-2.946,4.025l.267.68 1.922-2.379 1.784,3.869 1.786-2.445 .784,1.918 2.011-3.144 1.646,4.402 1.582-3.034c0,0 .313.883.709,1.979l1.3-2.816 1.452,3.647c.656-1.78 1.36-3.605 1.36-3.605l1.184,2.587 1.176-2.695 1.457,2.985 .863-2.811 1.44,2.353 1.014-2.66 1.471,2.095 .24-1.2v-3.75z"/> <path d="m85.919,150.365c0,0-1.837-.083-4.456-.176-1.819,1.107-4.034,1.834-6.744,1.945-3.978-.008-6.939-.861-9.144-2.085-1.087.065-1.86.166-2.158.315-1.876.938-3.012,3.916-2.946,4.025l.267.68 1.922-2.379 1.784,3.869 1.786-2.445 .784,1.918 2.011-3.144 1.646,4.402 1.582-3.034c0,0 .313.883.709,1.979l1.3-2.816 1.452,3.647c.656-1.78 1.36-3.605 1.36-3.605l1.184,2.587 1.176-2.695 1.457,2.985 .863-2.811 1.44,2.353 1.014-2.66 1.471,2.095 .24-1.2v-3.75z" fill="url(#d)"/> <path d="m81.463,150.189c-4.778-.167-12.173-.364-15.888-.14 2.205,1.224 5.166,2.077 9.144,2.085 2.71-.111 4.925-.837 6.744-1.945z"/> <path d="m60.992,145.756c.943,1.486 2.386,3.074 4.583,4.294 2.205,1.224 5.166,2.077 9.144,2.085 2.71-.111 4.925-.838 6.744-1.945 1.86-1.131 3.301-2.662 4.416-4.359 3.828-5.824 3.84-13.567 3.84-13.567-1.904-.618-2.539-1.255-3.485-1.456-.863-.184-1.985-.007-4.576.887 .595,4.274-.374,7.409-2.943,9.61-2.539-1.331-11.22-1.26-16.342-.599-1.336.172-2.433.384-3.113.621-.001-.001.248,2.088 1.732,4.429z" fill="url(#y)"/> <path d="m81.463,150.189c-4.778-.167-12.173-.364-15.888-.14 2.205,1.224 5.166,2.077 9.144,2.085 2.71-.111 4.925-.837 6.744-1.945z" fill="url(#d)"/> <path d="m60.739,155.07 1.922-2.379 1.784,3.869 .935,2.03 1.635-2.558 2.011-3.144 1.646,4.402 .808,2.161 1.483-3.217 1.3-2.816 1.452,3.647 1.002,2.518 1.542-3.536 1.176-2.695 1.457,2.985 1.195,2.451 1.108-2.909 1.014-2.66 1.471,2.095 1.977,2.811-1.776-12.296-.014-.1c-.939-.221-1.9-.413-2.876-.58-5.924-1.012-12.43-1.03-18.252-.138-1.282.197-2.533.433-3.734.718-.003.003-.007.018-.012.025-.252.565-2.508,12.105-2.508,12.105l2.254-2.789z" fill="url(#w)"/> <path d="m83.107,119.193c.313.258.605.492.77.617l6.731-5.07-1.049-1.049c-1.155,2.719-3.535,4.773-6.452,5.502z"/> <path d="m81.689,118.021c0,0 .764.638 1.418,1.172 2.917-.729 5.297-2.783 6.452-5.502l-.826-.826-7.044,5.156z"/> <path d="m81.689,118.021c0,0 .764.638 1.418,1.172 2.917-.729 5.297-2.783 6.452-5.502l-.826-.826-7.044,5.156z" fill="url(#t)"/> <path d="m83.107 119.19c0.313 0.258 0.605 0.492 0.77 0.617l6.731-5.07-1.875-1.875-7.044 5.156s0.764 0.638 1.418 1.172z" fill="url(#u)"/> <path d="m81.136 112.97-4.047-3.075-1.541 1.36-1.912-3.74-2.054 3.873-1.02-1.258-2.481 2.84z" fill="#ff8900"/> <path d="m77.089 109.9 0.799-0.705-3.543-2.414 3.752-1.875-2.283-2.472-2.243 3.617-2.17-3.693-2.14 2.125 3.209 2.298-2.954 2.064 1.046 1.29 2.726-3.122z"/> <path d="m77.089 109.9 0.799-0.705-3.543-2.414 3.752-1.875-2.283-2.472-2.243 3.617-2.17-3.693-2.14 2.125 3.209 2.298-2.954 2.064 1.046 1.29 2.726-3.122z" fill="url(#t)"/> <path d="m73.636 107.52 1.912 3.74 1.541-1.36-3.801-2.887-2.726 3.122 1.02 1.258z" fill="#ff8900"/> <path d="m72.47,106.777-2.954,2.064 1.046,1.29 1.02,1.258 2.054-3.873 1.912,3.74 1.541-1.36 .799-.705-3.543-2.414 3.752-1.875-2.283-2.472-2.243,3.617-2.17-3.693-2.14,2.125z" fill="url(#s)"/> </svg>